<svg version="1.1" id="Capa_1" xmlns="http://www.w3.org/2000/svg" xmlns:xlink="http://www.w3.org/1999/xlink" x="0px" y="0px"
	 width="70px" height="70px" viewBox="0 0 70 70" enable-background="new 0 0 70 70" xml:space="preserve">
<circle id="Elipse_1188" fill="#A786B3" cx="35" cy="35" r="35"/>
<g id="Grupo_8760" transform="translate(-3.348 -0.25)">
	<g id="Grupo_8758" transform="translate(16.527 15.381)">
		<path id="Trazado_18415" fill="none" stroke="#FFFFFF" stroke-width="2" stroke-linecap="round" stroke-linejoin="round" d="
			M27.73,24.42l1.74-3.02l-1.74-1c0.24-0.92,0.24-1.89,0-2.81l1.74-1l-1.74-3.02l-1.74,1c-0.69-0.65-1.52-1.12-2.43-1.39v-2.02
			h-3.48v2.02c-0.91,0.26-1.74,0.74-2.43,1.38l-1.74-1l-1.74,3.02l1.74,1c-0.24,0.92-0.24,1.89,0,2.81l-1.74,1l1.74,3.02l1.74-1.01
			c0.69,0.65,1.52,1.12,2.42,1.39v2.02h3.48v-2.02c0.9-0.26,1.74-0.74,2.43-1.39L27.73,24.42z"/>
		
			<circle id="Elipse_1102" fill="none" stroke="#FFFFFF" stroke-width="2" stroke-linecap="round" stroke-linejoin="round" cx="21.82" cy="19" r="2.61"/>
	</g>
	<g id="Grupo_8759" transform="translate(4.348 1.25)">
		<path id="Trazado_18416" fill="none" stroke="#FFFFFF" stroke-width="2" stroke-linecap="round" stroke-linejoin="round" d="
			M34.01,14h-0.03c-4.33,4.34-17.37,7.86-17.37,7.86C16.61,35.7,17.48,47.88,34,54c16.53-6.12,17.39-18.3,17.39-32.14
			C51.39,21.86,38.35,18.34,34.01,14z"/>
	</g>
</g>
</svg>
