<svg version="1.1" id="Capa_1" xmlns="http://www.w3.org/2000/svg" xmlns:xlink="http://www.w3.org/1999/xlink" x="0px" y="0px"
	 width="70px" height="70px" viewBox="0 0 70 70" enable-background="new 0 0 70 70" xml:space="preserve">
<circle id="Elipse_1188_1_" fill="#A786B3" cx="35" cy="35" r="35"/>
<g id="XMLID_13858_">
	
		<path id="XMLID_13863_" fill="none" stroke="#FFFFFF" stroke-width="2" stroke-linecap="round" stroke-linejoin="round" stroke-miterlimit="10" d="
		M48.91,37.37L48.91,37.37c1.44,0,2.61,1.17,2.61,2.61s-1.17,2.61-2.61,2.61h-1.74c1.44,0,2.61,1.17,2.61,2.61s-1.17,1.74-2.61,1.74
		c0,0-6.96,0-11.3,0c-4.96,0-6.09-0.87-12.18-1.74V30.4C27.96,30.4,35,22.58,35,15.62c0-2.75,3.81-3.77,5.22,1.25
		c0.87,3.1-1.74,9.19-1.74,9.19h13.91c1.44,0,2.61,1.17,2.61,2.61c0,1.44-1.17,3.48-2.61,3.48h-1.74c1.44,0,2.61,1.17,2.61,2.61
		c0,1.44-1.17,2.61-2.61,2.61L48.91,37.37"/>
	
		<rect id="XMLID_13862_" x="15" y="27.8" fill="none" stroke="#FFFFFF" stroke-width="2" stroke-linecap="round" stroke-linejoin="round" stroke-miterlimit="10" width="8.7" height="20.87"/>
	<g id="XMLID_13859_">
		<g id="XMLID_13860_">
			
				<path id="XMLID_13861_" fill="none" stroke="#FFFFFF" stroke-width="2" stroke-linecap="round" stroke-linejoin="round" stroke-miterlimit="10" d="
				M20.22,44.32c-0.48,0-0.87,0.39-0.87,0.87s0.39,0.87,0.87,0.87s0.87-0.39,0.87-0.87S20.7,44.32,20.22,44.32L20.22,44.32z"/>
		</g>
	</g>
</g>
</svg>
