<svg version="1.1" id="Capa_1" xmlns="http://www.w3.org/2000/svg" xmlns:xlink="http://www.w3.org/1999/xlink" x="0px" y="0px"
	 width="500px" height="245.15px" viewBox="0 0 500 245.15" enable-background="new 0 0 500 245.15" xml:space="preserve">
<path id="XMLID_40_" fill="#FBE7DE" d="M0.19,226.18C0.94,231.21,6.22,235,12.5,235h81.23L442,235h43.5c6,0,11.13-8.71,12.2-13.48
	c3.55-15.81,7.22-49.15-23.85-52.04c-5.61-0.48-10.11-3.95-10.96-8.44c-6.63-36.45,9.89-68.23-39.57-73.6
	c-6.16-0.65-10.78-4.88-10.8-9.9c0.02-25.89-6.12-79.22-107.63-77.5c-88.23,1.5-110.77,33.76-115.96,54.33
	c-1.37,5.39-7.91,8.86-14.59,7.76c-1.03-0.17-2.03-0.45-2.97-0.82c-31.12-12.42-77.28-19.64-93.61,11.63
	c-12.5,23.95,4.49,50.32,18.68,68.53c5.89,7.56-2.58,17.05-13.36,15.01c-21.74-4.11-38.86-4.42-43.17,12.98
	c-5.89,23.75,29.1,39.24,13,38.56c-1.19-0.06-2.36-0.25-3.48-0.57C21.44,199.63-2.4,208.55,0.19,226.18z"/>
<g>
	<g>
		<path fill="#FCF2EF" d="M341,213.5H211.76c-7.09,0-12.84-5.75-12.84-12.84V71.42c0-7.09,5.75-12.84,12.84-12.84H341
			c7.09,0,12.84,5.75,12.84,12.84v129.24C353.85,207.75,348.1,213.5,341,213.5z"/>
		<g>
			<path fill="#7586AC" d="M207.91,110.54c0.02,1.59-1.21,2.88-2.79,2.92c-1.65,0.04-2.96-1.24-2.95-2.88
				c0.01-1.59,1.26-2.85,2.85-2.86C206.61,107.71,207.89,108.96,207.91,110.54z"/>
			<path fill="#7586AC" d="M204.93,131.96c-1.57-0.05-2.8-1.36-2.76-2.95c0.04-1.63,1.39-2.87,3.04-2.79
				c1.56,0.08,2.76,1.41,2.7,3.01C207.85,130.79,206.53,132.01,204.93,131.96z"/>
			<path fill="#7586AC" d="M204.99,89.22c1.59-0.03,2.89,1.21,2.93,2.78c0.04,1.65-1.24,2.96-2.88,2.96c-1.59,0-2.85-1.26-2.86-2.85
				C202.16,90.53,203.41,89.25,204.99,89.22z"/>
			<path fill="#7586AC" d="M207.91,203.07c0,1.59-1.25,2.86-2.84,2.87c-1.64,0.01-2.93-1.29-2.9-2.93c0.03-1.58,1.31-2.82,2.9-2.81
				C206.66,200.22,207.91,201.48,207.91,203.07z"/>
			<path fill="#7586AC" d="M207.91,138.33c0,1.59-1.25,2.86-2.83,2.88c-1.64,0.02-2.94-1.28-2.91-2.93
				c0.03-1.58,1.31-2.82,2.89-2.81C206.66,135.48,207.91,136.74,207.91,138.33z"/>
			<path fill="#7586AC" d="M207.91,175.3c0.01,1.59-1.23,2.87-2.81,2.9c-1.65,0.03-2.95-1.26-2.93-2.9
				c0.01-1.59,1.28-2.84,2.87-2.84C206.63,172.46,207.9,173.71,207.91,175.3z"/>
			<path fill="#7586AC" d="M205.09,98.47c1.58,0.02,2.83,1.3,2.82,2.89c-0.01,1.64-1.33,2.91-2.98,2.85
				c-1.57-0.05-2.79-1.36-2.76-2.95C202.21,99.68,203.5,98.45,205.09,98.47z"/>
			<path fill="#7586AC" d="M207.91,193.86c-0.02,1.58-1.29,2.83-2.88,2.83c-1.64,0-2.91-1.33-2.86-2.97
				c0.05-1.57,1.35-2.8,2.94-2.77C206.69,190.99,207.93,192.27,207.91,193.86z"/>
			<path fill="#7586AC" d="M207.91,64.37c-0.01,1.58-1.27,2.84-2.85,2.85c-1.64,0.01-2.92-1.3-2.88-2.95
				c0.04-1.57,1.33-2.81,2.91-2.79C206.67,61.5,207.92,62.78,207.91,64.37z"/>
			<path fill="#7586AC" d="M204.99,122.71c-1.58-0.03-2.82-1.31-2.81-2.9c0.01-1.64,1.34-2.9,2.99-2.84
				c1.57,0.05,2.79,1.37,2.75,2.96C207.87,121.51,206.58,122.74,204.99,122.71z"/>
			<path fill="#7586AC" d="M205.09,76.47c-1.59,0.02-2.88-1.21-2.92-2.79c-0.04-1.65,1.24-2.96,2.89-2.95
				c1.59,0.01,2.85,1.27,2.85,2.86C207.92,75.17,206.67,76.45,205.09,76.47z"/>
			<path fill="#7586AC" d="M205.03,150.45c-1.59-0.01-2.85-1.26-2.86-2.85c-0.01-1.64,1.3-2.92,2.95-2.89
				c1.58,0.04,2.81,1.33,2.79,2.92C207.89,149.21,206.62,150.46,205.03,150.45z"/>
			<path fill="#7586AC" d="M205.03,159.7c-1.59-0.01-2.85-1.26-2.86-2.85c-0.01-1.64,1.3-2.92,2.95-2.89
				c1.58,0.04,2.81,1.33,2.79,2.92C207.89,158.46,206.62,159.71,205.03,159.7z"/>
			<path fill="#7586AC" d="M207.91,82.83c0.01,1.59-1.24,2.86-2.82,2.88c-1.64,0.02-2.94-1.28-2.92-2.92
				c0.02-1.58,1.3-2.83,2.89-2.82C206.65,79.98,207.91,81.25,207.91,82.83z"/>
			<path fill="#7586AC" d="M207.91,184.53c0.02,1.59-1.21,2.88-2.79,2.92c-1.65,0.04-2.96-1.25-2.95-2.89
				c0.01-1.59,1.27-2.85,2.86-2.85C206.62,181.7,207.89,182.95,207.91,184.53z"/>
			<path fill="#7586AC" d="M205.02,163.21c1.59-0.01,2.87,1.24,2.89,2.82c0.03,1.64-1.27,2.94-2.91,2.93
				c-1.58-0.02-2.83-1.29-2.83-2.88C202.18,164.48,203.43,163.22,205.02,163.21z"/>
			<path fill="#7586AC" d="M212.4,115.26c-0.03,1.44-1.3,2.69-2.74,2.68c-1.49-0.01-2.78-1.35-2.71-2.84
				c0.07-1.45,1.37-2.66,2.8-2.61C211.19,112.54,212.42,113.83,212.4,115.26z"/>
			<path fill="#7586AC" d="M209.72,149.48c1.44,0.03,2.69,1.31,2.67,2.75c-0.01,1.49-1.36,2.77-2.84,2.7
				c-1.45-0.07-2.66-1.38-2.61-2.81C206.99,150.68,208.29,149.45,209.72,149.48z"/>
			<path fill="#7586AC" d="M212.4,179.97c-0.01,1.44-1.27,2.7-2.72,2.71c-1.49,0.01-2.79-1.33-2.74-2.81
				c0.05-1.44,1.35-2.67,2.78-2.64C211.17,177.26,212.41,178.54,212.4,179.97z"/>
			<path fill="#7586AC" d="M209.71,186.47c1.44,0.03,2.69,1.3,2.68,2.74c-0.01,1.49-1.35,2.78-2.83,2.71
				c-1.44-0.06-2.66-1.37-2.62-2.8C206.99,187.68,208.28,186.45,209.71,186.47z"/>
			<path fill="#7586AC" d="M209.71,108.69c-1.43,0.03-2.73-1.21-2.77-2.65c-0.04-1.43,1.18-2.74,2.62-2.8
				c1.48-0.06,2.83,1.22,2.83,2.71C212.4,107.4,211.16,108.67,209.71,108.69z"/>
			<path fill="#7586AC" d="M209.72,167.98c1.44,0.03,2.69,1.3,2.68,2.74c-0.01,1.49-1.35,2.78-2.84,2.71
				c-1.45-0.07-2.66-1.37-2.61-2.8C206.99,169.18,208.28,167.95,209.72,167.98z"/>
			<path fill="#7586AC" d="M209.65,121.74c1.44-0.01,2.71,1.24,2.74,2.68c0.03,1.44-1.2,2.73-2.65,2.77
				c-1.49,0.05-2.82-1.25-2.81-2.74C206.95,123,208.21,121.75,209.65,121.74z"/>
			<path fill="#7586AC" d="M209.72,99.45c-1.44,0.03-2.73-1.2-2.77-2.65c-0.05-1.44,1.17-2.74,2.62-2.8
				c1.49-0.07,2.83,1.21,2.84,2.71C212.4,98.14,211.16,99.42,209.72,99.45z"/>
			<path fill="#7586AC" d="M212.4,78.27c-0.03,1.44-1.3,2.69-2.74,2.68c-1.49-0.01-2.78-1.35-2.71-2.84
				c0.06-1.45,1.37-2.66,2.8-2.62C211.19,75.54,212.42,76.83,212.4,78.27z"/>
			<path fill="#7586AC" d="M212.4,143.01c-0.03,1.44-1.31,2.69-2.75,2.67c-1.49-0.01-2.77-1.36-2.7-2.84
				c0.07-1.45,1.37-2.66,2.81-2.61C211.2,140.28,212.43,141.58,212.4,143.01z"/>
			<path fill="#7586AC" d="M209.65,164.18c-1.44-0.01-2.7-1.27-2.71-2.71c-0.01-1.49,1.32-2.79,2.81-2.74
				c1.44,0.05,2.67,1.34,2.64,2.78C212.36,162.95,211.09,164.19,209.65,164.18z"/>
			<path fill="#7586AC" d="M209.71,66.25c1.44,0.03,2.69,1.3,2.68,2.74c-0.01,1.49-1.35,2.78-2.84,2.71
				c-1.45-0.06-2.66-1.37-2.62-2.8C206.99,67.45,208.28,66.22,209.71,66.25z"/>
			<path fill="#7586AC" d="M212.4,198.44c0.01,1.44-1.24,2.71-2.69,2.74c-1.49,0.03-2.8-1.3-2.77-2.78
				c0.03-1.44,1.31-2.69,2.75-2.67C211.14,195.74,212.39,197,212.4,198.44z"/>
			<path fill="#7586AC" d="M209.57,90.2c-1.44-0.06-2.67-1.36-2.63-2.79c0.04-1.5,1.4-2.75,2.89-2.65c1.46,0.1,2.64,1.4,2.56,2.84
				C212.31,89.05,211,90.25,209.57,90.2z"/>
			<path fill="#7586AC" d="M212.4,133.76c-0.03,1.44-1.3,2.69-2.74,2.68c-1.49-0.01-2.78-1.35-2.71-2.84
				c0.07-1.45,1.37-2.66,2.8-2.61C211.19,131.03,212.42,132.32,212.4,133.76z"/>
			<path fill="#7586AC" d="M212.4,207.68c0.01,1.44-1.23,2.72-2.67,2.75c-1.44,0.03-2.73-1.2-2.78-2.64
				c-0.05-1.48,1.25-2.82,2.74-2.81C211.12,204.98,212.38,206.23,212.4,207.68z"/>
			<path fill="#7586AC" d="M199.15,154.8c0-1.69,0-3.42,0-5.14c1.24-0.71,2.69-0.5,3.55,0.59c1,1.27,1.02,2.48,0.13,3.77
				C202.02,155.18,200.56,155.48,199.15,154.8z"/>
			<path fill="#7586AC" d="M199.14,108.6c0-1.77,0-3.5,0-5.2c1.29-0.67,2.64-0.48,3.5,0.54c1.03,1.23,1.09,2.46,0.24,3.76
				C202.1,108.88,200.69,109.23,199.14,108.6z"/>
			<path fill="#7586AC" d="M199.15,136.33c0-1.78,0-3.52,0-5.21c1.38-0.66,2.78-0.4,3.6,0.7c0.95,1.28,0.96,2.48,0.02,3.77
				C201.97,136.69,200.58,136.96,199.15,136.33z"/>
			<path fill="#7586AC" d="M199.1,168.08c1.58-0.62,2.94-0.31,3.71,0.81c0.89,1.28,0.89,2.39-0.02,3.67
				c-0.79,1.11-2.16,1.4-3.69,0.77C199.04,171.63,199.06,169.86,199.1,168.08z"/>
			<path fill="#7586AC" d="M199.07,117.8c0-1.46-0.01-2.9,0-4.35c0-0.29,0.06-0.58,0.09-0.83c1.35-0.66,2.75-0.41,3.57,0.69
				c0.96,1.28,0.97,2.47,0.03,3.77C201.98,118.18,200.6,118.47,199.07,117.8z"/>
			<path fill="#7586AC" d="M199.15,201.07c0-1.78,0-3.51,0-5.21c1.37-0.67,2.77-0.42,3.59,0.68c0.96,1.28,0.97,2.47,0.03,3.77
				C201.98,201.42,200.6,201.7,199.15,201.07z"/>
			<path fill="#7586AC" d="M199.15,80.87c0-1.77,0-3.5,0-5.21c1.25-0.69,2.61-0.51,3.48,0.51c1.03,1.21,1.12,2.44,0.26,3.76
				C202.13,81.12,200.72,81.49,199.15,80.87z"/>
			<path fill="#7586AC" d="M199.16,186.59c1.4-0.65,2.79-0.38,3.6,0.72c0.95,1.29,0.95,2.48,0,3.77c-0.81,1.1-2.2,1.37-3.6,0.72
				C199.16,190.12,199.16,188.38,199.16,186.59z"/>
			<path fill="#7586AC" d="M199.17,164.05c-0.03-0.25-0.09-0.54-0.09-0.83c-0.01-1.45,0-2.89,0-4.27c1.32-0.76,2.77-0.54,3.63,0.54
				c1,1.27,1.02,2.48,0.13,3.77C202.02,164.43,200.56,164.73,199.17,164.05z"/>
			<path fill="#7586AC" d="M199.12,90.06c0-1.74,0-3.44,0-5.11c1.21-0.73,2.58-0.57,3.47,0.45c1.06,1.2,1.17,2.52,0.24,3.86
				C202.04,90.43,200.59,90.74,199.12,90.06z"/>
			<path fill="#7586AC" d="M199.09,177.36c1.51-0.66,2.89-0.37,3.69,0.74c0.92,1.28,0.92,2.39,0.04,3.67
				c-0.77,1.11-2.12,1.43-3.7,0.84C199.02,180.91,199.08,179.15,199.09,177.36z"/>
			<path fill="#7586AC" d="M199.15,145.55c0-1.69,0-3.42,0-5.14c1.25-0.71,2.69-0.5,3.55,0.59c1,1.27,1.02,2.48,0.13,3.77
				C202.02,145.93,200.56,146.24,199.15,145.55z"/>
			<path fill="#7586AC" d="M199.15,99.38c0-1.77,0-3.5,0-5.21c1.23-0.69,2.6-0.51,3.47,0.51c1.03,1.2,1.13,2.44,0.27,3.76
				C202.13,99.61,200.73,99.98,199.15,99.38z"/>
			<path fill="#7586AC" d="M199.15,127.09c0-1.78,0-3.51,0-5.2c1.34-0.68,2.76-0.44,3.59,0.65c0.96,1.28,0.97,2.39,0.13,3.67
				C202.1,127.39,200.67,127.73,199.15,127.09z"/>
			<path fill="#7586AC" d="M214.28,191.24c1.37-0.01,2.61,1.24,2.6,2.61c-0.01,1.38-1.27,2.6-2.64,2.57
				c-1.33-0.03-2.51-1.22-2.54-2.54C211.67,192.5,212.9,191.24,214.28,191.24z"/>
			<path fill="#7586AC" d="M214.28,159.42c-1.38-0.01-2.61-1.26-2.58-2.63c0.03-1.37,1.3-2.59,2.66-2.55
				c1.33,0.05,2.5,1.24,2.52,2.57C216.9,158.18,215.65,159.43,214.28,159.42z"/>
			<path fill="#7586AC" d="M214.33,76.19c-1.37,0.02-2.62-1.21-2.63-2.58c0-1.37,1.25-2.61,2.62-2.6c1.33,0.02,2.52,1.19,2.56,2.52
				C216.93,74.89,215.71,76.16,214.33,76.19z"/>
			<path fill="#7586AC" d="M216.88,184.59c-0.01,1.38-1.26,2.61-2.63,2.58c-1.37-0.03-2.59-1.3-2.55-2.66
				c0.05-1.33,1.24-2.5,2.57-2.51C215.64,181.97,216.89,183.22,216.88,184.59z"/>
			<path fill="#7586AC" d="M216.88,82.95c-0.07,1.38-1.37,2.57-2.73,2.48c-1.38-0.09-2.55-1.41-2.45-2.76
				c0.1-1.33,1.35-2.47,2.66-2.42C215.74,80.3,216.95,81.6,216.88,82.95z"/>
			<path fill="#7586AC" d="M214.25,168.67c-1.37-0.03-2.59-1.3-2.55-2.67c0.05-1.37,1.35-2.58,2.7-2.51
				c1.33,0.07,2.49,1.28,2.48,2.6C216.87,167.47,215.62,168.7,214.25,168.67z"/>
			<path fill="#7586AC" d="M214.24,140.93c-1.37-0.03-2.59-1.32-2.54-2.68c0.05-1.37,1.36-2.58,2.71-2.5
				c1.33,0.07,2.49,1.29,2.47,2.61C216.87,139.73,215.61,140.96,214.24,140.93z"/>
			<path fill="#7586AC" d="M214.33,122.43c-1.37,0.02-2.62-1.21-2.63-2.58c0-1.37,1.25-2.61,2.62-2.6c1.33,0.02,2.52,1.19,2.56,2.52
				C216.93,121.13,215.71,122.41,214.33,122.43z"/>
			<path fill="#7586AC" d="M214.24,172.74c1.37-0.03,2.63,1.19,2.64,2.57c0.01,1.37-1.23,2.62-2.6,2.61
				c-1.33-0.01-2.53-1.18-2.58-2.51C211.65,174.06,212.87,172.77,214.24,172.74z"/>
			<path fill="#7586AC" d="M214.27,66.94c-1.38-0.01-2.6-1.28-2.57-2.64c0.03-1.37,1.32-2.59,2.68-2.54c1.33,0.05,2.5,1.26,2.5,2.58
				C216.89,65.71,215.64,66.95,214.27,66.94z"/>
			<path fill="#7586AC" d="M216.88,101.36c-0.01,1.38-1.27,2.6-2.64,2.57c-1.37-0.03-2.59-1.31-2.54-2.67
				c0.05-1.33,1.25-2.5,2.58-2.51C215.65,98.74,216.89,99.99,216.88,101.36z"/>
			<path fill="#7586AC" d="M216.88,129.03c0.03,1.37-1.19,2.63-2.57,2.65c-1.37,0.01-2.62-1.23-2.61-2.6
				c0.01-1.32,1.17-2.53,2.5-2.58C215.56,126.44,216.85,127.66,216.88,129.03z"/>
			<path fill="#7586AC" d="M214.29,144.99c1.37,0,2.61,1.25,2.59,2.62c-0.02,1.38-1.29,2.6-2.65,2.56
				c-1.33-0.04-2.51-1.23-2.52-2.56C211.68,146.25,212.92,144.99,214.29,144.99z"/>
			<path fill="#7586AC" d="M214.3,200.48c1.38,0.01,2.61,1.26,2.58,2.63c-0.03,1.37-1.3,2.59-2.66,2.55
				c-1.33-0.05-2.5-1.24-2.51-2.57C211.69,201.72,212.93,200.48,214.3,200.48z"/>
			<path fill="#7586AC" d="M216.88,92.11c-0.01,1.38-1.26,2.61-2.63,2.58c-1.37-0.03-2.59-1.3-2.55-2.66
				c0.05-1.33,1.24-2.5,2.57-2.51C215.64,89.49,216.89,90.74,216.88,92.11z"/>
			<path fill="#7586AC" d="M214.3,113.18c-1.37,0.01-2.61-1.24-2.6-2.61c0.01-1.33,1.19-2.52,2.52-2.57
				c1.36-0.05,2.64,1.17,2.66,2.55C216.91,111.92,215.68,113.17,214.3,113.18z"/>
			<path fill="#7586AC" d="M200.3,66.05c1.61,0.06,2.5,0.67,2.95,1.93c0.41,1.13,0.06,2.47-0.85,3.26c-0.91,0.79-2.02,0.91-3.27,0.3
				C198.92,69.6,199.29,67.74,200.3,66.05z"/>
			<path fill="#7586AC" d="M212.33,213.84c-0.85-1.31-0.76-2.56,0.2-3.42c0.98-0.89,2.53-0.89,3.52-0.01
				c0.95,0.86,1.05,2.11,0.21,3.42C215.01,213.84,213.7,213.84,212.33,213.84z"/>
			<path fill="#7586AC" d="M216.55,133.6c0.05-1.31,1.11-2.29,2.44-2.25c1.31,0.03,2.3,1.08,2.29,2.41
				c-0.02,1.37-1.11,2.38-2.5,2.32C217.47,136.01,216.51,134.94,216.55,133.6z"/>
			<path fill="#7586AC" d="M221.28,161.46c0,1.33-1.01,2.35-2.33,2.36c-1.38,0.01-2.42-1.04-2.39-2.43c0.03-1.32,1.07-2.31,2.4-2.3
				C220.27,159.11,221.28,160.13,221.28,161.46z"/>
			<path fill="#7586AC" d="M218.92,85.11c1.33,0,2.35,1.01,2.36,2.33c0.01,1.38-1.04,2.42-2.43,2.39c-1.31-0.03-2.31-1.07-2.3-2.4
				C216.57,86.11,217.59,85.11,218.92,85.11z"/>
			<path fill="#7586AC" d="M221.28,189.2c0,1.33-1.01,2.35-2.33,2.36c-1.38,0.01-2.42-1.04-2.39-2.43c0.03-1.31,1.07-2.31,2.4-2.3
				C220.27,186.85,221.28,187.88,221.28,189.2z"/>
			<path fill="#7586AC" d="M218.9,200.81c-1.33-0.01-2.34-1.02-2.35-2.35c-0.01-1.38,1.06-2.41,2.44-2.38
				c1.31,0.03,2.3,1.08,2.28,2.41C221.26,199.82,220.23,200.82,218.9,200.81z"/>
			<path fill="#7586AC" d="M218.92,94.36c1.33,0,2.35,1.01,2.36,2.33c0.01,1.38-1.05,2.42-2.43,2.39c-1.31-0.03-2.31-1.07-2.29-2.4
				C216.57,95.36,217.59,94.35,218.92,94.36z"/>
			<path fill="#7586AC" d="M218.93,66.61c1.33,0.01,2.34,1.02,2.35,2.35c0.01,1.38-1.06,2.42-2.44,2.38
				c-1.31-0.03-2.3-1.08-2.28-2.41C216.57,67.61,217.6,66.61,218.93,66.61z"/>
			<path fill="#7586AC" d="M221.28,105.94c0.01,1.33-0.99,2.36-2.31,2.39c-1.38,0.03-2.44-1.02-2.42-2.4
				c0.02-1.32,1.04-2.33,2.37-2.32C220.25,103.61,221.27,104.62,221.28,105.94z"/>
			<path fill="#7586AC" d="M221.28,179.98c-0.01,1.32-1.03,2.33-2.36,2.33c-1.38,0-2.41-1.07-2.37-2.46
				c0.04-1.31,1.09-2.3,2.42-2.27C220.29,177.62,221.29,178.65,221.28,179.98z"/>
			<path fill="#7586AC" d="M216.55,142.93c0.01-1.32,1.03-2.33,2.36-2.33c1.38,0,2.41,1.07,2.37,2.46c-0.04,1.31-1.09,2.3-2.42,2.27
				C217.54,145.3,216.54,144.26,216.55,142.93z"/>
			<path fill="#7586AC" d="M218.9,210.06c-1.32-0.01-2.34-1.02-2.34-2.35c-0.01-1.33,1-2.36,2.32-2.38
				c1.38-0.02,2.43,1.03,2.41,2.41C221.26,209.07,220.23,210.07,218.9,210.06z"/>
			<path fill="#7586AC" d="M218.94,122.1c1.32,0.01,2.33,1.03,2.34,2.36c0,1.38-1.06,2.41-2.45,2.37c-1.31-0.04-2.3-1.09-2.27-2.42
				C216.58,123.09,217.61,122.09,218.94,122.1z"/>
			<path fill="#7586AC" d="M218.94,149.85c1.32,0.01,2.33,1.03,2.34,2.36c0,1.38-1.07,2.41-2.45,2.37c-1.31-0.04-2.3-1.09-2.27-2.42
				C216.58,150.83,217.62,149.83,218.94,149.85z"/>
			<path fill="#7586AC" d="M221.28,170.72c-0.01,1.33-1.02,2.34-2.34,2.35c-1.38,0.01-2.42-1.05-2.38-2.44
				c0.03-1.31,1.08-2.3,2.41-2.29C220.28,168.36,221.28,169.39,221.28,170.72z"/>
			<path fill="#7586AC" d="M221.28,78.23c0,1.33-1.01,2.35-2.33,2.36c-1.38,0.01-2.42-1.05-2.39-2.43c0.03-1.31,1.07-2.31,2.4-2.29
				C220.27,75.88,221.28,76.9,221.28,78.23z"/>
			<path fill="#7586AC" d="M221.28,115.2c0.01,1.33-1,2.36-2.32,2.38c-1.38,0.02-2.43-1.03-2.41-2.41c0.02-1.32,1.05-2.32,2.38-2.31
				C220.26,112.86,221.27,113.87,221.28,115.2z"/>
			<path fill="#7586AC" d="M225.83,129.19c-0.07,1.15-1.36,2.29-2.45,2.18c-1.11-0.12-2.19-1.32-2.12-2.37
				c0.07-1.15,1.36-2.29,2.45-2.18C224.81,126.93,225.89,128.14,225.83,129.19z"/>
			<path fill="#7586AC" d="M223.54,140.62c-1.12,0-2.33-1.24-2.28-2.35c0.05-1.09,1.21-2.22,2.29-2.22c1.12,0,2.33,1.24,2.28,2.35
				C225.78,139.49,224.61,140.62,223.54,140.62z"/>
			<path fill="#7586AC" d="M225.83,175.32c0,1.12-1.24,2.33-2.34,2.29c-1.08-0.04-2.22-1.21-2.23-2.28c0-1.12,1.24-2.33,2.34-2.29
				C224.68,173.09,225.82,174.25,225.83,175.32z"/>
			<path fill="#7586AC" d="M225.83,184.64c-0.05,1.14-1.32,2.31-2.41,2.22c-1.1-0.09-2.2-1.29-2.16-2.34
				c0.05-1.14,1.32-2.31,2.41-2.22C224.77,182.39,225.87,183.58,225.83,184.64z"/>
			<path fill="#7586AC" d="M225.83,193.76c0.04,1.06-1.06,2.25-2.16,2.34c-1.1,0.09-2.36-1.08-2.41-2.22
				c-0.04-1.11,1.16-2.35,2.29-2.35C224.62,191.54,225.78,192.68,225.83,193.76z"/>
			<path fill="#7586AC" d="M225.83,203.05c0.02,1.11-1.21,2.34-2.32,2.31c-1.08-0.03-2.23-1.18-2.25-2.26
				c-0.02-1.06,1.11-2.25,2.2-2.31C224.55,200.72,225.81,201.92,225.83,203.05z"/>
			<path fill="#7586AC" d="M225.83,64.36c-0.01,1.12-1.26,2.33-2.36,2.27c-1.09-0.06-2.22-1.23-2.21-2.3
				c0.01-1.12,1.26-2.33,2.36-2.27C224.71,62.12,225.83,63.3,225.83,64.36z"/>
			<path fill="#7586AC" d="M225.82,166.11c-0.02,1.13-1.28,2.32-2.38,2.25c-1.09-0.07-2.21-1.26-2.19-2.32
				c0.02-1.13,1.28-2.32,2.38-2.25C224.73,163.86,225.85,165.05,225.82,166.11z"/>
			<path fill="#7586AC" d="M225.83,73.66c-0.04,1.14-1.31,2.31-2.41,2.22c-1.1-0.09-2.2-1.28-2.16-2.34
				c0.04-1.14,1.31-2.31,2.41-2.22C224.76,71.41,225.87,72.6,225.83,73.66z"/>
			<path fill="#7586AC" d="M223.55,159.12c-1.12,0-2.33-1.24-2.29-2.34c0.04-1.08,1.21-2.22,2.28-2.23c1.12,0,2.33,1.24,2.29,2.34
				C225.78,157.98,224.62,159.11,223.55,159.12z"/>
			<path fill="#7586AC" d="M225.83,92.04c0.04,1.11-1.17,2.35-2.29,2.34c-1.07,0-2.24-1.14-2.28-2.23
				c-0.04-1.11,1.17-2.35,2.29-2.34C224.62,89.81,225.78,90.95,225.83,92.04z"/>
			<path fill="#7586AC" d="M223.54,103.63c-1.12,0-2.33-1.24-2.29-2.35c0.04-1.09,1.21-2.22,2.28-2.22c1.12,0,2.33,1.24,2.29,2.35
				C225.78,102.49,224.61,103.63,223.54,103.63z"/>
			<path fill="#7586AC" d="M225.83,82.86c-0.01,1.12-1.26,2.33-2.36,2.27c-1.09-0.05-2.22-1.23-2.21-2.3
				c0.01-1.12,1.26-2.33,2.36-2.27C224.7,80.62,225.83,81.79,225.83,82.86z"/>
			<path fill="#7586AC" d="M223.6,108.31c1.14,0.04,2.31,1.31,2.22,2.41c-0.09,1.1-1.28,2.2-2.34,2.16
				c-1.14-0.04-2.31-1.31-2.22-2.41C221.35,109.37,222.54,108.27,223.6,108.31z"/>
			<path fill="#7586AC" d="M223.54,122.12c-1.12,0-2.33-1.24-2.28-2.35c0.05-1.09,1.21-2.22,2.29-2.22c1.12,0,2.33,1.24,2.28,2.35
				C225.78,120.99,224.61,122.13,223.54,122.12z"/>
			<path fill="#7586AC" d="M223.57,149.87c-1.11,0.02-2.34-1.21-2.31-2.32c0.03-1.08,1.18-2.23,2.26-2.25
				c1.06-0.02,2.25,1.11,2.31,2.2C225.89,148.59,224.69,149.85,223.57,149.87z"/>
			<path fill="#7586AC" d="M207.04,59.57c1.66-0.63,3.28-1.03,4.96-0.88c0.55,1.24,0.43,2-0.37,2.86c-0.82,0.89-1.82,1.07-2.92,0.72
				C207.7,61.95,207.08,60.95,207.04,59.57z"/>
			<path fill="#7586AC" d="M225.04,213.89c-1.02,0-2,0-2.94,0c-1.04-1.13-1.1-2.11-0.22-3.08c0.8-0.88,2.19-0.96,3.12-0.17
				C225.98,211.47,226.02,212.59,225.04,213.89z"/>
			<path fill="#7586AC" d="M230.24,180.01c-0.03,1.17-1.04,2.09-2.2,2.03c-1.12-0.07-1.99-1.02-1.96-2.13
				c0.03-1.17,1.04-2.09,2.2-2.03C229.4,177.94,230.27,178.89,230.24,180.01z"/>
			<path fill="#7586AC" d="M230.24,142.96c0,1.17-0.98,2.12-2.14,2.08c-1.12-0.03-2.02-0.96-2.02-2.08c0-1.17,0.98-2.12,2.14-2.08
				C229.34,140.91,230.24,141.84,230.24,142.96z"/>
			<path fill="#7586AC" d="M230.24,189.14c0.03,1.17-0.92,2.14-2.09,2.14c-1.12,0-2.04-0.9-2.07-2.02
				c-0.03-1.17,0.92-2.14,2.09-2.14C229.29,187.12,230.21,188.02,230.24,189.14z"/>
			<path fill="#7586AC" d="M228.16,172.78c-1.17,0-2.12-0.98-2.08-2.15c0.04-1.12,0.97-2.01,2.08-2.01c1.17,0,2.12,0.98,2.08,2.15
				C230.21,171.89,229.28,172.79,228.16,172.78z"/>
			<path fill="#7586AC" d="M228.17,131.63c1.17,0,2.11,0.99,2.07,2.15c-0.04,1.12-0.97,2.01-2.09,2.01c-1.17,0-2.11-0.99-2.07-2.15
				C226.12,132.52,227.06,131.63,228.17,131.63z"/>
			<path fill="#7586AC" d="M230.24,152.22c-0.01,1.17-0.99,2.11-2.16,2.07c-1.12-0.04-2.01-0.97-2-2.09
				c0.01-1.17,0.99-2.11,2.16-2.07C229.36,150.17,230.25,151.1,230.24,152.22z"/>
			<path fill="#7586AC" d="M230.24,115.24c-0.01,1.17-1,2.11-2.17,2.06c-1.12-0.05-2.01-0.99-1.99-2.1c0.01-1.17,1-2.11,2.17-2.06
				C229.37,113.18,230.26,114.12,230.24,115.24z"/>
			<path fill="#7586AC" d="M228.19,80.3c-1.17,0.02-2.13-0.95-2.11-2.12c0.02-1.12,0.93-2.03,2.05-2.04
				c1.17-0.02,2.13,0.95,2.11,2.12C230.22,79.38,229.31,80.29,228.19,80.3z"/>
			<path fill="#7586AC" d="M228.13,94.64c1.17-0.02,2.13,0.94,2.12,2.1c-0.01,1.12-0.92,2.03-2.04,2.06
				c-1.17,0.02-2.13-0.94-2.12-2.1C226.1,95.58,227.01,94.66,228.13,94.64z"/>
			<path fill="#7586AC" d="M228.2,209.78c-1.17,0.02-2.13-0.94-2.11-2.11c0.02-1.12,0.93-2.03,2.05-2.05
				c1.17-0.02,2.13,0.94,2.11,2.11C230.23,208.85,229.32,209.76,228.2,209.78z"/>
			<path fill="#7586AC" d="M230.24,105.96c0.01,1.17-0.97,2.12-2.13,2.09c-1.12-0.03-2.02-0.95-2.03-2.07
				c-0.01-1.17,0.97-2.12,2.13-2.09C229.34,103.92,230.24,104.84,230.24,105.96z"/>
			<path fill="#7586AC" d="M230.24,161.48c-0.01,1.17-1,2.11-2.17,2.06c-1.12-0.05-2.01-0.99-1.99-2.1c0.01-1.17,1-2.11,2.17-2.06
				C229.37,159.42,230.26,160.36,230.24,161.48z"/>
			<path fill="#7586AC" d="M230.24,69c-0.01,1.17-1.01,2.11-2.17,2.06c-1.12-0.05-2.01-0.99-1.99-2.1c0.01-1.17,1.01-2.11,2.17-2.06
				C229.37,66.94,230.26,67.88,230.24,69z"/>
			<path fill="#7586AC" d="M230.24,124.51c-0.02,1.17-1.02,2.1-2.19,2.04c-1.12-0.06-2-1.01-1.97-2.12c0.02-1.17,1.03-2.1,2.19-2.04
				C229.39,122.44,230.27,123.39,230.24,124.51z"/>
			<path fill="#7586AC" d="M228.22,89.55c-1.17,0.03-2.14-0.92-2.14-2.09c0-1.12,0.9-2.04,2.02-2.07c1.17-0.03,2.14,0.92,2.14,2.09
				C230.24,88.59,229.34,89.52,228.22,89.55z"/>
			<path fill="#7586AC" d="M228.2,196.37c1.17,0.02,2.1,1.02,2.04,2.18c-0.06,1.12-1,2-2.12,1.98c-1.17-0.02-2.1-1.02-2.04-2.18
				C226.14,197.23,227.08,196.35,228.2,196.37z"/>
			<path fill="#7586AC" d="M216.85,58.73c1.36,0,2.74,0,4.11,0c0.53,1.3,0.34,2.15-0.6,2.88c-0.84,0.65-2.01,0.67-2.86,0.03
				C216.56,60.93,216.36,60.1,216.85,58.73z"/>
			<path fill="#7586AC" d="M234.64,73.71c-0.04,1.12-0.77,1.78-1.93,1.75c-1.13-0.03-1.8-0.74-1.78-1.9
				c0.02-1.19,0.77-1.87,1.99-1.81C234.04,71.8,234.69,72.54,234.64,73.71z"/>
			<path fill="#7586AC" d="M232.73,164.23c1.16-0.02,1.88,0.64,1.91,1.76c0.04,1.21-0.66,1.95-1.86,1.94
				c-1.15,0-1.84-0.68-1.85-1.83C230.92,164.95,231.59,164.25,232.73,164.23z"/>
			<path fill="#7586AC" d="M234.64,203.18c-0.04,1.12-0.77,1.78-1.93,1.75c-1.13-0.03-1.8-0.74-1.78-1.9
				c0.02-1.19,0.77-1.87,1.99-1.81C234.04,201.28,234.69,202.01,234.64,203.18z"/>
			<path fill="#7586AC" d="M232.77,66.21c-1.15-0.01-1.83-0.69-1.84-1.84c-0.01-1.16,0.67-1.85,1.81-1.87
				c1.21-0.02,1.92,0.7,1.9,1.9C234.62,65.54,233.93,66.21,232.77,66.21z"/>
			<path fill="#7586AC" d="M234.64,101.38c-0.01,1.15-0.7,1.82-1.86,1.82c-1.15,0-1.84-0.68-1.85-1.83
				c-0.01-1.2,0.71-1.91,1.92-1.88C233.99,99.52,234.66,100.22,234.64,101.38z"/>
			<path fill="#7586AC" d="M232.68,140.19c-1.12-0.04-1.78-0.77-1.75-1.93c0.03-1.13,0.74-1.8,1.9-1.78
				c1.19,0.02,1.87,0.77,1.81,1.99C234.59,139.59,233.85,140.24,232.68,140.19z"/>
			<path fill="#7586AC" d="M230.93,175.22c0.04-1.12,0.77-1.78,1.93-1.75c1.13,0.03,1.8,0.74,1.78,1.9
				c-0.02,1.19-0.77,1.87-1.99,1.81C231.53,177.13,230.89,176.39,230.93,175.22z"/>
			<path fill="#7586AC" d="M234.64,119.9c-0.02,1.14-0.73,1.8-1.88,1.79c-1.19-0.01-1.88-0.76-1.82-1.98
				c0.05-1.12,0.78-1.77,1.95-1.73C234.01,118.02,234.67,118.74,234.64,119.9z"/>
			<path fill="#7586AC" d="M232.8,149.44c-1.15,0-1.85-0.67-1.86-1.82c-0.02-1.21,0.7-1.92,1.91-1.89c1.14,0.02,1.81,0.72,1.8,1.88
				C234.63,148.76,233.95,149.44,232.8,149.44z"/>
			<path fill="#7586AC" d="M234.64,184.52c0.02,1.16-0.64,1.87-1.77,1.91c-1.21,0.04-1.95-0.66-1.94-1.86
				c0-1.15,0.68-1.84,1.83-1.85C233.92,182.71,234.62,183.38,234.64,184.52z"/>
			<path fill="#7586AC" d="M232.73,84.7c-1.14-0.02-1.8-0.73-1.79-1.88c0.01-1.19,0.76-1.88,1.98-1.82
				c1.12,0.05,1.77,0.78,1.73,1.95C234.61,84.07,233.89,84.73,232.73,84.7z"/>
			<path fill="#7586AC" d="M232.81,93.95c-1.16,0.01-1.86-0.66-1.88-1.8c-0.02-1.21,0.69-1.93,1.89-1.91
				c1.14,0.02,1.82,0.71,1.82,1.86C234.64,93.26,233.96,93.94,232.81,93.95z"/>
			<path fill="#7586AC" d="M234.64,156.81c0.01,1.16-0.66,1.85-1.8,1.88c-1.21,0.02-1.93-0.69-1.91-1.9
				c0.02-1.14,0.71-1.82,1.86-1.81C233.95,154.98,234.63,155.66,234.64,156.81z"/>
			<path fill="#7586AC" d="M234.64,110.63c-0.01,1.15-0.7,1.82-1.86,1.82c-1.2,0-1.89-0.74-1.85-1.95c0.04-1.13,0.76-1.78,1.92-1.75
				C233.99,108.76,234.66,109.47,234.64,110.63z"/>
			<path fill="#7586AC" d="M232.76,130.94c-1.15-0.01-1.83-0.69-1.83-1.85c0-1.2,0.73-1.9,1.94-1.86c1.13,0.04,1.79,0.75,1.77,1.91
				C234.62,130.28,233.92,130.95,232.76,130.94z"/>
			<path fill="#7586AC" d="M232.77,195.68c-1.15-0.01-1.83-0.69-1.83-1.84c0-1.16,0.67-1.85,1.81-1.87c1.21-0.02,1.92,0.7,1.9,1.91
				C234.62,195.02,233.92,195.69,232.77,195.68z"/>
			<path fill="#7586AC" d="M226.49,58.72c1.09,0,2.22,0,3.31,0c0.6,1.02,0.52,1.85-0.22,2.54c-0.75,0.69-1.88,0.74-2.69,0.12
				C226.07,60.74,225.92,59.84,226.49,58.72z"/>
			<path fill="#7586AC" d="M199.64,205.04c1.27-0.53,2.54-0.13,3.26,0.97c0.79,1.2,0.62,2.69-0.49,3.72
				C201.17,208.39,200.18,206.91,199.64,205.04z"/>
			<path fill="#7586AC" d="M232.75,213.93c-1.33-0.01-1.8-0.41-1.81-1.57c-0.02-1.2,0.7-1.91,1.9-1.89c1.14,0.02,1.81,0.7,1.81,1.85
				C234.64,213.52,234.16,213.93,232.75,213.93z"/>
			<path fill="#7586AC" d="M207.65,213.18c-1.8-0.59-3.26-1.52-4.58-2.72c0.91-1.05,2.21-1.31,3.32-0.69
				C207.63,210.46,208.09,211.6,207.65,213.18z"/>
			<path fill="#7586AC" d="M237.44,135.49c-0.9,0.02-1.83-0.91-1.8-1.81c0.02-0.86,0.89-1.72,1.75-1.74
				c0.85-0.02,1.75,0.82,1.8,1.68C239.25,134.51,238.34,135.47,237.44,135.49z"/>
			<path fill="#7586AC" d="M239.19,115.16c0.04,0.9-0.88,1.84-1.78,1.83c-0.85,0-1.73-0.86-1.77-1.72c-0.04-0.9,0.88-1.84,1.78-1.83
				C238.27,113.44,239.15,114.3,239.19,115.16z"/>
			<path fill="#7586AC" d="M239.19,105.95c0.01,0.9-0.92,1.82-1.82,1.8c-0.86-0.03-1.72-0.9-1.73-1.76c-0.01-0.9,0.92-1.82,1.82-1.8
				C238.31,104.22,239.18,105.09,239.19,105.95z"/>
			<path fill="#7586AC" d="M237.38,181.73c-0.91-0.02-1.8-0.99-1.74-1.87c0.06-0.86,0.97-1.7,1.81-1.68
				c0.91,0.02,1.81,0.99,1.74,1.87C239.13,180.91,238.22,181.75,237.38,181.73z"/>
			<path fill="#7586AC" d="M239.19,87.46c0.01,0.9-0.93,1.82-1.83,1.79c-0.86-0.03-1.72-0.91-1.72-1.76
				c-0.01-0.9,0.93-1.82,1.83-1.79C238.32,85.73,239.18,86.61,239.19,87.46z"/>
			<path fill="#7586AC" d="M239.19,124.42c0.03,0.9-0.89,1.83-1.8,1.82c-0.86-0.01-1.73-0.87-1.76-1.73
				c-0.03-0.9,0.89-1.83,1.8-1.82C238.29,122.7,239.16,123.56,239.19,124.42z"/>
			<path fill="#7586AC" d="M237.44,168.93c0.91,0.02,1.81,0.98,1.75,1.87c-0.06,0.86-0.96,1.7-1.8,1.68
				c-0.91-0.02-1.81-0.98-1.75-1.87C235.7,169.75,236.6,168.91,237.44,168.93z"/>
			<path fill="#7586AC" d="M235.64,198.48c-0.02-0.9,0.91-1.83,1.81-1.81c0.86,0.02,1.72,0.88,1.75,1.74
				c0.02,0.9-0.91,1.83-1.81,1.81C236.53,200.21,235.66,199.34,235.64,198.48z"/>
			<path fill="#7586AC" d="M237.45,70.75c-0.84,0.02-1.75-0.81-1.81-1.68c-0.06-0.88,0.84-1.85,1.74-1.87
				c0.9-0.02,1.83,0.9,1.81,1.8C239.17,69.86,238.31,70.73,237.45,70.75z"/>
			<path fill="#7586AC" d="M239.19,152.19c0.01,0.9-0.92,1.82-1.82,1.8c-0.86-0.03-1.72-0.9-1.73-1.76c-0.01-0.9,0.92-1.82,1.82-1.8
				C238.31,150.46,239.18,151.33,239.19,152.19z"/>
			<path fill="#7586AC" d="M237.39,141.18c0.9-0.01,1.82,0.92,1.8,1.82c-0.03,0.86-0.9,1.72-1.76,1.73c-0.9,0.01-1.82-0.92-1.8-1.82
				C235.66,142.06,236.54,141.2,237.39,141.18z"/>
			<path fill="#7586AC" d="M237.46,190.98c-0.9,0.03-1.83-0.89-1.82-1.79c0.01-0.85,0.87-1.73,1.73-1.76
				c0.9-0.03,1.83,0.89,1.82,1.79C239.18,190.07,238.32,190.95,237.46,190.98z"/>
			<path fill="#7586AC" d="M239.19,161.42c0.02,0.84-0.81,1.75-1.68,1.81c-0.88,0.06-1.85-0.84-1.87-1.74
				c-0.02-0.9,0.91-1.83,1.8-1.81C238.3,159.7,239.16,160.56,239.19,161.42z"/>
			<path fill="#7586AC" d="M237.47,209.47c-0.9,0.04-1.84-0.88-1.83-1.78c0-0.85,0.86-1.73,1.72-1.77c0.9-0.04,1.84,0.88,1.83,1.78
				C239.18,208.56,238.33,209.44,237.47,209.47z"/>
			<path fill="#7586AC" d="M239.19,96.7c0.01,0.9-0.92,1.82-1.82,1.8c-0.86-0.03-1.72-0.9-1.73-1.76c-0.01-0.9,0.92-1.82,1.82-1.8
				C238.31,94.97,239.18,95.84,239.19,96.7z"/>
			<path fill="#7586AC" d="M237.43,76.45c0.91,0.01,1.81,0.97,1.76,1.85c-0.05,0.86-0.94,1.71-1.79,1.7
				c-0.91-0.01-1.81-0.97-1.76-1.85C235.69,77.28,236.58,76.44,237.43,76.45z"/>
			<path fill="#7586AC" d="M236.13,58.71c0.84,0,1.72,0,2.56,0c0.63,0.98,0.58,1.67-0.11,2.3c-0.68,0.63-1.62,0.63-2.31,0.02
				C235.57,60.41,235.52,59.72,236.13,58.71z"/>
			<path fill="#7586AC" d="M242.03,155.28c0.79,0,1.55,0.75,1.55,1.55c0,0.79-0.75,1.55-1.55,1.56c-0.79,0-1.55-0.75-1.55-1.55
				C240.48,156.05,241.24,155.29,242.03,155.28z"/>
			<path fill="#7586AC" d="M242.08,112.14c-0.79,0.03-1.57-0.71-1.59-1.51c-0.03-0.79,0.71-1.57,1.51-1.59
				c0.79-0.03,1.57,0.71,1.59,1.51C243.61,111.34,242.88,112.11,242.08,112.14z"/>
			<path fill="#7586AC" d="M242.09,176.88c-0.78,0.03-1.57-0.7-1.61-1.49c-0.03-0.78,0.7-1.57,1.49-1.61
				c0.78-0.03,1.57,0.7,1.61,1.49C243.62,176.06,242.89,176.84,242.09,176.88z"/>
			<path fill="#7586AC" d="M243.59,82.82c0.02,0.79-0.73,1.56-1.52,1.58c-0.79,0.02-1.56-0.73-1.58-1.52
				c-0.02-0.79,0.73-1.56,1.52-1.58C242.8,81.28,243.57,82.02,243.59,82.82z"/>
			<path fill="#7586AC" d="M243.59,184.52c0.03,0.78-0.7,1.57-1.49,1.61c-0.78,0.03-1.57-0.7-1.61-1.49
				c-0.03-0.78,0.7-1.57,1.49-1.61C242.76,182.99,243.55,183.73,243.59,184.52z"/>
			<path fill="#7586AC" d="M242.06,102.89c-0.79,0.02-1.56-0.73-1.58-1.52c-0.02-0.79,0.73-1.56,1.52-1.58
				c0.79-0.02,1.56,0.73,1.58,1.52C243.6,102.11,242.86,102.88,242.06,102.89z"/>
			<path fill="#7586AC" d="M243.59,203.02c0.03,0.78-0.7,1.57-1.49,1.61c-0.78,0.03-1.57-0.7-1.61-1.49
				c-0.03-0.78,0.7-1.57,1.49-1.61C242.76,201.49,243.55,202.22,243.59,203.02z"/>
			<path fill="#7586AC" d="M242.04,146.03c0.79,0,1.55,0.76,1.55,1.55c0,0.79-0.76,1.55-1.55,1.55c-0.79,0-1.55-0.76-1.55-1.55
				C240.49,146.79,241.25,146.03,242.04,146.03z"/>
			<path fill="#7586AC" d="M242.04,167.63c-0.79,0-1.55-0.75-1.55-1.55c0-0.79,0.75-1.55,1.55-1.55c0.79,0,1.55,0.75,1.56,1.55
				C243.59,166.87,242.83,167.63,242.04,167.63z"/>
			<path fill="#7586AC" d="M242.08,65.9c-0.79,0.03-1.57-0.71-1.59-1.51c-0.03-0.79,0.71-1.57,1.51-1.59
				c0.79-0.03,1.57,0.71,1.59,1.51C243.61,65.1,242.88,65.87,242.08,65.9z"/>
			<path fill="#7586AC" d="M242.08,118.29c0.8,0.03,1.53,0.8,1.5,1.6c-0.03,0.8-0.8,1.53-1.6,1.51c-0.8-0.03-1.53-0.81-1.5-1.6
				C240.51,118.99,241.29,118.26,242.08,118.29z"/>
			<path fill="#7586AC" d="M241.99,90.55c0.79-0.03,1.57,0.71,1.59,1.51c0.03,0.79-0.71,1.57-1.51,1.59
				c-0.79,0.03-1.57-0.71-1.59-1.51C240.46,91.35,241.19,90.57,241.99,90.55z"/>
			<path fill="#7586AC" d="M242.02,195.38c-0.79-0.01-1.54-0.78-1.53-1.57c0.01-0.8,0.77-1.54,1.57-1.53
				c0.8,0.01,1.54,0.77,1.53,1.57C243.58,194.63,242.81,195.38,242.02,195.38z"/>
			<path fill="#7586AC" d="M243.59,73.58c0.01,0.79-0.74,1.56-1.53,1.57c-0.79,0.01-1.56-0.74-1.57-1.53
				c-0.01-0.79,0.74-1.56,1.53-1.57C242.81,72.04,243.58,72.79,243.59,73.58z"/>
			<path fill="#7586AC" d="M243.59,138.37c-0.02,0.8-0.8,1.54-1.59,1.51c-0.8-0.02-1.54-0.8-1.51-1.59c0.02-0.8,0.8-1.54,1.59-1.51
				C242.87,136.81,243.61,137.58,243.59,138.37z"/>
			<path fill="#7586AC" d="M242.04,130.64c-0.79,0-1.55-0.75-1.55-1.55c0-0.79,0.75-1.55,1.55-1.55c0.79,0,1.55,0.75,1.56,1.55
				C243.59,129.87,242.83,130.63,242.04,130.64z"/>
			<path fill="#7586AC" d="M241.98,213.87c-0.79-0.04-1.53-0.82-1.49-1.61c0.03-0.79,0.82-1.53,1.61-1.49
				c0.79,0.03,1.53,0.82,1.49,1.61C243.55,213.17,242.76,213.91,241.98,213.87z"/>
			<path fill="#7586AC" d="M246.66,197.12c0.81,0,1.35,0.55,1.33,1.36c-0.02,0.81-0.58,1.33-1.39,1.3c-0.76-0.03-1.25-0.54-1.27-1.3
				C245.31,197.67,245.85,197.12,246.66,197.12z"/>
			<path fill="#7586AC" d="M247.99,78.24c-0.01,0.81-0.57,1.34-1.38,1.31c-0.76-0.02-1.26-0.53-1.28-1.29
				c-0.02-0.81,0.51-1.37,1.32-1.37C247.46,76.89,248,77.43,247.99,78.24z"/>
			<path fill="#7586AC" d="M247.99,115.23c-0.01,0.81-0.57,1.34-1.38,1.31c-0.76-0.02-1.26-0.53-1.28-1.29
				c-0.02-0.81,0.51-1.37,1.32-1.37C247.46,113.88,248,114.42,247.99,115.23z"/>
			<path fill="#7586AC" d="M246.71,86.14c0.8,0.03,1.32,0.6,1.28,1.41c-0.04,0.75-0.56,1.24-1.32,1.25
				c-0.82,0.01-1.35-0.53-1.34-1.35C245.34,86.64,245.9,86.11,246.71,86.14z"/>
			<path fill="#7586AC" d="M246.69,190.53c-0.82,0.02-1.36-0.52-1.36-1.33c0-0.81,0.55-1.35,1.36-1.33c0.76,0.01,1.27,0.51,1.3,1.27
				C248.03,189.95,247.5,190.51,246.69,190.53z"/>
			<path fill="#7586AC" d="M247.99,170.72c-0.01,0.81-0.57,1.34-1.38,1.31c-0.76-0.02-1.26-0.53-1.28-1.29
				c-0.02-0.81,0.51-1.37,1.32-1.37C247.46,169.37,248,169.91,247.99,170.72z"/>
			<path fill="#7586AC" d="M246.55,162.79c-0.79-0.05-1.29-0.66-1.22-1.47c0.07-0.79,0.69-1.28,1.5-1.19
				c0.74,0.08,1.2,0.64,1.16,1.4C247.95,162.33,247.36,162.84,246.55,162.79z"/>
			<path fill="#7586AC" d="M247.99,124.52c-0.03,0.8-0.61,1.32-1.42,1.27c-0.79-0.05-1.3-0.64-1.24-1.45
				c0.06-0.75,0.59-1.22,1.36-1.21C247.49,123.15,248.02,123.71,247.99,124.52z"/>
			<path fill="#7586AC" d="M247.99,180.01c-0.03,0.8-0.61,1.32-1.42,1.27c-0.79-0.05-1.3-0.64-1.24-1.45
				c0.06-0.75,0.59-1.22,1.36-1.21C247.49,178.64,248.02,179.2,247.99,180.01z"/>
			<path fill="#7586AC" d="M247.99,68.94c0.02,0.82-0.51,1.36-1.33,1.37c-0.81,0-1.35-0.54-1.34-1.36c0.01-0.76,0.51-1.27,1.26-1.3
				C247.4,67.61,247.97,68.13,247.99,68.94z"/>
			<path fill="#7586AC" d="M246.67,206.37c0.81,0,1.34,0.55,1.33,1.37c-0.02,0.8-0.59,1.33-1.4,1.29c-0.76-0.03-1.25-0.54-1.26-1.3
				C245.32,206.91,245.85,206.36,246.67,206.37z"/>
			<path fill="#7586AC" d="M246.66,150.88c0.81,0,1.35,0.55,1.33,1.36c-0.02,0.81-0.58,1.33-1.39,1.3c-0.76-0.03-1.25-0.54-1.27-1.3
				C245.31,151.43,245.85,150.88,246.66,150.88z"/>
			<path fill="#7586AC" d="M246.69,107.3c-0.82,0.02-1.36-0.52-1.36-1.33c0-0.81,0.55-1.35,1.36-1.33c0.76,0.01,1.27,0.51,1.3,1.27
				C248.03,106.72,247.5,107.28,246.69,107.3z"/>
			<path fill="#7586AC" d="M246.72,98.05c-0.81,0.03-1.38-0.5-1.39-1.3c-0.02-0.82,0.52-1.36,1.33-1.36c0.76,0,1.28,0.48,1.33,1.24
				C248.04,97.43,247.52,98.02,246.72,98.05z"/>
			<path fill="#7586AC" d="M247.99,133.68c0.02,0.82-0.52,1.36-1.33,1.36c-0.81,0-1.35-0.55-1.33-1.36c0.01-0.76,0.51-1.27,1.27-1.3
				C247.41,132.35,247.97,132.87,247.99,133.68z"/>
			<path fill="#7586AC" d="M245.33,142.85c0.05-0.79,0.66-1.29,1.47-1.22c0.79,0.07,1.28,0.69,1.19,1.5
				c-0.08,0.74-0.64,1.2-1.4,1.16C245.79,144.25,245.27,143.66,245.33,142.85z"/>
			<path fill="#7586AC" d="M247.99,59.76c-0.01,0.8-0.58,1.34-1.4,1.3c-0.76-0.03-1.25-0.55-1.26-1.31
				c-0.01-0.8,0.37-1.11,1.34-1.11C247.62,58.64,248,58.96,247.99,59.76z"/>
			<path fill="#7586AC" d="M252.49,129.13c-0.03,0.62-0.67,1.21-1.28,1.17c-0.62-0.04-1.19-0.71-1.13-1.31
				c0.06-0.57,0.65-1.11,1.21-1.1C251.91,127.89,252.52,128.52,252.49,129.13z"/>
			<path fill="#7586AC" d="M251.23,195.03c-0.61-0.04-1.2-0.7-1.15-1.3c0.05-0.62,0.73-1.18,1.33-1.11c0.57,0.07,1.1,0.66,1.09,1.23
				C252.47,194.47,251.83,195.07,251.23,195.03z"/>
			<path fill="#7586AC" d="M251.24,139.54c-0.61-0.03-1.21-0.69-1.16-1.29c0.05-0.62,0.72-1.19,1.32-1.12
				c0.57,0.06,1.11,0.65,1.1,1.22C252.48,138.97,251.85,139.57,251.24,139.54z"/>
			<path fill="#7586AC" d="M252.49,147.64c-0.04,0.61-0.7,1.2-1.3,1.15c-0.62-0.05-1.18-0.73-1.11-1.33
				c0.07-0.57,0.66-1.1,1.23-1.09C251.93,146.39,252.53,147.04,252.49,147.64z"/>
			<path fill="#7586AC" d="M252.49,203.05c0.01,0.62-0.6,1.23-1.22,1.23c-0.56-0.01-1.15-0.56-1.19-1.12
				c-0.05-0.6,0.54-1.26,1.16-1.29C251.84,201.84,252.48,202.44,252.49,203.05z"/>
			<path fill="#7586AC" d="M251.23,155.63c0.61-0.03,1.25,0.56,1.26,1.18c0.01,0.56-0.51,1.16-1.09,1.23
				c-0.6,0.07-1.27-0.49-1.33-1.11C250.03,156.33,250.61,155.66,251.23,155.63z"/>
			<path fill="#7586AC" d="M252.49,166.12c-0.03,0.62-0.67,1.21-1.28,1.17c-0.62-0.04-1.19-0.71-1.13-1.31
				c0.06-0.57,0.65-1.11,1.21-1.1C251.91,164.88,252.52,165.51,252.49,166.12z"/>
			<path fill="#7586AC" d="M252.49,64.37c-0.01,0.62-0.65,1.22-1.25,1.19c-0.61-0.03-1.2-0.69-1.16-1.29
				c0.04-0.56,0.63-1.12,1.19-1.13C251.89,63.13,252.5,63.75,252.49,64.37z"/>
			<path fill="#7586AC" d="M252.49,73.55c0.03,0.61-0.58,1.24-1.19,1.25c-0.56,0.01-1.16-0.53-1.21-1.1
				c-0.06-0.6,0.51-1.27,1.13-1.31C251.81,72.35,252.46,72.94,252.49,73.55z"/>
			<path fill="#7586AC" d="M252.49,82.8c0.03,0.61-0.58,1.24-1.19,1.25c-0.56,0.01-1.16-0.53-1.21-1.1
				c-0.06-0.6,0.51-1.27,1.13-1.31C251.81,81.6,252.46,82.19,252.49,82.8z"/>
			<path fill="#7586AC" d="M251.3,90.89c0.62,0.01,1.22,0.64,1.19,1.25c-0.03,0.61-0.68,1.21-1.28,1.16
				c-0.56-0.04-1.12-0.63-1.13-1.19C250.07,91.5,250.68,90.88,251.3,90.89z"/>
			<path fill="#7586AC" d="M251.23,102.55c-0.61-0.03-1.2-0.69-1.16-1.29c0.05-0.62,0.72-1.18,1.32-1.12
				c0.57,0.06,1.1,0.66,1.09,1.22C252.48,101.98,251.84,102.58,251.23,102.55z"/>
			<path fill="#7586AC" d="M251.25,183.37c0.61-0.02,1.24,0.59,1.24,1.2c0,0.56-0.54,1.15-1.11,1.21c-0.6,0.06-1.27-0.52-1.31-1.14
				C250.04,184.04,250.63,183.39,251.25,183.37z"/>
			<path fill="#7586AC" d="M252.49,110.6c0,0.62-0.63,1.22-1.24,1.2c-0.62-0.02-1.21-0.67-1.17-1.27c0.04-0.56,0.62-1.12,1.18-1.14
				C251.87,109.37,252.49,109.98,252.49,110.6z"/>
			<path fill="#7586AC" d="M251.3,121.05c-0.62,0.01-1.23-0.61-1.22-1.22c0.01-0.56,0.57-1.15,1.13-1.19
				c0.6-0.05,1.26,0.55,1.29,1.16C252.52,120.4,251.92,121.04,251.3,121.05z"/>
			<path fill="#7586AC" d="M251.31,174.12c0.62,0.01,1.22,0.65,1.18,1.26c-0.03,0.61-0.69,1.2-1.29,1.15
				c-0.56-0.05-1.11-0.64-1.12-1.2C250.07,174.72,250.69,174.11,251.31,174.12z"/>
			<path fill="#7586AC" d="M252.49,212.32c0,0.62-0.62,1.23-1.24,1.21c-0.62-0.02-1.21-0.66-1.18-1.27
				c0.03-0.56,0.61-1.13,1.17-1.15C251.86,211.09,252.49,211.7,252.49,212.32z"/>
			<path fill="#7586AC" d="M255.87,77.2c0.5-0.02,1.01,0.43,1.06,0.93c0.06,0.54-0.44,1.1-0.99,1.13c-0.49,0.02-1.01-0.43-1.06-0.93
				C254.82,77.78,255.32,77.22,255.87,77.2z"/>
			<path fill="#7586AC" d="M255.89,116.24c-0.55-0.01-1.06-0.57-1.01-1.11c0.04-0.5,0.54-0.96,1.04-0.95
				c0.55,0.01,1.06,0.57,1.01,1.11C256.89,115.8,256.39,116.25,255.89,116.24z"/>
			<path fill="#7586AC" d="M256.94,124.45c0.01,0.5-0.45,1-0.95,1.04c-0.54,0.05-1.1-0.46-1.11-1.01c-0.01-0.55,0.53-1.07,1.08-1.04
				C256.46,123.46,256.93,123.95,256.94,124.45z"/>
			<path fill="#7586AC" d="M255.95,60.75c-0.5,0.02-1.01-0.42-1.07-0.92c-0.06-0.54,0.43-1.11,0.98-1.13
				c0.5-0.02,1.01,0.42,1.07,0.92C257,60.16,256.5,60.73,255.95,60.75z"/>
			<path fill="#7586AC" d="M256.94,68.99c-0.01,0.55-0.57,1.06-1.11,1.01c-0.5-0.04-0.96-0.54-0.95-1.04
				c0.01-0.55,0.57-1.06,1.11-1.01C256.49,67.99,256.94,68.49,256.94,68.99z"/>
			<path fill="#7586AC" d="M255.97,160.43c0.55,0.04,1.03,0.61,0.96,1.15c-0.07,0.5-0.59,0.94-1.08,0.9
				c-0.55-0.04-1.03-0.61-0.96-1.15C254.96,160.83,255.48,160.4,255.97,160.43z"/>
			<path fill="#7586AC" d="M256.94,170.64c0.04,0.54-0.48,1.09-1.03,1.09c-0.5,0-0.99-0.47-1.02-0.97
				c-0.04-0.54,0.48-1.09,1.03-1.09C256.41,169.68,256.9,170.14,256.94,170.64z"/>
			<path fill="#7586AC" d="M256.94,152.17c0.02,0.5-0.43,1.01-0.93,1.06c-0.54,0.06-1.1-0.44-1.13-0.99
				c-0.02-0.49,0.43-1.01,0.93-1.06C256.35,151.12,256.92,151.62,256.94,152.17z"/>
			<path fill="#7586AC" d="M255.86,141.93c0.49-0.03,1.01,0.41,1.07,0.91c0.07,0.54-0.42,1.11-0.97,1.14
				c-0.55,0.03-1.09-0.49-1.08-1.04C254.89,142.44,255.36,141.96,255.86,141.93z"/>
			<path fill="#7586AC" d="M256.94,207.65c0.03,0.49-0.41,1.01-0.91,1.07c-0.54,0.07-1.11-0.42-1.14-0.97
				c-0.03-0.55,0.49-1.09,1.04-1.08C256.42,206.68,256.91,207.15,256.94,207.65z"/>
			<path fill="#7586AC" d="M255.97,197.42c0.55,0.04,1.03,0.61,0.96,1.15c-0.07,0.5-0.59,0.94-1.08,0.9
				c-0.55-0.04-1.03-0.61-0.96-1.15C254.96,197.83,255.48,197.39,255.97,197.42z"/>
			<path fill="#7586AC" d="M256.94,180c-0.03,0.55-0.59,1.05-1.13,0.98c-0.5-0.06-0.94-0.57-0.92-1.07
				c0.03-0.55,0.59-1.05,1.13-0.98C256.52,178.99,256.96,179.5,256.94,180z"/>
			<path fill="#7586AC" d="M256.94,189.23c-0.02,0.55-0.59,1.05-1.13,0.99c-0.5-0.05-0.95-0.57-0.93-1.06
				c0.02-0.55,0.59-1.05,1.13-0.99C256.51,188.23,256.96,188.74,256.94,189.23z"/>
			<path fill="#7586AC" d="M255.97,88.5c-0.54,0.04-1.09-0.48-1.09-1.03c0-0.5,0.47-0.99,0.97-1.02c0.54-0.04,1.09,0.48,1.09,1.03
				C256.93,87.98,256.47,88.47,255.97,88.5z"/>
			<path fill="#7586AC" d="M256.94,96.67c0.03,0.49-0.41,1.01-0.91,1.07c-0.54,0.07-1.11-0.42-1.14-0.97
				c-0.03-0.55,0.49-1.09,1.04-1.08C256.42,95.7,256.91,96.17,256.94,96.67z"/>
			<path fill="#7586AC" d="M255.86,104.94c0.49-0.03,1.01,0.41,1.07,0.91c0.07,0.54-0.42,1.11-0.97,1.14
				c-0.55,0.03-1.09-0.49-1.08-1.04C254.89,105.45,255.36,104.97,255.86,104.94z"/>
			<path fill="#7586AC" d="M255.95,134.74c-0.5,0.02-1.01-0.42-1.07-0.92c-0.06-0.54,0.43-1.11,0.98-1.13
				c0.5-0.02,1.01,0.42,1.07,0.92C257,134.15,256.5,134.71,255.95,134.74z"/>
			<path fill="#7586AC" d="M261.66,64.27c-0.52,0.41-0.8,0.79-1.11,0.82c-0.25,0.02-0.68-0.35-0.77-0.63
				c-0.15-0.46,0.17-0.88,0.66-0.86C260.77,63.62,261.09,63.94,261.66,64.27z"/>
			<path fill="#7586AC" d="M260.54,130.22c-0.37-0.54-0.72-0.83-0.76-1.16c-0.06-0.48,0.33-0.84,0.8-0.72
				c0.29,0.07,0.69,0.47,0.69,0.71C261.27,129.36,260.91,129.67,260.54,130.22z"/>
			<path fill="#7586AC" d="M261.66,184.63c-0.56,0.34-0.87,0.67-1.2,0.7c-0.49,0.04-0.81-0.38-0.68-0.84
				c0.08-0.28,0.51-0.66,0.75-0.64C260.85,183.86,261.14,184.24,261.66,184.63z"/>
			<path fill="#7586AC" d="M260.5,192.69c0.38,0.54,0.75,0.83,0.77,1.14c0.01,0.25-0.38,0.66-0.66,0.74
				c-0.46,0.13-0.88-0.21-0.83-0.69C259.81,193.55,260.15,193.25,260.5,192.69z"/>
			<path fill="#7586AC" d="M260.52,81.72c0.37,0.54,0.72,0.83,0.77,1.16c0.07,0.48-0.33,0.84-0.8,0.72
				c-0.29-0.07-0.69-0.46-0.69-0.71C259.8,82.58,260.16,82.27,260.52,81.72z"/>
			<path fill="#7586AC" d="M260.59,74.73c-0.39-0.53-0.77-0.81-0.79-1.12c-0.02-0.25,0.36-0.67,0.64-0.76
				c0.46-0.14,0.88,0.19,0.85,0.68C261.26,73.86,260.93,74.17,260.59,74.73z"/>
			<path fill="#7586AC" d="M260.61,137.21c0.33,0.57,0.65,0.89,0.67,1.22c0.02,0.48-0.4,0.81-0.86,0.66
				c-0.28-0.09-0.65-0.52-0.63-0.77C259.82,138,260.21,137.72,260.61,137.21z"/>
			<path fill="#7586AC" d="M260.52,90.96c0.37,0.54,0.72,0.83,0.76,1.16c0.07,0.48-0.33,0.84-0.8,0.72
				c-0.29-0.07-0.69-0.46-0.69-0.71C259.8,91.82,260.16,91.51,260.52,90.96z"/>
			<path fill="#7586AC" d="M260.5,155.7c0.38,0.54,0.75,0.83,0.77,1.14c0.01,0.25-0.38,0.66-0.66,0.74
				c-0.46,0.13-0.88-0.21-0.83-0.69C259.81,156.56,260.15,156.26,260.5,155.7z"/>
			<path fill="#7586AC" d="M260.5,109.46c0.38,0.54,0.75,0.83,0.77,1.14c0.01,0.25-0.38,0.66-0.66,0.74
				c-0.46,0.13-0.88-0.21-0.83-0.69C259.81,110.32,260.15,110.02,260.5,109.46z"/>
			<path fill="#7586AC" d="M260.5,100.21c0.38,0.54,0.75,0.83,0.77,1.14c0.01,0.25-0.38,0.66-0.66,0.74
				c-0.46,0.13-0.88-0.21-0.83-0.69C259.81,101.07,260.15,100.77,260.5,100.21z"/>
			<path fill="#7586AC" d="M260.45,118.71c0.41,0.52,0.79,0.8,0.82,1.11c0.02,0.25-0.35,0.68-0.63,0.77
				c-0.46,0.15-0.88-0.17-0.86-0.66C259.8,119.6,260.12,119.28,260.45,118.71z"/>
			<path fill="#7586AC" d="M260.57,174.2c0.35,0.56,0.69,0.86,0.72,1.19c0.05,0.49-0.37,0.82-0.83,0.69
				c-0.28-0.08-0.67-0.49-0.66-0.74C259.81,175.03,260.18,174.73,260.57,174.2z"/>
			<path fill="#7586AC" d="M261.66,203.08c-0.55,0.36-0.84,0.71-1.17,0.75c-0.48,0.06-0.83-0.34-0.71-0.81
				c0.07-0.28,0.48-0.68,0.72-0.67C260.82,202.34,261.12,202.71,261.66,203.08z"/>
			<path fill="#7586AC" d="M260.53,148.72c-0.36-0.55-0.71-0.84-0.75-1.17c-0.06-0.48,0.34-0.83,0.81-0.71
				c0.28,0.07,0.68,0.48,0.67,0.72C261.26,147.87,260.9,148.17,260.53,148.72z"/>
			<path fill="#7586AC" d="M260.52,164.95c0.37,0.54,0.72,0.83,0.76,1.16c0.07,0.48-0.33,0.84-0.8,0.72
				c-0.29-0.07-0.69-0.46-0.69-0.71C259.8,165.81,260.16,165.5,260.52,164.95z"/>
			<path fill="#7586AC" d="M261.66,212.31c-0.54,0.37-0.83,0.72-1.16,0.77c-0.48,0.07-0.84-0.33-0.72-0.8
				c0.07-0.29,0.46-0.69,0.71-0.69C260.8,211.59,261.11,211.95,261.66,212.31z"/>
			<path fill="#7586AC" d="M265.23,171.62c-0.34-0.38-0.69-0.6-0.7-0.83c-0.01-0.24,0.27-0.63,0.51-0.71
				c0.42-0.14,0.76,0.17,0.74,0.6C265.78,170.94,265.5,171.19,265.23,171.62z"/>
			<path fill="#7586AC" d="M265.17,142.04c0.3,0.41,0.59,0.64,0.62,0.9c0.05,0.43-0.28,0.75-0.7,0.65
				c-0.24-0.06-0.54-0.43-0.56-0.67C264.53,142.69,264.86,142.44,265.17,142.04z"/>
			<path fill="#7586AC" d="M266.07,124.39c-0.38,0.34-0.6,0.69-0.83,0.69c-0.24,0.01-0.63-0.28-0.71-0.51
				c-0.14-0.42,0.17-0.76,0.6-0.74C265.39,123.84,265.64,124.12,266.07,124.39z"/>
			<path fill="#7586AC" d="M265.1,114.3c0.33,0.39,0.67,0.62,0.67,0.85c0,0.24-0.29,0.63-0.53,0.69c-0.41,0.12-0.76-0.19-0.73-0.62
				C264.54,114.96,264.83,114.72,265.1,114.3z"/>
			<path fill="#7586AC" d="M266.08,179.94c-0.41,0.31-0.65,0.64-0.88,0.63c-0.24-0.01-0.61-0.32-0.67-0.56
				c-0.1-0.42,0.22-0.75,0.65-0.7C265.44,179.35,265.67,179.64,266.08,179.94z"/>
			<path fill="#7586AC" d="M266.08,105.93c-0.4,0.32-0.63,0.66-0.86,0.65c-0.24-0.01-0.62-0.3-0.69-0.54
				c-0.11-0.41,0.2-0.76,0.63-0.71C265.42,105.36,265.66,105.65,266.08,105.93z"/>
			<path fill="#7586AC" d="M266.08,96.67c-0.39,0.33-0.62,0.67-0.85,0.67c-0.24,0-0.63-0.29-0.69-0.53
				c-0.12-0.41,0.19-0.76,0.62-0.73C265.41,96.1,265.65,96.39,266.08,96.67z"/>
			<path fill="#7586AC" d="M266.08,189.23c-0.42,0.29-0.66,0.57-0.92,0.6c-0.43,0.04-0.74-0.3-0.63-0.71
				c0.06-0.24,0.44-0.54,0.69-0.54C265.44,188.58,265.68,188.92,266.08,189.23z"/>
			<path fill="#7586AC" d="M265.17,79.15c-0.31-0.41-0.64-0.65-0.63-0.88c0.01-0.24,0.32-0.61,0.56-0.67
				c0.42-0.1,0.75,0.22,0.7,0.65C265.76,78.51,265.47,78.73,265.17,79.15z"/>
			<path fill="#7586AC" d="M265.19,151.29c0.29,0.42,0.57,0.66,0.6,0.92c0.04,0.43-0.3,0.74-0.71,0.63
				c-0.24-0.06-0.54-0.44-0.54-0.69C264.53,151.92,264.87,151.68,265.19,151.29z"/>
			<path fill="#7586AC" d="M266.08,87.46c-0.41,0.31-0.65,0.64-0.88,0.63c-0.24-0.01-0.61-0.32-0.67-0.56
				c-0.1-0.42,0.22-0.75,0.65-0.7C265.44,86.87,265.67,87.16,266.08,87.46z"/>
			<path fill="#7586AC" d="M265.1,197.53c0.33,0.39,0.67,0.62,0.67,0.85c0,0.24-0.29,0.63-0.53,0.69c-0.41,0.12-0.76-0.19-0.73-0.62
				C264.54,198.2,264.83,197.95,265.1,197.53z"/>
			<path fill="#7586AC" d="M265.17,160.53c0.3,0.41,0.59,0.64,0.62,0.9c0.05,0.43-0.28,0.75-0.7,0.65
				c-0.24-0.06-0.54-0.43-0.56-0.67C264.53,161.18,264.86,160.94,265.17,160.53z"/>
			<path fill="#7586AC" d="M265.1,206.78c0.33,0.39,0.67,0.62,0.67,0.85c0,0.24-0.29,0.63-0.53,0.69c-0.41,0.12-0.76-0.19-0.73-0.62
				C264.54,207.44,264.83,207.2,265.1,206.78z"/>
			<path fill="#7586AC" d="M266.08,69.01c-0.42,0.29-0.66,0.57-0.92,0.6c-0.43,0.04-0.74-0.3-0.63-0.71
				c0.06-0.24,0.44-0.53,0.69-0.54C265.44,68.35,265.68,68.69,266.08,69.01z"/>
			<path fill="#7586AC" d="M266.08,59.76c-0.42,0.29-0.66,0.57-0.92,0.6c-0.43,0.04-0.74-0.3-0.63-0.71
				c0.06-0.24,0.44-0.54,0.69-0.54C265.44,59.1,265.68,59.44,266.08,59.76z"/>
			<path fill="#7586AC" d="M266.07,133.64c-0.38,0.34-0.6,0.69-0.83,0.69c-0.24,0.01-0.63-0.28-0.71-0.51
				c-0.14-0.42,0.17-0.76,0.6-0.74C265.39,133.09,265.64,133.37,266.07,133.64z"/>
			<path fill="#7586AC" d="M270.34,73.66c-0.28,0.16-0.46,0.34-0.6,0.31c-0.14-0.03-0.34-0.28-0.33-0.42
				c0.02-0.13,0.27-0.33,0.42-0.33C269.97,73.23,270.11,73.45,270.34,73.66z"/>
			<path fill="#7586AC" d="M270.34,212.38c-0.28,0.16-0.46,0.34-0.6,0.31c-0.14-0.03-0.34-0.28-0.33-0.42
				c0.02-0.13,0.27-0.33,0.42-0.33C269.97,211.95,270.11,212.17,270.34,212.38z"/>
			<path fill="#7586AC" d="M270.34,119.9c-0.28,0.16-0.46,0.34-0.6,0.31c-0.14-0.03-0.34-0.28-0.33-0.42
				c0.02-0.13,0.27-0.33,0.42-0.33C269.97,119.47,270.11,119.69,270.34,119.9z"/>
			<path fill="#7586AC" d="M269.72,100.79c0.21,0.23,0.43,0.37,0.43,0.51c0,0.15-0.21,0.3-0.33,0.45c-0.15-0.12-0.39-0.22-0.42-0.36
				C269.38,101.25,269.57,101.06,269.72,100.79z"/>
			<path fill="#7586AC" d="M270.34,129.03c-0.23,0.21-0.37,0.43-0.51,0.43c-0.15,0-0.4-0.2-0.41-0.33
				c-0.01-0.13,0.19-0.39,0.33-0.42C269.88,128.68,270.06,128.87,270.34,129.03z"/>
			<path fill="#7586AC" d="M270.33,147.6c-0.26,0.17-0.43,0.37-0.57,0.35c-0.14-0.02-0.36-0.26-0.36-0.39
				c0.01-0.13,0.24-0.35,0.39-0.36C269.94,147.2,270.09,147.41,270.33,147.6z"/>
			<path fill="#7586AC" d="M269.84,110.04c0.15,0.28,0.34,0.46,0.31,0.6c-0.03,0.14-0.28,0.34-0.42,0.33
				c-0.13-0.02-0.33-0.27-0.33-0.42C269.41,110.4,269.63,110.27,269.84,110.04z"/>
			<path fill="#7586AC" d="M269.76,91.54c0.19,0.24,0.4,0.4,0.39,0.54c-0.01,0.15-0.23,0.28-0.36,0.42
				c-0.14-0.13-0.37-0.24-0.39-0.39C269.39,91.97,269.59,91.8,269.76,91.54z"/>
			<path fill="#7586AC" d="M269.72,63.8c0.21,0.23,0.43,0.37,0.43,0.51c0,0.15-0.21,0.3-0.33,0.45c-0.15-0.12-0.39-0.22-0.42-0.36
				C269.38,64.25,269.57,64.07,269.72,63.8z"/>
			<path fill="#7586AC" d="M269.23,156.77c0.28-0.15,0.46-0.34,0.6-0.31c0.14,0.03,0.24,0.27,0.36,0.42
				c-0.15,0.12-0.3,0.33-0.45,0.32C269.59,157.2,269.45,156.98,269.23,156.77z"/>
			<path fill="#7586AC" d="M269.8,82.29c0.17,0.26,0.37,0.43,0.35,0.57c-0.02,0.14-0.26,0.36-0.39,0.36
				c-0.13-0.01-0.35-0.24-0.36-0.39C269.4,82.69,269.61,82.54,269.8,82.29z"/>
			<path fill="#7586AC" d="M270.33,184.6c-0.26,0.17-0.43,0.37-0.57,0.35c-0.14-0.02-0.36-0.26-0.36-0.39
				c0.01-0.13,0.24-0.35,0.39-0.36C269.94,184.19,270.09,184.41,270.33,184.6z"/>
			<path fill="#7586AC" d="M269.76,165.53c0.19,0.24,0.4,0.4,0.39,0.54c-0.01,0.15-0.23,0.28-0.36,0.42
				c-0.14-0.13-0.37-0.24-0.39-0.39C269.39,165.96,269.59,165.79,269.76,165.53z"/>
			<path fill="#7586AC" d="M269.76,137.78c0.19,0.24,0.4,0.4,0.39,0.54c-0.01,0.15-0.23,0.28-0.36,0.42
				c-0.14-0.13-0.37-0.24-0.39-0.39C269.39,138.21,269.59,138.04,269.76,137.78z"/>
			<path fill="#7586AC" d="M269.76,194.38c-0.17-0.26-0.37-0.43-0.35-0.57c0.02-0.14,0.26-0.36,0.39-0.36
				c0.13,0.01,0.35,0.24,0.36,0.39C270.16,193.98,269.95,194.14,269.76,194.38z"/>
			<path fill="#7586AC" d="M269.84,174.77c0.15,0.28,0.34,0.46,0.31,0.6c-0.03,0.14-0.27,0.24-0.42,0.36
				c-0.12-0.15-0.33-0.3-0.32-0.45C269.41,175.14,269.63,175,269.84,174.77z"/>
			<path fill="#7586AC" d="M269.84,202.52c0.15,0.28,0.34,0.46,0.31,0.6c-0.03,0.14-0.27,0.24-0.42,0.36
				c-0.12-0.15-0.33-0.3-0.32-0.45C269.41,202.88,269.63,202.75,269.84,202.52z"/>
			<path fill="#7586AC" d="M274.43,87.3c0.05,0.05,0.09,0.11,0.14,0.16c-0.08,0.05-0.17,0.11-0.25,0.16
				c-0.03-0.07-0.09-0.15-0.07-0.21C274.26,87.36,274.36,87.34,274.43,87.3z"/>
			<path fill="#7586AC" d="M274.57,96.74c-0.05,0.05-0.11,0.09-0.16,0.14c-0.05-0.08-0.11-0.17-0.16-0.25
				c0.07-0.03,0.15-0.09,0.21-0.07C274.51,96.57,274.54,96.68,274.57,96.74z"/>
			<path fill="#7586AC" d="M274.58,106.03c-0.06,0.04-0.13,0.07-0.19,0.11c-0.04-0.09-0.07-0.18-0.11-0.27
				c0.07-0.02,0.16-0.07,0.21-0.04C274.54,105.85,274.55,105.96,274.58,106.03z"/>
			<path fill="#7586AC" d="M274.37,180.12c-0.04-0.06-0.08-0.12-0.12-0.18c0.09-0.04,0.17-0.09,0.26-0.13
				c0.02,0.07,0.08,0.16,0.06,0.21C274.54,180.08,274.43,180.09,274.37,180.12z"/>
			<path fill="#7586AC" d="M274.41,198.28c0.05,0.05,0.1,0.1,0.16,0.15c-0.08,0.06-0.16,0.12-0.24,0.19
				c-0.03-0.07-0.1-0.14-0.08-0.21C274.25,198.36,274.35,198.33,274.41,198.28z"/>
			<path fill="#7586AC" d="M274.58,143.02c-0.06,0.04-0.13,0.07-0.19,0.11c-0.04-0.09-0.07-0.18-0.11-0.27
				c0.07-0.02,0.16-0.07,0.21-0.04C274.54,142.85,274.55,142.95,274.58,143.02z"/>
			<path fill="#7586AC" d="M274.37,78.39c-0.04-0.06-0.08-0.12-0.12-0.18c0.09-0.04,0.17-0.09,0.26-0.13
				c0.02,0.07,0.08,0.16,0.06,0.21C274.54,78.35,274.43,78.36,274.37,78.39z"/>
			<path fill="#7586AC" d="M274.24,115.19c0.05-0.05,0.11-0.09,0.16-0.14c0.05,0.08,0.11,0.17,0.16,0.25
				c-0.07,0.03-0.15,0.09-0.21,0.07C274.3,115.36,274.27,115.26,274.24,115.19z"/>
			<path fill="#7586AC" d="M274.58,207.76c-0.06,0.04-0.13,0.07-0.19,0.11c-0.04-0.09-0.07-0.18-0.11-0.27
				c0.07-0.02,0.16-0.07,0.21-0.04C274.54,207.58,274.55,207.69,274.58,207.76z"/>
			<path fill="#7586AC" d="M274.57,161.48c-0.05,0.05-0.11,0.09-0.16,0.14c-0.05-0.08-0.11-0.17-0.16-0.25
				c0.07-0.03,0.15-0.09,0.21-0.07C274.51,161.31,274.54,161.41,274.57,161.48z"/>
			<path fill="#7586AC" d="M274.58,124.52c-0.06,0.04-0.13,0.07-0.19,0.11c-0.04-0.09-0.07-0.18-0.11-0.27
				c0.07-0.02,0.16-0.07,0.21-0.04C274.54,124.35,274.55,124.45,274.58,124.52z"/>
			<path fill="#7586AC" d="M274.41,170.54c0.05,0.05,0.1,0.1,0.16,0.15c-0.08,0.06-0.16,0.12-0.24,0.19
				c-0.03-0.07-0.1-0.14-0.08-0.21C274.25,170.62,274.35,170.58,274.41,170.54z"/>
			<path fill="#7586AC" d="M274.24,59.71c0.05-0.05,0.11-0.09,0.16-0.14c0.05,0.08,0.11,0.17,0.16,0.25
				c-0.07,0.03-0.15,0.09-0.21,0.07C274.3,59.87,274.27,59.77,274.24,59.71z"/>
			<path fill="#7586AC" d="M274.57,69c-0.05,0.05-0.11,0.09-0.16,0.14c-0.05-0.08-0.11-0.17-0.16-0.25
				c0.07-0.03,0.15-0.09,0.21-0.07C274.51,68.83,274.54,68.93,274.57,69z"/>
			<path fill="#7586AC" d="M274.57,189.22c-0.05,0.05-0.11,0.09-0.16,0.14c-0.05-0.08-0.11-0.17-0.16-0.25
				c0.07-0.03,0.15-0.09,0.21-0.07C274.51,189.06,274.54,189.16,274.57,189.22z"/>
			<path fill="#7586AC" d="M274.57,152.21c-0.05,0.05-0.1,0.1-0.15,0.16c-0.06-0.08-0.12-0.16-0.19-0.24
				c0.07-0.03,0.14-0.1,0.21-0.08C274.49,152.06,274.53,152.15,274.57,152.21z"/>
			<path fill="#7586AC" d="M274.57,133.72c-0.05,0.05-0.1,0.1-0.15,0.16c-0.06-0.08-0.12-0.16-0.19-0.24
				c0.07-0.03,0.14-0.1,0.21-0.08C274.49,133.56,274.53,133.66,274.57,133.72z"/>
		</g>
		
			<path fill="none" stroke="#6981A8" stroke-width="4.5" stroke-linecap="round" stroke-linejoin="round" stroke-miterlimit="10" d="
			M341,213.5H211.76c-7.09,0-12.84-5.75-12.84-12.84V71.42c0-7.09,5.75-12.84,12.84-12.84H341c7.09,0,12.84,5.75,12.84,12.84v129.24
			C353.85,207.75,348.1,213.5,341,213.5z"/>
	</g>
	<g>
		<rect x="219.57" y="79.23" fill="#F3C4AE" width="113.62" height="113.62"/>
		<polygon fill="#6981A8" points="316.73,79.23 219.57,176.38 219.57,79.23 		"/>
		<g>
			<g>
				
					<line fill="none" stroke="#FCF1EE" stroke-width="4.5" stroke-linecap="round" stroke-linejoin="round" stroke-miterlimit="10" x1="219.44" y1="113.39" x2="255.82" y2="113.39"/>
				
					<circle fill="none" stroke="#FCF1EE" stroke-width="4.5" stroke-linecap="round" stroke-linejoin="round" stroke-miterlimit="10" cx="264.99" cy="113.39" r="9.2"/>
			</g>
			<g>
				
					<circle fill="none" stroke="#FCF1EE" stroke-width="4.5" stroke-linecap="round" stroke-linejoin="round" stroke-miterlimit="10" cx="239.97" cy="135.14" r="9.2"/>
				
					<polyline fill="none" stroke="#FCF1EE" stroke-width="4.5" stroke-linecap="round" stroke-linejoin="round" stroke-miterlimit="10" points="
					249.17,135.14 277.97,135.14 300.66,112.45 333.19,112.45 				"/>
			</g>
			<g>
				
					<circle fill="none" stroke="#FCF1EE" stroke-width="4.5" stroke-linecap="round" stroke-linejoin="round" stroke-miterlimit="10" cx="310.55" cy="135.14" r="9.2"/>
				
					<polyline fill="none" stroke="#FCF1EE" stroke-width="4.5" stroke-linecap="round" stroke-linejoin="round" stroke-miterlimit="10" points="
					310.55,144.35 310.55,174.77 291.18,194.13 				"/>
			</g>
			<g>
				
					<circle fill="none" stroke="#FCF1EE" stroke-width="4.5" stroke-linecap="round" stroke-linejoin="round" stroke-miterlimit="10" cx="284.45" cy="155.6" r="9.2"/>
				
					<line fill="none" stroke="#FCF1EE" stroke-width="4.5" stroke-linecap="round" stroke-linejoin="round" stroke-miterlimit="10" x1="275.24" y1="155.6" x2="219.44" y2="155.6"/>
			</g>
		</g>
		
			<rect x="219.57" y="79.23" fill="none" stroke="#6981A8" stroke-width="4.5" stroke-linecap="round" stroke-linejoin="round" stroke-miterlimit="10" width="113.62" height="113.62"/>
	</g>
	<g>
		<path fill="#6981A8" d="M222.95,43.47h-0.07V28.64c0-0.95-0.77-1.72-1.72-1.72h-3.44c-0.95,0-1.72,0.77-1.72,1.72v14.83h-0.07
			c-1.9,0-3.44,1.54-3.44,3.44v11.65h13.9V46.92C226.39,45.02,224.85,43.47,222.95,43.47z"/>
		<path fill="#6981A8" d="M245.73,43.47h-0.07V28.64c0-0.95-0.77-1.72-1.72-1.72h-3.44c-0.95,0-1.72,0.77-1.72,1.72v14.83h-0.07
			c-1.9,0-3.44,1.54-3.44,3.44v11.65h13.9V46.92C249.17,45.02,247.63,43.47,245.73,43.47z"/>
		<path fill="#6981A8" d="M268.5,43.47h-0.07V28.64c0-0.95-0.77-1.72-1.72-1.72h-3.44c-0.95,0-1.72,0.77-1.72,1.72v14.83h-0.07
			c-1.9,0-3.44,1.54-3.44,3.44v11.65h13.9V46.92C271.95,45.02,270.4,43.47,268.5,43.47z"/>
		<path fill="#6981A8" d="M291.28,43.47h-0.07V28.64c0-0.95-0.77-1.72-1.72-1.72h-3.44c-0.95,0-1.72,0.77-1.72,1.72v14.83h-0.07
			c-1.9,0-3.44,1.54-3.44,3.44v11.65h13.9V46.92C294.72,45.02,293.18,43.47,291.28,43.47z"/>
		<path fill="#6981A8" d="M314.05,43.47h-0.07V28.64c0-0.95-0.77-1.72-1.72-1.72h-3.44c-0.95,0-1.72,0.77-1.72,1.72v14.83h-0.07
			c-1.9,0-3.44,1.54-3.44,3.44v11.65h13.9V46.92C317.5,45.02,315.96,43.47,314.05,43.47z"/>
		<path fill="#6981A8" d="M336.83,43.47h-0.07V28.64c0-0.95-0.77-1.72-1.72-1.72h-3.44c-0.95,0-1.72,0.77-1.72,1.72v14.83h-0.07
			c-1.9,0-3.44,1.54-3.44,3.44v11.65h13.9V46.92C340.27,45.02,338.73,43.47,336.83,43.47z"/>
	</g>
	<g>
		<path fill="#6981A8" d="M222.95,228.6h-0.07v14.83c0,0.95-0.77,1.72-1.72,1.72h-3.44c-0.95,0-1.72-0.77-1.72-1.72V228.6h-0.07
			c-1.9,0-3.44-1.54-3.44-3.44V213.5h13.9v11.65C226.39,227.06,224.85,228.6,222.95,228.6z"/>
		<path fill="#6981A8" d="M245.73,228.6h-0.07v14.83c0,0.95-0.77,1.72-1.72,1.72h-3.44c-0.95,0-1.72-0.77-1.72-1.72V228.6h-0.07
			c-1.9,0-3.44-1.54-3.44-3.44V213.5h13.9v11.65C249.17,227.06,247.63,228.6,245.73,228.6z"/>
		<path fill="#6981A8" d="M268.5,228.6h-0.07v14.83c0,0.95-0.77,1.72-1.72,1.72h-3.44c-0.95,0-1.72-0.77-1.72-1.72V228.6h-0.07
			c-1.9,0-3.44-1.54-3.44-3.44V213.5h13.9v11.65C271.95,227.06,270.4,228.6,268.5,228.6z"/>
		<path fill="#6981A8" d="M291.28,228.6h-0.07v14.83c0,0.95-0.77,1.72-1.72,1.72h-3.44c-0.95,0-1.72-0.77-1.72-1.72V228.6h-0.07
			c-1.9,0-3.44-1.54-3.44-3.44V213.5h13.9v11.65C294.72,227.06,293.18,228.6,291.28,228.6z"/>
		<path fill="#6981A8" d="M314.05,228.6h-0.07v14.83c0,0.95-0.77,1.72-1.72,1.72h-3.44c-0.95,0-1.72-0.77-1.72-1.72V228.6h-0.07
			c-1.9,0-3.44-1.54-3.44-3.44V213.5h13.9v11.65C317.5,227.06,315.96,228.6,314.05,228.6z"/>
		<path fill="#6981A8" d="M336.83,228.6h-0.07v14.83c0,0.95-0.77,1.72-1.72,1.72h-3.44c-0.95,0-1.72-0.77-1.72-1.72V228.6h-0.07
			c-1.9,0-3.44-1.54-3.44-3.44V213.5h13.9v11.65C340.27,227.06,338.73,228.6,336.83,228.6z"/>
	</g>
	<g>
		<path fill="#6981A8" d="M368.94,82.6v-0.07h14.83c0.95,0,1.72-0.77,1.72-1.72v-3.44c0-0.95-0.77-1.72-1.72-1.72h-14.83v-0.07
			c0-1.9-1.54-3.44-3.44-3.44h-11.65v13.9h11.65C367.4,86.05,368.94,84.51,368.94,82.6z"/>
		<path fill="#6981A8" d="M368.94,105.38v-0.07h14.83c0.95,0,1.72-0.77,1.72-1.72v-3.44c0-0.95-0.77-1.72-1.72-1.72h-14.83v-0.07
			c0-1.9-1.54-3.44-3.44-3.44h-11.65v13.9h11.65C367.4,108.82,368.94,107.28,368.94,105.38z"/>
		<path fill="#6981A8" d="M368.94,128.16v-0.07h14.83c0.95,0,1.72-0.77,1.72-1.72v-3.44c0-0.95-0.77-1.72-1.72-1.72h-14.83v-0.07
			c0-1.9-1.54-3.44-3.44-3.44h-11.65v13.9h11.65C367.4,131.6,368.94,130.06,368.94,128.16z"/>
		<path fill="#6981A8" d="M368.94,150.93v-0.07h14.83c0.95,0,1.72-0.77,1.72-1.72v-3.44c0-0.95-0.77-1.72-1.72-1.72h-14.83v-0.07
			c0-1.9-1.54-3.44-3.44-3.44h-11.65v13.9h11.65C367.4,154.38,368.94,152.83,368.94,150.93z"/>
		<path fill="#6981A8" d="M368.94,173.71v-0.07h14.83c0.95,0,1.72-0.77,1.72-1.72v-3.44c0-0.95-0.77-1.72-1.72-1.72h-14.83v-0.07
			c0-1.9-1.54-3.44-3.44-3.44h-11.65v13.9h11.65C367.4,177.15,368.94,175.61,368.94,173.71z"/>
		<path fill="#6981A8" d="M368.94,196.49v-0.07h14.83c0.95,0,1.72-0.77,1.72-1.72v-3.44c0-0.95-0.77-1.72-1.72-1.72h-14.83v-0.07
			c0-1.9-1.54-3.44-3.44-3.44h-11.65v13.9h11.65C367.4,199.93,368.94,198.39,368.94,196.49z"/>
	</g>
	<g>
		<path fill="#6981A8" d="M183.82,82.6v-0.07h-14.83c-0.95,0-1.72-0.77-1.72-1.72v-3.44c0-0.95,0.77-1.72,1.72-1.72h14.83v-0.07
			c0-1.9,1.54-3.44,3.44-3.44h11.65v13.9h-11.65C185.36,86.05,183.82,84.51,183.82,82.6z"/>
		<path fill="#6981A8" d="M183.82,105.38v-0.07h-14.83c-0.95,0-1.72-0.77-1.72-1.72v-3.44c0-0.95,0.77-1.72,1.72-1.72h14.83v-0.07
			c0-1.9,1.54-3.44,3.44-3.44h11.65v13.9h-11.65C185.36,108.82,183.82,107.28,183.82,105.38z"/>
		<path fill="#6981A8" d="M183.82,128.16v-0.07h-14.83c-0.95,0-1.72-0.77-1.72-1.72v-3.44c0-0.95,0.77-1.72,1.72-1.72h14.83v-0.07
			c0-1.9,1.54-3.44,3.44-3.44h11.65v13.9h-11.65C185.36,131.6,183.82,130.06,183.82,128.16z"/>
		<path fill="#6981A8" d="M183.82,150.93v-0.07h-14.83c-0.95,0-1.72-0.77-1.72-1.72v-3.44c0-0.95,0.77-1.72,1.72-1.72h14.83v-0.07
			c0-1.9,1.54-3.44,3.44-3.44h11.65v13.9h-11.65C185.36,154.38,183.82,152.83,183.82,150.93z"/>
		<path fill="#6981A8" d="M183.82,173.71v-0.07h-14.83c-0.95,0-1.72-0.77-1.72-1.72v-3.44c0-0.95,0.77-1.72,1.72-1.72h14.83v-0.07
			c0-1.9,1.54-3.44,3.44-3.44h11.65v13.9h-11.65C185.36,177.15,183.82,175.61,183.82,173.71z"/>
		<path fill="#6981A8" d="M183.82,196.49v-0.07h-14.83c-0.95,0-1.72-0.77-1.72-1.72v-3.44c0-0.95,0.77-1.72,1.72-1.72h14.83v-0.07
			c0-1.9,1.54-3.44,3.44-3.44h11.65v13.9h-11.65C185.36,199.93,183.82,198.39,183.82,196.49z"/>
	</g>
</g>
<g>
	
		<circle fill="none" stroke="#F2C3AD" stroke-width="4" stroke-linejoin="round" stroke-miterlimit="10" cx="115.54" cy="43.31" r="8.6"/>
	<polyline fill="none" stroke="#F2C3AD" stroke-width="4" stroke-linejoin="round" stroke-miterlimit="10" points="115.54,51.91 
		115.54,85.93 152.86,123.25 152.86,235 	"/>
</g>
<g>
	
		<circle fill="none" stroke="#F2C3AD" stroke-width="4" stroke-linejoin="round" stroke-miterlimit="10" cx="129.16" cy="133.52" r="8.6"/>
	<polyline fill="none" stroke="#F2C3AD" stroke-width="4" stroke-linejoin="round" stroke-miterlimit="10" points="129.16,142.12 
		129.16,167.85 101.11,195.9 101.11,235 	"/>
</g>
<g>
	
		<circle fill="none" stroke="#F2C3AD" stroke-width="4" stroke-linejoin="round" stroke-miterlimit="10" cx="129.16" cy="200.29" r="8.6"/>
	
		<line fill="none" stroke="#F2C3AD" stroke-width="4" stroke-linejoin="round" stroke-miterlimit="10" x1="129.16" y1="208.89" x2="129.16" y2="235"/>
</g>
<g>
	
		<circle fill="none" stroke="#F2C3AD" stroke-width="4" stroke-linejoin="round" stroke-miterlimit="10" cx="55.93" cy="111.85" r="8.6"/>
	<polyline fill="none" stroke="#F2C3AD" stroke-width="4" stroke-linejoin="round" stroke-miterlimit="10" points="55.93,120.45 
		55.93,140.13 74.93,159.13 74.93,235 	"/>
</g>
<g>
	
		<circle fill="none" stroke="#F2C3AD" stroke-width="4" stroke-linejoin="round" stroke-miterlimit="10" cx="397.87" cy="194.41" r="8.6"/>
	<polyline fill="none" stroke="#F2C3AD" stroke-width="4" stroke-linejoin="round" stroke-miterlimit="10" points="397.87,203.01 
		397.87,214.93 386.11,226.69 386.11,235 	"/>
</g>
<g>
	
		<circle fill="none" stroke="#F2C3AD" stroke-width="4" stroke-linejoin="round" stroke-miterlimit="10" cx="421.62" cy="108.29" r="8.6"/>
	<polyline fill="none" stroke="#F2C3AD" stroke-width="4" stroke-linejoin="round" stroke-miterlimit="10" points="421.62,116.89 
		421.62,135.31 450.48,164.17 450.48,235 	"/>
</g>
<g>
	
		<circle fill="none" stroke="#F2C3AD" stroke-width="4" stroke-linejoin="round" stroke-miterlimit="10" cx="421.62" cy="165.3" r="8.6"/>
	
		<line fill="none" stroke="#F2C3AD" stroke-width="4" stroke-linejoin="round" stroke-miterlimit="10" x1="421.62" y1="173.9" x2="421.62" y2="235"/>
</g>
</svg>
