<svg version="1.1" id="Capa_1" xmlns="http://www.w3.org/2000/svg" xmlns:xlink="http://www.w3.org/1999/xlink" x="0px" y="0px"
	 width="500px" height="240.91px" viewBox="0 0 500 240.91" enable-background="new 0 0 500 240.91" xml:space="preserve">
<path id="XMLID_38_" fill="#FBE7DE" d="M0.19,226.18C0.94,231.21,6.22,235,12.5,235h81.23L442,235h43.5c6,0,11.13-8.71,12.2-13.48
	c3.55-15.81,7.22-49.15-23.85-52.04c-5.61-0.48-10.11-3.95-10.96-8.44c-6.63-36.45,9.89-68.23-39.57-73.6
	c-6.16-0.65-10.78-4.88-10.8-9.9c0.02-25.89-6.12-79.22-107.63-77.5c-88.23,1.5-110.77,33.76-115.96,54.33
	c-1.37,5.39-7.91,8.86-14.59,7.76c-1.03-0.17-2.03-0.45-2.97-0.82c-31.12-12.42-77.28-19.64-93.61,11.63
	c-12.5,23.95,4.49,50.32,18.68,68.53c5.89,7.56-2.58,17.05-13.36,15.01c-21.74-4.11-38.86-4.42-43.17,12.98
	c-5.89,23.75,29.1,39.24,13,38.56c-1.19-0.06-2.36-0.25-3.48-0.57C21.44,199.63-2.4,208.55,0.19,226.18z"/>
<g id="XMLID_39_">
	<g id="color">
		<g>
			<path fill="#D7E0F0" d="M346.83,114.71l25.93,123.41c-0.99,0.35-2.08,0.54-3.2,0.54h-8.38l-19.55-123.95H346.83z"/>
			<polygon fill="#D7E0F0" points="341.62,114.71 361.17,238.66 346.93,238.66 339.05,114.71 			"/>
			<polygon fill="#D7E0F0" points="339.05,114.71 346.93,238.66 333.12,238.66 338.17,114.71 			"/>
			<polygon fill="#D7E0F0" points="338.17,114.71 333.12,238.66 320.6,238.66 337.3,114.74 337.3,114.71 			"/>
			<path fill="#D7E0F0" d="M337.3,114.74l-16.7,123.92h-18.38c4.56,0,8.5-3.17,9.48-7.62L337.3,114.74z"/>
			<path fill="#FCF2EF" d="M379.03,226.87c1.08,4.95-1.8,9.69-6.28,11.25l-25.93-123.41h7.53L379.03,226.87z"/>
		</g>
		<path fill="#D7E0F0" d="M346.76,80.24l7.59,34.48h-7.53h-5.21h-2.57h-0.87h-0.87l6.67-30.31c1.33-6.06-3.28-11.79-9.48-11.79h2.79
			C341.84,72.61,345.79,75.78,346.76,80.24z"/>
		<path fill="#F3C4AE" d="M239.01,72.61h15.45h10.47h15.45h10.46h15.45h10.47h15.45h2.28c6.2,0,10.81,5.73,9.48,11.79l-6.67,30.31
			H171.26l7.59-34.48c0.9-4.08,4.28-7.07,8.34-7.55c0.38-0.04,0.76-0.07,1.14-0.07h14.31h10.46h15.45H239.01z"/>
		<path fill="#FCF2EF" d="M337.3,114.71v0.03l-25.6,116.3c-0.98,4.45-4.92,7.62-9.48,7.62H156.06c-6.2,0-10.81-5.74-9.48-11.79
			l24.68-112.16H337.3z M303.2,215.66c0.39-1.64-0.85-3.22-2.55-3.22H163.01c-1.21,0-2.26,0.83-2.55,2.01l-2.24,9.45
			c-0.39,1.64,0.85,3.22,2.55,3.22h137.65c1.21,0,2.27-0.83,2.55-2.01L303.2,215.66z"/>
		<path fill="#FBE7DE" d="M300.65,212.44c1.69,0,2.94,1.58,2.55,3.22l-2.24,9.45c-0.28,1.18-1.33,2.01-2.55,2.01H160.77
			c-1.69,0-2.94-1.58-2.55-3.22l2.24-9.45c0.29-1.18,1.33-2.01,2.55-2.01H300.65z"/>
	</g>
	<g id="shadow">
		<g>
			<path fill="#7586AC" d="M317.02,239c-4.83,0-9.67,0-14.7,0c1.56-0.44,2.9-0.88,4.27-1.19c0.66-0.14,1.38-0.02,2.15-0.02
				c-0.04-0.25-0.07-0.47-0.12-0.7c-0.09-0.45,0.05-0.81,0.36-1.14c0.48-0.5,0.93-1.03,1.38-1.56c0.34-0.39,0.77-0.46,1.24-0.39
				c0.34,0.06,0.67,0.17,1,0.25c0-0.85,0-1.66,0-2.56c-0.2-0.01-0.49-0.03-0.87-0.05c0.03-0.32,0.02-0.59,0.08-0.84
				c0.32-1.3,0.7-2.59,0.99-3.9c0.23-1,0.38-2.03,0.54-3.04c0.07-0.43,0.29-0.68,0.67-0.85c0.88-0.39,2.14-0.19,2.84,0.46
				c0.8,0.74,1.1,1.98,0.64,2.97c-0.44,0.96-1.18,1.55-2.29,1.52c-0.45-0.01-0.89-0.07-1.29-0.11c0,0.86,0,1.73,0,2.65
				c1.31-0.3,2.67-0.29,3.45,1.15c0.49,0.9,0.47,1.89-0.13,2.78c-0.7,1.03-1.57,1.25-3.31,0.95c0,0.86,0,1.73,0,2.52
				c0.71,0.06,1.52,0.08,2.31,0.24c0.31,0.06,0.57,0.43,0.85,0.65C317.08,238.87,317.05,238.93,317.02,239z"/>
			<path fill="#7586AC" d="M318.84,219.12c1.32-0.02,2.54,1.18,2.56,2.5c0.02,1.32-1.18,2.54-2.5,2.56
				c-1.32,0.02-2.54-1.18-2.56-2.5C316.32,220.36,317.52,219.14,318.84,219.12z"/>
			<path fill="#7586AC" d="M321.41,229.22c-0.02,1.33-1.24,2.52-2.56,2.5c-1.33-0.02-2.52-1.24-2.5-2.56
				c0.02-1.33,1.24-2.52,2.56-2.5C320.23,226.67,321.43,227.89,321.41,229.22z"/>
			<path fill="#7586AC" d="M318.91,211.58c1.33,0.03,2.52,1.25,2.49,2.57c-0.03,1.33-1.25,2.52-2.57,2.49
				c-1.33-0.03-2.52-1.25-2.49-2.57C316.37,212.74,317.59,211.56,318.91,211.58z"/>
			<path fill="#7586AC" d="M318.87,239.08c-1.49,0-2.56-1.02-2.53-2.4c0.03-1.29,1.2-2.46,2.49-2.48c1.32-0.03,2.56,1.16,2.58,2.5
				C321.43,238.07,320.36,239.08,318.87,239.08z"/>
			<path fill="#7586AC" d="M322.73,200.45c1.44,0.03,2.28,0.91,2.27,2.4c-0.01,1.5-0.91,2.35-2.45,2.32
				c-1.48-0.03-2.31-0.95-2.26-2.5C320.33,201.25,321.23,200.43,322.73,200.45z"/>
			<path fill="#7586AC" d="M322.65,192.92c1.51,0,2.37,0.88,2.35,2.42c-0.02,1.46-0.89,2.3-2.36,2.3c-1.51,0-2.37-0.88-2.35-2.42
				C320.3,193.76,321.17,192.92,322.65,192.92z"/>
			<path fill="#7586AC" d="M325,232.9c0.02,1.53-0.84,2.41-2.36,2.41c-1.48,0-2.34-0.85-2.36-2.31c-0.02-1.53,0.84-2.41,2.36-2.41
				C324.12,230.6,324.98,231.44,325,232.9z"/>
			<path fill="#7586AC" d="M325,217.88c0,1.52-0.87,2.38-2.41,2.36c-1.46-0.01-2.31-0.88-2.31-2.35c0-1.52,0.87-2.38,2.41-2.36
				C324.15,215.54,325,216.4,325,217.88z"/>
			<path fill="#7586AC" d="M325,225.42c0,1.52-0.88,2.38-2.41,2.36c-1.46-0.02-2.31-0.88-2.31-2.36c0-1.52,0.88-2.38,2.41-2.36
				C324.15,223.08,325,223.94,325,225.42z"/>
			<path fill="#7586AC" d="M322.63,212.71c-1.47,0-2.33-0.86-2.35-2.32c-0.01-1.53,0.85-2.4,2.37-2.4c1.51,0,2.37,0.89,2.35,2.42
				C324.98,211.87,324.11,212.71,322.63,212.71z"/>
			<path fill="#7586AC" d="M317.66,204.43c0.95-0.58,1.85-0.49,2.66,0.12c0.84,0.63,1.27,1.47,1.01,2.54
				c-0.25,1.03-0.92,1.68-1.95,1.95c-0.65,0.17-1.24,0.01-1.79-0.32c-0.59-0.35-0.74-0.72-0.59-1.41
				C317.2,206.38,317.43,205.44,317.66,204.43z"/>
			<path fill="#7586AC" d="M328.73,214.1c0.01,1.26-1.04,2.33-2.31,2.34c-1.27,0.01-2.33-1.04-2.34-2.31
				c-0.01-1.26,1.04-2.33,2.31-2.34C327.66,211.78,328.72,212.83,328.73,214.1z"/>
			<path fill="#7586AC" d="M328.73,206.61c-0.02,1.27-1.09,2.32-2.35,2.3c-1.27-0.02-2.32-1.09-2.3-2.35
				c0.02-1.27,1.09-2.32,2.35-2.3C327.7,204.27,328.75,205.34,328.73,206.61z"/>
			<path fill="#7586AC" d="M326.37,196.72c1.26-0.03,2.34,1.01,2.37,2.28c0.03,1.26-1.01,2.34-2.28,2.37
				c-1.26,0.03-2.34-1.01-2.37-2.28C324.06,197.82,325.1,196.75,326.37,196.72z"/>
			<path fill="#7586AC" d="M326.39,174.12c1.26-0.01,2.33,1.04,2.34,2.31c0.01,1.26-1.04,2.33-2.31,2.34
				c-1.26,0.01-2.33-1.04-2.34-2.31C324.08,175.19,325.13,174.13,326.39,174.12z"/>
			<path fill="#7586AC" d="M326.45,231.51c-1.26,0.03-2.34-1.01-2.37-2.28c-0.03-1.26,1.01-2.34,2.28-2.37
				c1.26-0.03,2.34,1.01,2.37,2.28C328.76,230.4,327.72,231.48,326.45,231.51z"/>
			<path fill="#7586AC" d="M328.73,191.48c0.02,1.26-1.03,2.34-2.3,2.35c-1.26,0.02-2.34-1.03-2.35-2.3
				c-0.02-1.26,1.03-2.34,2.3-2.35C327.65,189.17,328.72,190.22,328.73,191.48z"/>
			<path fill="#7586AC" d="M326.43,219.33c1.27,0.01,2.32,1.08,2.31,2.34c-0.01,1.27-1.08,2.32-2.34,2.31
				c-1.27-0.01-2.32-1.08-2.31-2.34C324.09,220.37,325.16,219.32,326.43,219.33z"/>
			<path fill="#7586AC" d="M326.39,181.65c1.26-0.01,2.33,1.03,2.35,2.3c0.01,1.26-1.03,2.33-2.3,2.35
				c-1.26,0.01-2.33-1.03-2.35-2.3C324.07,182.73,325.12,181.66,326.39,181.65z"/>
			<path fill="#7586AC" d="M326.45,239.05c-1.26,0.03-2.34-1.01-2.37-2.28c-0.03-1.26,1.01-2.34,2.28-2.37
				c1.26-0.03,2.34,1.01,2.37,2.28C328.76,237.94,327.72,239.02,326.45,239.05z"/>
			<path fill="#7586AC" d="M320.94,189.34c0.3-1.28,0.59-2.53,0.87-3.73c1.36-0.45,2.4-0.08,2.97,1.02c0.52,1,0.22,2.34-0.67,3.01
				C323.16,190.37,321.95,190.27,320.94,189.34z"/>
			<path fill="#7586AC" d="M332.32,232.96c0,1.28-0.9,2.15-2.18,2.14c-1.27-0.01-2.14-0.92-2.11-2.21c0.02-1.22,0.9-2.08,2.13-2.08
				C331.44,230.8,332.33,231.69,332.32,232.96z"/>
			<path fill="#7586AC" d="M330.23,189.89c-1.29,0.02-2.19-0.85-2.2-2.12c-0.01-1.28,0.87-2.17,2.15-2.17
				c1.24,0,2.11,0.85,2.14,2.07C332.35,188.95,331.49,189.87,330.23,189.89z"/>
			<path fill="#7586AC" d="M332.32,225.42c0,1.28-0.89,2.16-2.17,2.15c-1.27-0.01-2.14-0.91-2.12-2.2c0.02-1.23,0.89-2.08,2.12-2.1
				C331.43,223.26,332.32,224.14,332.32,225.42z"/>
			<path fill="#7586AC" d="M332.32,157.58c0.01,1.28-0.88,2.16-2.15,2.16c-1.27,0-2.15-0.9-2.13-2.18c0.01-1.23,0.87-2.09,2.1-2.11
				C331.41,155.44,332.31,156.31,332.32,157.58z"/>
			<path fill="#7586AC" d="M332.32,217.89c0,1.28-0.9,2.15-2.18,2.14c-1.27-0.01-2.14-0.92-2.11-2.21c0.02-1.22,0.9-2.08,2.13-2.08
				C331.44,215.73,332.33,216.62,332.32,217.89z"/>
			<path fill="#7586AC" d="M332.32,165.1c0.01,1.28-0.86,2.18-2.14,2.18c-1.28,0-2.16-0.88-2.16-2.16c0.01-1.23,0.86-2.11,2.08-2.13
				C331.4,162.97,332.31,163.83,332.32,165.1z"/>
			<path fill="#7586AC" d="M332.32,202.81c0,1.28-0.89,2.16-2.17,2.15c-1.27-0.01-2.14-0.91-2.12-2.19c0.02-1.23,0.88-2.09,2.11-2.1
				C331.43,200.66,332.32,201.53,332.32,202.81z"/>
			<path fill="#7586AC" d="M330.15,212.49c-1.27-0.01-2.14-0.91-2.12-2.19c0.02-1.27,0.93-2.13,2.22-2.1
				c1.22,0.03,2.07,0.91,2.07,2.14C332.32,211.62,331.43,212.5,330.15,212.49z"/>
			<path fill="#7586AC" d="M330.17,182.35c-1.28,0-2.15-0.9-2.13-2.18c0.02-1.27,0.92-2.13,2.21-2.11c1.22,0.02,2.08,0.9,2.08,2.13
				C332.33,181.47,331.44,182.36,330.17,182.35z"/>
			<path fill="#7586AC" d="M330.17,197.42c-1.27,0-2.15-0.9-2.13-2.18c0.02-1.27,0.92-2.13,2.21-2.11c1.22,0.02,2.08,0.9,2.08,2.13
				C332.33,196.54,331.44,197.43,330.17,197.42z"/>
			<path fill="#7586AC" d="M330.22,170.53c1.27,0.02,2.13,0.93,2.1,2.21c-0.03,1.26-0.95,2.12-2.24,2.08
				c-1.22-0.04-2.06-0.92-2.05-2.16C328.04,171.38,328.93,170.51,330.22,170.53z"/>
			<path fill="#7586AC" d="M333.89,163.48c-1.12-0.03-2.11-1.08-2.06-2.19c0.05-1.12,1.11-2.1,2.21-2.03
				c1.08,0.06,2.02,1.06,2.01,2.13C336.04,162.52,335.01,163.51,333.89,163.48z"/>
			<path fill="#7586AC" d="M336.05,191.53c-0.01,1.12-1.04,2.12-2.16,2.09c-1.12-0.03-2.11-1.08-2.06-2.18
				c0.04-1.09,1.02-2.03,2.1-2.04C335.06,189.4,336.07,190.41,336.05,191.53z"/>
			<path fill="#7586AC" d="M333.97,216.23c-1.12,0.02-2.14-0.99-2.14-2.11c0-1.12,1.02-2.13,2.13-2.11
				c1.08,0.01,2.05,0.97,2.09,2.05C336.09,215.17,335.1,216.21,333.97,216.23z"/>
			<path fill="#7586AC" d="M333.92,196.94c1.12-0.01,2.13,1,2.13,2.11c0,1.12-1.02,2.12-2.14,2.11c-1.08-0.02-2.05-0.98-2.08-2.06
				C331.8,197.98,332.8,196.95,333.92,196.94z"/>
			<path fill="#7586AC" d="M336.05,176.45c-0.01,1.12-1.03,2.12-2.15,2.1c-1.12-0.02-2.11-1.06-2.08-2.17
				c0.04-1.08,1.01-2.04,2.09-2.05C335.04,174.32,336.06,175.33,336.05,176.45z"/>
			<path fill="#7586AC" d="M333.97,204.47c1.12,0.01,2.12,1.04,2.09,2.16c-0.03,1.12-1.08,2.11-2.19,2.06
				c-1.08-0.05-2.03-1.03-2.03-2.11C331.83,205.47,332.85,204.46,333.97,204.47z"/>
			<path fill="#7586AC" d="M336.05,221.64c0,1.12-1.01,2.13-2.13,2.12c-1.12-0.01-2.12-1.04-2.09-2.16c0.03-1.08,1-2.04,2.08-2.06
				C335.03,219.52,336.05,220.52,336.05,221.64z"/>
			<path fill="#7586AC" d="M336.05,184.01c-0.02,1.12-1.07,2.11-2.17,2.07c-1.12-0.04-2.1-1.1-2.05-2.2
				c0.06-1.08,1.05-2.03,2.12-2.02C335.08,181.87,336.08,182.9,336.05,184.01z"/>
			<path fill="#7586AC" d="M333.93,166.79c1.12-0.01,2.13,1.01,2.12,2.12c-0.01,1.12-1.03,2.12-2.15,2.1
				c-1.08-0.02-2.05-0.99-2.07-2.07C331.81,167.83,332.81,166.8,333.93,166.79z"/>
			<path fill="#7586AC" d="M336.05,229.22c-0.02,1.12-1.06,2.11-2.17,2.08c-1.12-0.04-2.1-1.09-2.05-2.2
				c0.05-1.08,1.04-2.03,2.12-2.02C335.07,227.08,336.08,228.1,336.05,229.22z"/>
			<path fill="#7586AC" d="M333.97,234.61c1.12,0.01,2.12,1.04,2.09,2.16c-0.03,1.12-1.08,2.11-2.19,2.06
				c-1.08-0.05-2.03-1.03-2.03-2.11C331.83,235.61,332.85,234.6,333.97,234.61z"/>
			<path fill="#7586AC" d="M331.83,153.75c0.05-1.12,1.12-2.09,2.22-2.02c1.12,0.07,2.08,1.15,1.99,2.24
				c-0.08,1.08-1.1,2.01-2.17,1.97C332.76,155.91,331.78,154.85,331.83,153.75z"/>
			<path fill="#7586AC" d="M333.92,144.19c1.04-0.02,2.1,1,2.14,2.05c0.03,1.08-1.04,2.18-2.13,2.16c-1.05-0.01-2.08-1.06-2.08-2.11
				C331.84,145.25,332.86,144.21,333.92,144.19z"/>
			<path fill="#7586AC" d="M336.05,138.79c-0.02,1.04-1.05,2.07-2.09,2.08c-0.99,0.01-1.96-0.89-1.94-1.78
				c0.02-1.47,0.85-2.47,2-2.42C335.05,136.7,336.06,137.76,336.05,138.79z"/>
			<path fill="#7586AC" d="M314.35,220.29c-0.11-1,0.63-4.16,1.15-4.95c0.99,0.06,1.67,0.64,1.99,1.53c0.36,0.98,0.3,1.98-0.5,2.81
				C316.23,220.47,315.35,220.62,314.35,220.29z"/>
			<path fill="#7586AC" d="M325.05,170.63c0.31-1.33,0.62-2.66,0.92-3.92c1.29-0.15,2.11,0.32,2.55,1.34
				c0.39,0.91,0.12,2.01-0.66,2.63C327,171.37,326.19,171.39,325.05,170.63z"/>
			<path fill="#7586AC" d="M337.7,155.67c1.2,0,1.95,0.77,1.94,1.97c-0.02,1.15-0.76,1.88-1.92,1.88c-1.2,0-1.95-0.77-1.94-1.97
				C335.8,156.41,336.55,155.68,337.7,155.67z"/>
			<path fill="#7586AC" d="M339.64,187.76c-0.01,1.15-0.74,1.9-1.89,1.91c-1.2,0.02-1.97-0.74-1.96-1.94
				c0.01-1.19,0.79-1.94,1.99-1.91C338.92,185.84,339.65,186.6,339.64,187.76z"/>
			<path fill="#7586AC" d="M337.71,200.89c1.2,0,1.95,0.77,1.93,1.98c-0.02,1.15-0.77,1.88-1.92,1.88c-1.2,0-1.95-0.77-1.93-1.98
				C335.8,201.62,336.55,200.89,337.71,200.89z"/>
			<path fill="#7586AC" d="M339.64,210.31c0.02,1.2-0.74,1.97-1.94,1.96c-1.15-0.01-1.9-0.74-1.91-1.89
				c-0.02-1.2,0.74-1.97,1.94-1.97C338.88,208.43,339.62,209.16,339.64,210.31z"/>
			<path fill="#7586AC" d="M339.64,127.42c0.02,1.2-0.74,1.97-1.94,1.96c-1.15-0.01-1.9-0.74-1.91-1.89
				c-0.02-1.2,0.74-1.97,1.94-1.97C338.88,125.54,339.62,126.27,339.64,127.42z"/>
			<path fill="#7586AC" d="M337.69,215.96c1.2-0.01,1.96,0.76,1.95,1.96c-0.01,1.15-0.75,1.89-1.91,1.89
				c-1.2,0.01-1.96-0.76-1.95-1.96C335.8,216.7,336.54,215.96,337.69,215.96z"/>
			<path fill="#7586AC" d="M337.73,227.35c-1.2,0.01-1.96-0.76-1.95-1.96c0.01-1.15,0.75-1.89,1.9-1.9c1.2-0.01,1.96,0.76,1.95,1.96
				C339.63,226.6,338.89,227.34,337.73,227.35z"/>
			<path fill="#7586AC" d="M339.64,172.72c-0.02,1.19-0.82,1.92-2.03,1.88c-1.14-0.04-1.85-0.81-1.83-1.97
				c0.02-1.19,0.82-1.92,2.03-1.88C338.95,170.79,339.66,171.55,339.64,172.72z"/>
			<path fill="#7586AC" d="M337.74,234.88c-1.2,0.01-1.97-0.75-1.96-1.95c0.01-1.15,0.75-1.89,1.9-1.9c1.2-0.01,1.97,0.75,1.96,1.95
				C339.63,234.13,338.89,234.87,337.74,234.88z"/>
			<path fill="#7586AC" d="M339.64,134.97c0.01,1.2-0.75,1.96-1.95,1.95c-1.15-0.01-1.89-0.75-1.9-1.9
				c-0.01-1.2,0.75-1.96,1.95-1.95C338.89,133.08,339.63,133.82,339.64,134.97z"/>
			<path fill="#7586AC" d="M339.64,142.58c-0.02,1.19-0.81,1.93-2.02,1.88c-1.14-0.04-1.85-0.81-1.83-1.97
				c0.02-1.19,0.81-1.93,2.02-1.88C338.94,140.64,339.66,141.41,339.64,142.58z"/>
			<path fill="#7586AC" d="M339.64,150.04c0.01,1.2-0.75,1.96-1.95,1.95c-1.15-0.01-1.89-0.75-1.9-1.9
				c-0.01-1.2,0.75-1.96,1.95-1.95C338.89,148.15,339.63,148.89,339.64,150.04z"/>
			<path fill="#7586AC" d="M339.64,165.18c-0.02,1.19-0.81,1.93-2.02,1.88c-1.14-0.04-1.85-0.81-1.83-1.97
				c0.02-1.19,0.81-1.93,2.02-1.88C338.94,163.25,339.66,164.02,339.64,165.18z"/>
			<path fill="#7586AC" d="M339.64,195.25c0.01,1.2-0.75,1.97-1.95,1.96c-1.15-0.01-1.89-0.75-1.9-1.9
				c-0.01-1.2,0.75-1.97,1.95-1.96C338.89,193.36,339.63,194.1,339.64,195.25z"/>
			<path fill="#7586AC" d="M339.64,180.18c0.01,1.2-0.75,1.96-1.95,1.95c-1.15-0.01-1.89-0.75-1.9-1.9
				c-0.01-1.2,0.75-1.96,1.95-1.95C338.89,178.29,339.63,179.03,339.64,180.18z"/>
			<path fill="#7586AC" d="M336.05,120.8c0.11-0.51,0.25-1.04,0.35-1.58c0.22-1.14,1.09-1.58,2.15-1.05
				c0.74,0.37,1.16,1.12,1.08,1.96c-0.07,0.75-0.65,1.46-1.38,1.66C337.36,122.04,336.68,121.75,336.05,120.8z"/>
			<path fill="#7586AC" d="M341.51,223.51c-0.86,0.02-1.83-0.89-1.89-1.78c-0.06-0.89,0.91-1.92,1.83-1.94
				c0.86-0.02,1.83,0.89,1.89,1.78C343.4,222.46,342.43,223.49,341.51,223.51z"/>
			<path fill="#7586AC" d="M339.62,123.72c-0.02-0.86,0.89-1.83,1.78-1.89c0.89-0.06,1.92,0.92,1.94,1.83
				c0.02,0.91-0.98,1.91-1.89,1.89C340.57,125.54,339.64,124.6,339.62,123.72z"/>
			<path fill="#7586AC" d="M341.4,208.44c-0.94-0.06-1.87-1.11-1.77-1.99c0.09-0.9,1.08-1.79,1.93-1.73
				c0.94,0.06,1.87,1.11,1.77,1.99C343.24,207.62,342.25,208.5,341.4,208.44z"/>
			<path fill="#7586AC" d="M343.34,229.27c-0.06,0.94-1.11,1.87-1.99,1.77c-0.9-0.09-1.79-1.08-1.73-1.93
				c0.06-0.94,1.11-1.87,1.99-1.77C342.51,227.43,343.4,228.41,343.34,229.27z"/>
			<path fill="#7586AC" d="M341.44,133.09c-0.92-0.03-1.88-1.07-1.82-1.96c0.07-0.89,1.04-1.8,1.9-1.77
				c0.92,0.03,1.88,1.07,1.82,1.96C343.27,132.22,342.3,133.12,341.44,133.09z"/>
			<path fill="#7586AC" d="M341.43,167.04c0.86-0.04,1.83,0.86,1.91,1.76c0.07,0.89-0.88,1.93-1.81,1.97
				c-0.9,0.04-1.91-0.95-1.91-1.86C339.62,168.03,340.54,167.08,341.43,167.04z"/>
			<path fill="#7586AC" d="M341.46,185.84c-0.92-0.01-1.9-1.04-1.85-1.93c0.05-0.89,1.01-1.8,1.88-1.79
				c0.92,0.01,1.9,1.04,1.85,1.93C343.29,184.93,342.33,185.85,341.46,185.84z"/>
			<path fill="#7586AC" d="M343.34,214.12c-0.01,0.92-1.03,1.9-1.92,1.85c-0.89-0.04-1.81-1-1.8-1.87c0.01-0.92,1.03-1.9,1.92-1.85
				C342.43,212.3,343.35,213.25,343.34,214.12z"/>
			<path fill="#7586AC" d="M343.34,191.52c-0.01,0.92-1.03,1.9-1.92,1.85c-0.89-0.04-1.81-1-1.8-1.87c0.01-0.92,1.03-1.9,1.92-1.85
				C342.43,189.69,343.35,190.65,343.34,191.52z"/>
			<path fill="#7586AC" d="M343.34,161.37c0,0.91-1.02,1.9-1.92,1.86c-0.89-0.04-1.81-0.99-1.81-1.86c0-0.91,1.02-1.9,1.92-1.86
				C342.42,159.55,343.34,160.5,343.34,161.37z"/>
			<path fill="#7586AC" d="M341.44,155.7c-0.92-0.03-1.89-1.06-1.82-1.95c0.06-0.89,1.04-1.8,1.9-1.77
				c0.92,0.03,1.89,1.06,1.82,1.95C343.28,154.81,342.3,155.72,341.44,155.7z"/>
			<path fill="#7586AC" d="M343.34,236.72c0,0.91-1.01,1.9-1.91,1.86c-0.89-0.04-1.81-0.99-1.81-1.86c0-0.92,1.01-1.9,1.91-1.86
				C342.42,234.9,343.34,235.85,343.34,236.72z"/>
			<path fill="#7586AC" d="M343.34,138.8c-0.02,0.92-1.06,1.89-1.95,1.83c-0.89-0.06-1.8-1.03-1.78-1.89
				c0.02-0.92,1.06-1.89,1.95-1.83C342.45,136.96,343.36,137.93,343.34,138.8z"/>
			<path fill="#7586AC" d="M341.48,200.91c-0.91,0-1.9-1.01-1.87-1.91c0.03-0.88,0.98-1.81,1.86-1.81c0.91,0,1.9,1.01,1.87,1.91
				C343.31,199.98,342.36,200.9,341.48,200.91z"/>
			<path fill="#7586AC" d="M343.34,176.48c-0.03,0.92-1.07,1.88-1.96,1.82c-0.89-0.07-1.8-1.04-1.77-1.9
				c0.03-0.92,1.07-1.88,1.96-1.82C342.47,174.65,343.37,175.62,343.34,176.48z"/>
			<path fill="#7586AC" d="M343.34,146.35c-0.04,0.93-1.07,1.88-1.97,1.81c-0.9-0.07-1.79-1.05-1.76-1.91
				c0.04-0.93,1.07-1.88,1.97-1.81C342.48,144.52,343.38,145.49,343.34,146.35z"/>
			<path fill="#7586AC" d="M318.39,201.44c0.02-0.28,0.01-0.53,0.06-0.76c0.29-1.3,0.6-2.61,0.89-3.89
				c1.25,0.09,2.15,1.22,2.05,2.45C321.28,200.58,319.76,201.92,318.39,201.44z"/>
			<path fill="#7586AC" d="M340.24,114.9c0.79,0,1.61,0,2.43,0c0.84,0.93,0.86,1.82,0.07,2.57c-0.69,0.65-1.75,0.68-2.47,0.05
				C339.48,116.84,339.46,115.93,340.24,114.9z"/>
			<path fill="#7586AC" d="M329.24,151.96c0.26-1.31,0.51-2.57,0.75-3.78c0.88-0.27,1.45-0.07,1.95,0.62c0.53,0.73,0.53,1.81,0,2.54
				C331.36,152.13,330.57,152.35,329.24,151.96z"/>
			<path fill="#7586AC" d="M346.94,119.95c-0.02,0.95-0.83,1.71-1.78,1.67c-0.91-0.05-1.63-0.81-1.61-1.72
				c0.02-0.95,0.83-1.71,1.78-1.67C346.24,118.28,346.96,119.05,346.94,119.95z"/>
			<path fill="#7586AC" d="M345.28,125.77c0.95,0.02,1.71,0.83,1.67,1.78c-0.05,0.91-0.81,1.63-1.72,1.61
				c-0.95-0.02-1.71-0.83-1.67-1.78C343.6,126.47,344.37,125.75,345.28,125.77z"/>
			<path fill="#7586AC" d="M346.94,180.18c0.02,0.95-0.76,1.74-1.72,1.73c-0.91-0.01-1.66-0.75-1.67-1.66
				c-0.02-0.95,0.76-1.74,1.72-1.73C346.18,178.52,346.92,179.26,346.94,180.18z"/>
			<path fill="#7586AC" d="M345.21,227.11c-0.95-0.02-1.71-0.84-1.66-1.78c0.05-0.91,0.82-1.63,1.73-1.61
				c0.95,0.02,1.71,0.84,1.66,1.78C346.89,226.42,346.12,227.13,345.21,227.11z"/>
			<path fill="#7586AC" d="M346.94,202.83c-0.01,0.95-0.82,1.72-1.76,1.68c-0.91-0.04-1.63-0.8-1.62-1.71
				c0.01-0.95,0.82-1.72,1.76-1.68C346.23,201.16,346.95,201.92,346.94,202.83z"/>
			<path fill="#7586AC" d="M346.94,150.07c0,0.95-0.81,1.72-1.75,1.69c-0.91-0.03-1.64-0.79-1.64-1.7c0-0.95,0.81-1.72,1.75-1.69
				C346.22,148.4,346.95,149.16,346.94,150.07z"/>
			<path fill="#7586AC" d="M345.21,189.44c-0.95-0.02-1.71-0.84-1.66-1.78c0.05-0.91,0.82-1.63,1.73-1.61
				c0.95,0.02,1.71,0.84,1.66,1.78C346.89,188.74,346.12,189.46,345.21,189.44z"/>
			<path fill="#7586AC" d="M346.94,142.56c-0.02,0.95-0.83,1.71-1.78,1.67c-0.91-0.05-1.63-0.81-1.61-1.72
				c0.02-0.95,0.83-1.71,1.78-1.67C346.24,140.88,346.96,141.65,346.94,142.56z"/>
			<path fill="#7586AC" d="M346.94,134.98c0.01,0.95-0.78,1.73-1.73,1.71c-0.91-0.02-1.65-0.77-1.66-1.68
				c-0.01-0.95,0.78-1.73,1.73-1.71C346.19,133.32,346.93,134.07,346.94,134.98z"/>
			<path fill="#7586AC" d="M346.94,172.72c-0.03,0.95-0.85,1.7-1.8,1.64c-0.91-0.06-1.62-0.84-1.59-1.74
				c0.03-0.95,0.85-1.7,1.8-1.64C346.26,171.04,346.97,171.81,346.94,172.72z"/>
			<path fill="#7586AC" d="M345.29,196.97c-0.95,0.02-1.74-0.75-1.74-1.7c0.01-0.91,0.74-1.66,1.65-1.69
				c0.95-0.02,1.74,0.75,1.74,1.7C346.94,196.2,346.2,196.95,345.29,196.97z"/>
			<path fill="#7586AC" d="M345.26,208.65c0.95,0.01,1.72,0.81,1.69,1.76c-0.03,0.91-0.79,1.64-1.7,1.63
				c-0.95-0.01-1.72-0.81-1.69-1.76C343.59,209.38,344.35,208.65,345.26,208.65z"/>
			<path fill="#7586AC" d="M346.94,165.13c0,0.95-0.79,1.73-1.74,1.7c-0.91-0.03-1.64-0.78-1.65-1.69c0-0.95,0.79-1.73,1.74-1.7
				C346.21,163.47,346.94,164.22,346.94,165.13z"/>
			<path fill="#7586AC" d="M343.55,232.87c0.05-0.95,0.89-1.68,1.83-1.61c0.91,0.08,1.61,0.87,1.56,1.77
				c-0.05,0.95-0.89,1.68-1.83,1.61C344.2,234.57,343.51,233.77,343.55,232.87z"/>
			<path fill="#7586AC" d="M346.94,217.85c0.02,0.95-0.76,1.74-1.72,1.73c-0.91-0.01-1.66-0.75-1.67-1.66
				c-0.02-0.95,0.76-1.74,1.72-1.73C346.18,216.2,346.92,216.94,346.94,217.85z"/>
			<path fill="#7586AC" d="M346.94,157.69c-0.05,0.95-0.89,1.68-1.83,1.61c-0.91-0.08-1.61-0.87-1.56-1.77
				c0.05-0.95,0.89-1.68,1.83-1.61C346.29,155.99,346.99,156.78,346.94,157.69z"/>
			<path fill="#7586AC" d="M349.02,129.73c0.88,0,1.51,0.65,1.49,1.54c-0.02,0.88-0.68,1.5-1.56,1.47
				c-0.84-0.03-1.43-0.64-1.44-1.48C347.5,130.36,348.14,129.72,349.02,129.73z"/>
			<path fill="#7586AC" d="M350.51,176.42c0.01,0.88-0.62,1.52-1.5,1.52c-0.88,0-1.51-0.65-1.49-1.53c0.02-0.84,0.61-1.44,1.45-1.47
				C349.84,174.92,350.5,175.55,350.51,176.42z"/>
			<path fill="#7586AC" d="M349.06,190.01c0.87,0.02,1.49,0.69,1.45,1.57c-0.04,0.87-0.72,1.48-1.6,1.43
				c-0.83-0.05-1.41-0.68-1.4-1.52C347.53,190.62,348.18,189.99,349.06,190.01z"/>
			<path fill="#7586AC" d="M349,152.34c0.88-0.01,1.52,0.63,1.51,1.51c-0.01,0.87-0.66,1.51-1.54,1.48
				c-0.84-0.02-1.44-0.62-1.46-1.46C347.5,152.99,348.13,152.34,349,152.34z"/>
			<path fill="#7586AC" d="M350.51,221.67c-0.01,0.87-0.67,1.5-1.55,1.47c-0.87-0.03-1.49-0.7-1.45-1.57
				c0.04-0.83,0.66-1.42,1.5-1.42C349.89,220.15,350.52,220.79,350.51,221.67z"/>
			<path fill="#7586AC" d="M350.51,214.09c0.01,0.88-0.62,1.52-1.5,1.52c-0.88,0-1.51-0.65-1.49-1.53c0.02-0.84,0.61-1.44,1.45-1.47
				C349.84,212.59,350.5,213.22,350.51,214.09z"/>
			<path fill="#7586AC" d="M349.01,162.87c-0.88,0-1.51-0.64-1.5-1.52c0.01-0.87,0.67-1.5,1.55-1.47c0.83,0.03,1.43,0.63,1.45,1.47
				C350.53,162.22,349.89,162.87,349.01,162.87z"/>
			<path fill="#7586AC" d="M348.99,170.4c-0.87-0.01-1.5-0.67-1.47-1.55c0.03-0.87,0.7-1.49,1.57-1.45c0.83,0.04,1.42,0.66,1.42,1.5
				C350.51,169.78,349.87,170.42,348.99,170.4z"/>
			<path fill="#7586AC" d="M349.05,208.08c-0.88,0.02-1.53-0.61-1.54-1.49c-0.01-0.88,0.63-1.52,1.51-1.51
				c0.84,0.01,1.45,0.6,1.48,1.43C350.55,207.39,349.93,208.06,349.05,208.08z"/>
			<path fill="#7586AC" d="M349,227.69c0.88-0.01,1.52,0.63,1.51,1.51c-0.01,0.87-0.66,1.51-1.54,1.49
				c-0.84-0.02-1.44-0.62-1.46-1.46C347.5,228.35,348.13,227.7,349,227.69z"/>
			<path fill="#7586AC" d="M350.51,146.28c0.01,0.88-0.63,1.52-1.51,1.52c-0.88,0-1.51-0.65-1.49-1.53
				c0.02-0.84,0.62-1.44,1.45-1.46C349.85,144.78,350.5,145.4,350.51,146.28z"/>
			<path fill="#7586AC" d="M350.51,138.71c0.03,0.87-0.6,1.54-1.47,1.55c-0.88,0.01-1.52-0.62-1.52-1.5c0-0.84,0.59-1.46,1.42-1.5
				C349.81,137.22,350.48,137.84,350.51,138.71z"/>
			<path fill="#7586AC" d="M350.51,199.08c-0.02,0.87-0.68,1.5-1.55,1.47c-0.87-0.03-1.49-0.71-1.44-1.58
				c0.04-0.83,0.66-1.42,1.5-1.42C349.89,197.55,350.53,198.2,350.51,199.08z"/>
			<path fill="#7586AC" d="M349,182.48c0.88-0.01,1.52,0.63,1.51,1.51c-0.01,0.87-0.66,1.51-1.54,1.48
				c-0.84-0.02-1.44-0.62-1.46-1.46C347.5,183.14,348.13,182.48,349,182.48z"/>
			<path fill="#7586AC" d="M348.96,235.22c0.87-0.03,1.54,0.6,1.55,1.47c0.01,0.88-0.62,1.52-1.5,1.52c-0.84,0-1.46-0.59-1.5-1.42
				C347.47,235.92,348.09,235.25,348.96,235.22z"/>
			<path fill="#7586AC" d="M334.18,129.27c1.34,0.3,2.03,1.26,1.78,2.34c-0.28,1.22-1.29,1.84-2.6,1.51
				C333.63,131.86,333.9,130.6,334.18,129.27z"/>
			<path fill="#7586AC" d="M323.62,178.13c1.11,0.54,1.59,1.57,1.31,2.69c-0.27,1.1-1.05,1.67-2.29,1.68
				C322.57,181.62,323.17,178.86,323.62,178.13z"/>
			<path fill="#7586AC" d="M354.08,150.08c-0.01,0.79-0.53,1.29-1.32,1.28c-0.79-0.01-1.29-0.53-1.28-1.32
				c0.01-0.79,0.53-1.29,1.32-1.28C353.59,148.77,354.09,149.29,354.08,150.08z"/>
			<path fill="#7586AC" d="M354.08,157.59c0.01,0.79-0.5,1.31-1.28,1.31c-0.79,0.01-1.31-0.5-1.31-1.28
				c-0.01-0.78,0.5-1.31,1.28-1.31C353.55,156.3,354.07,156.8,354.08,157.59z"/>
			<path fill="#7586AC" d="M354.08,195.29c-0.01,0.73-0.6,1.3-1.34,1.28c-0.69-0.02-1.23-0.56-1.25-1.26
				c-0.02-0.74,0.55-1.32,1.28-1.33C353.51,193.98,354.08,194.56,354.08,195.29z"/>
			<path fill="#7586AC" d="M352.75,166.43c-0.73-0.02-1.29-0.61-1.26-1.35c0.03-0.69,0.58-1.23,1.27-1.24
				c0.74-0.01,1.32,0.56,1.31,1.3C354.07,165.88,353.49,166.45,352.75,166.43z"/>
			<path fill="#7586AC" d="M352.83,211.64c-0.74,0.03-1.33-0.54-1.34-1.27c-0.01-0.74,0.56-1.32,1.3-1.32
				c0.69,0,1.25,0.53,1.29,1.22C354.11,211.01,353.56,211.62,352.83,211.64z"/>
			<path fill="#7586AC" d="M352.8,178.91c0.73,0.01,1.3,0.6,1.27,1.34c-0.02,0.69-0.57,1.23-1.26,1.25
				c-0.74,0.02-1.32-0.55-1.32-1.29C351.49,179.48,352.07,178.9,352.8,178.91z"/>
			<path fill="#7586AC" d="M354.08,225.4c0.01,0.74-0.56,1.32-1.3,1.32c-0.74,0-1.3-0.59-1.29-1.32c0.01-0.69,0.55-1.24,1.25-1.26
				C353.47,224.1,354.06,224.66,354.08,225.4z"/>
			<path fill="#7586AC" d="M354.08,172.7c-0.01,0.73-0.61,1.29-1.35,1.27c-0.73-0.03-1.28-0.64-1.24-1.37
				c0.04-0.69,0.6-1.22,1.29-1.22C353.52,171.38,354.09,171.96,354.08,172.7z"/>
			<path fill="#7586AC" d="M354.08,217.9c-0.01,0.73-0.6,1.3-1.34,1.28c-0.69-0.02-1.23-0.57-1.25-1.26
				c-0.02-0.74,0.55-1.32,1.29-1.33C353.51,216.59,354.09,217.16,354.08,217.9z"/>
			<path fill="#7586AC" d="M354.08,202.79c0.01,0.74-0.56,1.32-1.3,1.32c-0.74,0-1.3-0.59-1.29-1.32c0.01-0.69,0.55-1.24,1.25-1.26
				C353.47,201.49,354.06,202.06,354.08,202.79z"/>
			<path fill="#7586AC" d="M352.83,231.66c0.73,0.02,1.29,0.63,1.25,1.36c-0.03,0.69-0.59,1.22-1.29,1.22
				c-0.74,0-1.31-0.57-1.3-1.31C351.5,232.2,352.09,231.64,352.83,231.66z"/>
			<path fill="#7586AC" d="M352.76,186.45c0.74-0.01,1.32,0.56,1.32,1.3c0,0.74-0.59,1.3-1.32,1.29c-0.69-0.01-1.24-0.55-1.26-1.25
				C351.46,187.05,352.03,186.46,352.76,186.45z"/>
			<path fill="#7586AC" d="M326.65,163.63c0.31-1.46,0.58-2.76,0.88-4.14c0.91,0.45,1.19,1.17,1.18,2
				C328.7,162.49,328.01,163.21,326.65,163.63z"/>
			<path fill="#7586AC" d="M315.86,212.5c0.29-1.29,0.58-2.58,0.9-4.01c0.86,0.71,1.01,1.5,0.85,2.33
				c-0.16,0.84-0.57,1.56-1.46,1.81C316.06,212.58,315.96,212.54,315.86,212.5z"/>
			<path fill="#7586AC" d="M357.63,176.48c-0.02,0.65-0.49,1.08-1.15,1.04c-0.61-0.03-1.01-0.45-1.02-1.07c0-0.66,0.44-1.1,1.1-1.09
				C357.22,175.36,357.66,175.82,357.63,176.48z"/>
			<path fill="#7586AC" d="M357.63,183.99c-0.01,0.66-0.46,1.09-1.12,1.07c-0.65-0.02-1.08-0.48-1.05-1.15
				c0.03-0.61,0.45-1.01,1.07-1.02C357.2,182.88,357.64,183.32,357.63,183.99z"/>
			<path fill="#7586AC" d="M356.6,192.59c-0.66,0.03-1.12-0.4-1.13-1.06c-0.01-0.66,0.42-1.11,1.08-1.11c0.62,0,1.05,0.39,1.08,1.01
				C357.67,192.09,357.25,192.57,356.6,192.59z"/>
			<path fill="#7586AC" d="M357.63,206.55c0.01,0.66-0.42,1.11-1.08,1.11c-0.66,0-1.1-0.44-1.08-1.11c0.01-0.62,0.42-1.03,1.03-1.06
				C357.16,205.47,357.62,205.9,357.63,206.55z"/>
			<path fill="#7586AC" d="M357.63,221.67c-0.01,0.66-0.46,1.09-1.13,1.07c-0.62-0.02-1.03-0.43-1.04-1.05
				c-0.02-0.66,0.42-1.11,1.07-1.12C357.2,220.56,357.64,221,357.63,221.67z"/>
			<path fill="#7586AC" d="M356.59,197.96c0.65,0.02,1.08,0.48,1.05,1.15c-0.03,0.65-0.51,1.07-1.17,1.02c-0.61-0.04-1-0.47-1-1.09
				C355.47,198.38,355.92,197.94,356.59,197.96z"/>
			<path fill="#7586AC" d="M357.64,168.91c-0.01,0.67-0.45,1.1-1.12,1.08c-0.62-0.02-1.03-0.42-1.05-1.05
				c-0.02-0.67,0.4-1.12,1.07-1.13C357.21,167.81,357.64,168.24,357.64,168.91z"/>
			<path fill="#7586AC" d="M357.63,229.22c-0.02,0.65-0.48,1.08-1.15,1.05c-0.65-0.03-1.07-0.51-1.02-1.17c0.04-0.61,0.47-1,1.09-1
				C357.22,228.11,357.65,228.56,357.63,229.22z"/>
			<path fill="#7586AC" d="M357.63,236.74c-0.01,0.66-0.46,1.09-1.13,1.07c-0.62-0.02-1.03-0.43-1.04-1.05
				c-0.02-0.66,0.42-1.11,1.07-1.12C357.2,235.63,357.64,236.07,357.63,236.74z"/>
			<path fill="#7586AC" d="M357.63,214.06c0.03,0.66-0.4,1.12-1.06,1.13c-0.66,0.01-1.11-0.42-1.11-1.08c0-0.62,0.39-1.05,1.01-1.08
				C357.13,212.99,357.61,213.41,357.63,214.06z"/>
			<path fill="#7586AC" d="M348.76,122.24c0.18,0.98,0.35,1.87,0.52,2.76c-0.94,0.23-1.5-0.05-1.72-0.76
				C347.26,123.29,347.64,122.59,348.76,122.24z"/>
			<path fill="#7586AC" d="M352.75,141.33c0.16,0.77,0.33,1.56,0.5,2.34c-0.63,0.43-1.08,0.17-1.47-0.18
				c-0.39-0.35-0.48-1.03-0.25-1.54C351.74,141.47,351.95,141.35,352.75,141.33z"/>
			<path fill="#7586AC" d="M356.71,160.21c0.17,0.75,0.31,1.4,0.45,2.04c-0.5,0.45-0.98,0.36-1.32-0.03
				c-0.24-0.27-0.44-0.73-0.4-1.07C355.51,160.56,355.97,160.23,356.71,160.21z"/>
			<path fill="#7586AC" d="M331.02,144.36c-0.05-1.16,0.32-2.15,0.64-3.25C332.73,142.32,332.44,143.74,331.02,144.36z"/>
			<path fill="#7586AC" d="M320.88,239c0.96-1.19,2.61-1.18,3.51,0C323.22,239,322.11,239,320.88,239z"/>
			<path fill="#7586AC" d="M360.29,196.11c-0.45-0.02-0.86-0.48-0.81-0.92c0.04-0.41,0.46-0.77,0.86-0.76
				c0.45,0.02,0.86,0.48,0.81,0.92C361.11,195.76,360.69,196.13,360.29,196.11z"/>
			<path fill="#7586AC" d="M361.16,187.72c0.01,0.45-0.41,0.87-0.85,0.86c-0.4,0-0.8-0.37-0.84-0.78c-0.04-0.44,0.36-0.89,0.8-0.91
				C360.72,186.87,361.15,187.28,361.16,187.72z"/>
			<path fill="#7586AC" d="M361.15,202.8c0.01,0.41-0.36,0.82-0.77,0.85c-0.44,0.04-0.9-0.37-0.91-0.82
				c-0.01-0.4,0.36-0.82,0.77-0.85C360.69,201.93,361.14,202.35,361.15,202.8z"/>
			<path fill="#7586AC" d="M361.15,217.92c-0.02,0.45-0.49,0.85-0.93,0.79c-0.41-0.05-0.77-0.47-0.74-0.87
				c0.02-0.45,0.49-0.85,0.93-0.79C360.82,217.1,361.18,217.52,361.15,217.92z"/>
			<path fill="#7586AC" d="M360.29,209.51c0.4-0.02,0.82,0.35,0.86,0.76c0.05,0.44-0.36,0.9-0.81,0.92
				c-0.4,0.02-0.82-0.35-0.86-0.76C359.43,209.99,359.84,209.53,360.29,209.51z"/>
			<path fill="#7586AC" d="M361.15,232.99c-0.02,0.45-0.49,0.85-0.93,0.79c-0.41-0.05-0.77-0.47-0.74-0.87
				c0.02-0.45,0.49-0.85,0.93-0.79C360.82,232.17,361.18,232.59,361.15,232.99z"/>
			<path fill="#7586AC" d="M360.34,224.58c0.45,0.01,0.86,0.47,0.82,0.91c-0.04,0.41-0.45,0.78-0.86,0.77
				c-0.45-0.01-0.86-0.47-0.82-0.91C359.52,224.94,359.93,224.57,360.34,224.58z"/>
			<path fill="#7586AC" d="M360.87,180.89c-0.43,0.28-0.89,0.32-1.2-0.09c-0.17-0.23-0.22-0.66-0.14-0.95
				c0.12-0.48,0.54-0.57,1.05-0.44C360.87,179.83,361.13,180.29,360.87,180.89z"/>
			<path fill="#7586AC" d="M320.06,193.36c0.24-1.04,0.47-2.08,0.74-3.24C321.67,191.53,321.46,192.59,320.06,193.36z"/>
			<path fill="#7586AC" d="M328.79,238.94c0.98-0.82,1.83-0.82,2.68-0.06C330.76,239.13,329.96,239.15,328.79,238.94z"/>
			<path fill="#7586AC" d="M335.72,122.91c0.44,0.81,0.32,1.51-0.42,2.22C335.06,124.23,335.51,123.59,335.72,122.91z"/>
			<path fill="#7586AC" d="M336.72,239.01c0.68-0.58,1.35-0.54,2.01,0C338.06,239.01,337.39,239.01,336.72,239.01z"/>
			<path fill="#7586AC" d="M364.69,229.35c-0.18,0.09-0.37,0.26-0.53,0.24c-0.18-0.03-0.38-0.22-0.47-0.39
				c-0.04-0.07,0.2-0.4,0.32-0.4c0.18-0.01,0.37,0.17,0.55,0.27C364.61,229.16,364.65,229.25,364.69,229.35z"/>
			<path fill="#7586AC" d="M364.19,198.47c0.14,0.3,0.3,0.49,0.28,0.67c-0.01,0.12-0.36,0.34-0.42,0.3c-0.17-0.1-0.33-0.31-0.36-0.5
				C363.68,198.84,363.94,198.7,364.19,198.47z"/>
			<path fill="#7586AC" d="M364.69,221.81c-0.18,0.09-0.37,0.26-0.53,0.24c-0.18-0.03-0.39-0.22-0.47-0.39
				c-0.04-0.07,0.2-0.4,0.32-0.4c0.18-0.01,0.37,0.17,0.55,0.27C364.61,221.62,364.65,221.72,364.69,221.81z"/>
			<path fill="#7586AC" d="M364.67,214.17c-0.28,0.16-0.46,0.34-0.64,0.34c-0.12,0-0.37-0.32-0.34-0.39
				c0.08-0.17,0.28-0.36,0.46-0.4C364.25,213.7,364.42,213.94,364.67,214.17z"/>
			<path fill="#7586AC" d="M364.19,206c0.14,0.3,0.3,0.49,0.28,0.67c-0.01,0.12-0.36,0.34-0.42,0.3c-0.17-0.1-0.33-0.31-0.36-0.5
				C363.68,206.37,363.94,206.23,364.19,206z"/>
			<path fill="#7586AC" d="M364.27,236.08c0.08,0.19,0.24,0.39,0.21,0.56c-0.03,0.18-0.21,0.39-0.38,0.48
				c-0.07,0.04-0.4-0.2-0.41-0.32c-0.01-0.18,0.16-0.37,0.26-0.56C364.06,236.19,364.16,236.13,364.27,236.08z"/>
			<path fill="#7586AC" d="M325.02,172.3c-0.07,0.47-0.14,0.95-0.21,1.42c-0.11-0.02-0.21-0.03-0.32-0.05
				c0.08-0.46,0.15-0.93,0.23-1.39C324.82,172.29,324.92,172.3,325.02,172.3z"/>
			<path fill="#7586AC" d="M345.62,238.98c-0.23,0.02-0.47,0.04-0.7,0.05c0-0.05-0.01-0.1-0.01-0.15c0.23,0,0.46,0,0.69,0
				C345.61,238.91,345.61,238.95,345.62,238.98z"/>
			<path fill="#7586AC" d="M367.86,225.28c0.04,0.04,0.08,0.08,0.13,0.12c-0.06,0.05-0.13,0.1-0.19,0.15
				c-0.03-0.06-0.08-0.12-0.07-0.17C367.73,225.35,367.81,225.32,367.86,225.28z"/>
			<path fill="#7586AC" d="M367.86,217.75c0.04,0.04,0.08,0.08,0.13,0.12c-0.06,0.05-0.13,0.1-0.19,0.15
				c-0.03-0.06-0.08-0.12-0.07-0.17C367.73,217.81,367.81,217.78,367.86,217.75z"/>
			<path fill="#7586AC" d="M367.99,232.99c-0.05,0.03-0.1,0.07-0.14,0.1c-0.04-0.07-0.07-0.14-0.11-0.21
				c0.06-0.02,0.13-0.07,0.17-0.05C367.95,232.84,367.97,232.93,367.99,232.99z"/>
		</g>
		<g>
			<path fill="#7586AC" d="M346.04,87.23c-0.12-0.68-0.24-1.35-0.38-2.11c-0.46,0-1.02,0-1.71,0c0.34-2.02,0.45-3.94-0.25-5.79
				c-0.72-1.91-1.98-3.41-3.61-4.62c-1.59-1.18-3.48-1.56-5.41-1.82c0.02-0.1,0.05-0.2,0.07-0.31c0.86,0,1.73-0.07,2.59,0.02
				c1.72,0.18,3.41,0.46,4.99,1.3c2.39,1.28,3.91,3.24,4.61,5.77c0.75,2.73,1.27,5.53,1.88,8.3c0.02,0.09-0.03,0.2-0.06,0.32
				c-0.63,0.4-1.2-0.08-1.79-0.13C346.66,87.85,346.35,87.54,346.04,87.23z M344.93,78.42c-0.07,0.01-0.15,0.01-0.22,0.02
				c0.03,0.11,0.05,0.23,0.08,0.34c0.05-0.01,0.09-0.02,0.14-0.02C344.93,78.65,344.93,78.54,344.93,78.42z"/>
			<path fill="#7586AC" d="M346.04,87.23c0.31,0.31,0.62,0.62,0.93,0.93c0.1,0.61,0.35,1.24,0.26,1.81
				c-0.3,1.82-1.82,2.58-3.95,1.99c0.41,1.11,0.41,2.13-0.3,3.05c-0.31,0.4-0.68,0.66-1.3,0.84c0.07-1.58,0.55-2.95,0.83-4.34
				c0.28-1.39,0.6-2.77,0.91-4.18c0.54-0.43,1.15-0.55,1.83-0.32C345.5,87.09,345.77,87.15,346.04,87.23z"/>
			<path fill="#7586AC" d="M344.63,94.8c1.21,0,2.35,1.18,2.31,2.37c-0.04,1.17-1.16,2.26-2.32,2.26c-1.2,0-2.35-1.18-2.31-2.37
				C342.34,95.88,343.46,94.79,344.63,94.8z"/>
			<path fill="#7586AC" d="M349.63,91.65c0.19,0.93,0.39,1.91,0.58,2.8c-0.95,1.11-2.16,1.32-3.11,0.62
				c-0.93-0.69-1.15-2.04-0.47-2.99C347.32,91.13,348.45,90.94,349.63,91.65z"/>
			<path fill="#7586AC" d="M340.84,110.34c-1.19,0-1.93-0.77-1.92-1.97c0.01-1.18,0.79-1.92,1.99-1.89
				c1.14,0.03,1.86,0.77,1.87,1.91C342.79,109.59,342.03,110.35,340.84,110.34z"/>
			<path fill="#7586AC" d="M340.94,98.57c1.19,0.09,1.8,0.68,2.12,1.52c0.33,0.87,0.16,1.7-0.51,2.4c-0.69,0.72-1.5,0.92-2.58,0.53
				C340.29,101.55,340.61,100.1,340.94,98.57z"/>
			<path fill="#7586AC" d="M346.35,104.6c0.02,1.13-0.59,1.77-1.71,1.77c-1.13,0.01-1.75-0.61-1.75-1.74c0-1.08,0.59-1.69,1.66-1.72
				C345.68,102.89,346.33,103.49,346.35,104.6z"/>
			<path fill="#7586AC" d="M348.37,102.39c-0.94-0.01-1.49-0.56-1.49-1.5c0-0.94,0.54-1.51,1.48-1.52c0.98-0.02,1.57,0.57,1.55,1.55
				C349.88,101.85,349.31,102.4,348.37,102.39z"/>
			<path fill="#7586AC" d="M344.71,111.1c0.64,0.04,1.05,0.54,1,1.2c-0.06,0.64-0.56,1.04-1.22,0.97c-0.6-0.07-0.98-0.52-0.95-1.14
				C343.57,111.47,344.05,111.05,344.71,111.1z"/>
			<path fill="#7586AC" d="M338.42,110.71c1.09,1.52,0.75,2.75-0.81,3.31C337.77,112.91,337.89,111.83,338.42,110.71z"/>
			<path fill="#7586AC" d="M348.36,107.58c0.4-0.01,0.82,0.35,0.86,0.76c0.05,0.44-0.36,0.9-0.81,0.91
				c-0.4,0.01-0.82-0.35-0.86-0.76C347.5,108.05,347.91,107.59,348.36,107.58z"/>
			<path fill="#7586AC" d="M339.63,115.05c1.05-0.79,1.46-0.79,2.35-0.04C341.21,115.26,340.51,115.19,339.63,115.05z"/>
			<path fill="#7586AC" d="M352.3,104.05c0.09,0.36,0.17,0.7,0.26,1.05c-0.57,0.29-0.91,0.12-1-0.36
				C351.47,104.29,351.75,104.06,352.3,104.05z"/>
			<path fill="#7586AC" d="M352.29,112.19c-0.04,0.04-0.08,0.08-0.12,0.13c-0.05-0.06-0.1-0.13-0.15-0.19
				c0.06-0.03,0.12-0.08,0.17-0.07C352.23,112.06,352.25,112.14,352.29,112.19z"/>
		</g>
		<g>
			<path fill="#7586AC" d="M262.77,74.94c-0.01,1.19-1.1,2.27-2.28,2.28c-1.22,0.01-2.36-1.16-2.3-2.36
				c0.05-1.2,1.16-2.26,2.33-2.22C261.72,72.66,262.78,73.76,262.77,74.94z"/>
			<path fill="#7586AC" d="M194.95,74.93c-0.01,1.19-1.09,2.27-2.28,2.28c-1.22,0.01-2.36-1.15-2.31-2.35
				c0.05-1.2,1.15-2.26,2.33-2.23C193.89,72.66,194.96,73.75,194.95,74.93z"/>
			<path fill="#7586AC" d="M285.37,74.95c-0.02,1.19-1.1,2.27-2.29,2.27c-1.22,0-2.36-1.17-2.3-2.37c0.06-1.2,1.17-2.26,2.34-2.22
				C284.33,72.67,285.39,73.76,285.37,74.95z"/>
			<path fill="#7586AC" d="M200.2,72.63c1.19,0.01,2.27,1.09,2.28,2.28c0.01,1.22-1.15,2.36-2.35,2.31
				c-1.2-0.05-2.26-1.15-2.23-2.33C197.93,73.69,199.02,72.62,200.2,72.63z"/>
			<path fill="#7586AC" d="M270.3,74.89c0.03,1.18-1.03,2.28-2.23,2.33c-1.2,0.05-2.37-1.09-2.36-2.31
				c0.01-1.19,1.09-2.27,2.28-2.28C269.18,72.62,270.27,73.69,270.3,74.89z"/>
			<path fill="#7586AC" d="M210.02,74.97c-0.04,1.2-1.13,2.26-2.31,2.25c-1.23-0.02-2.35-1.2-2.27-2.39
				c0.08-1.21,1.2-2.25,2.36-2.19C209,72.69,210.06,73.8,210.02,74.97z"/>
			<path fill="#7586AC" d="M275.58,77.22c-1.18,0.03-2.28-1.03-2.33-2.23c-0.05-1.2,1.09-2.37,2.31-2.36
				c1.19,0.01,2.27,1.09,2.28,2.28C277.85,76.1,276.78,77.19,275.58,77.22z"/>
			<path fill="#7586AC" d="M217.56,74.96c-0.03,1.19-1.11,2.27-2.3,2.26c-1.22-0.01-2.35-1.18-2.29-2.38
				c0.07-1.2,1.19-2.25,2.35-2.21C216.52,72.68,217.58,73.78,217.56,74.96z"/>
			<path fill="#7586AC" d="M290.6,77.22c-1.19-0.01-2.27-1.09-2.28-2.28c-0.01-1.22,1.15-2.36,2.36-2.31
				c1.2,0.05,2.26,1.16,2.23,2.33C292.88,76.16,291.79,77.23,290.6,77.22z"/>
			<path fill="#7586AC" d="M225.09,74.97c-0.04,1.2-1.13,2.26-2.31,2.25c-1.23-0.02-2.35-1.19-2.27-2.39
				c0.08-1.21,1.2-2.25,2.36-2.2C224.07,72.69,225.13,73.8,225.09,74.97z"/>
			<path fill="#7586AC" d="M300.44,74.91c0.01,1.18-1.05,2.28-2.25,2.31c-1.22,0.03-2.36-1.11-2.33-2.33
				c0.03-1.2,1.12-2.26,2.3-2.26C299.35,72.64,300.43,73.72,300.44,74.91z"/>
			<path fill="#7586AC" d="M232.63,74.91c0.01,1.18-1.06,2.27-2.26,2.3c-1.22,0.03-2.36-1.12-2.33-2.33
				c0.03-1.2,1.12-2.26,2.31-2.25C231.54,72.64,232.62,73.73,232.63,74.91z"/>
			<path fill="#7586AC" d="M307.98,74.96c-0.03,1.2-1.12,2.26-2.3,2.26c-1.22-0.01-2.35-1.18-2.28-2.38c0.07-1.2,1.19-2.25,2.35-2.2
				C306.95,72.68,308.01,73.78,307.98,74.96z"/>
			<path fill="#7586AC" d="M240.16,74.97c-0.04,1.2-1.13,2.26-2.32,2.24c-1.23-0.02-2.35-1.2-2.27-2.39
				c0.08-1.21,1.2-2.25,2.37-2.19C239.15,72.69,240.2,73.81,240.16,74.97z"/>
			<path fill="#7586AC" d="M330.59,74.88c0.04,1.17-1.02,2.28-2.22,2.34c-1.2,0.06-2.37-1.08-2.36-2.3
				c0.01-1.18,1.08-2.27,2.27-2.29C329.46,72.62,330.55,73.68,330.59,74.88z"/>
			<path fill="#7586AC" d="M245.4,77.22c-1.18,0-2.27-1.08-2.29-2.27c-0.02-1.21,1.14-2.36,2.35-2.32c1.2,0.04,2.26,1.14,2.24,2.32
				C247.68,76.14,246.59,77.22,245.4,77.22z"/>
			<path fill="#7586AC" d="M315.51,74.92c0,1.18-1.07,2.27-2.26,2.3c-1.21,0.02-2.36-1.13-2.32-2.34c0.04-1.2,1.13-2.26,2.31-2.24
				C314.43,72.65,315.51,73.73,315.51,74.92z"/>
			<path fill="#7586AC" d="M252.97,72.63c1.19,0.03,2.27,1.11,2.26,2.3c-0.01,1.22-1.18,2.35-2.38,2.29
				c-1.2-0.07-2.25-1.19-2.21-2.35C250.69,73.66,251.79,72.61,252.97,72.63z"/>
			<path fill="#7586AC" d="M320.76,72.63c1.18,0,2.27,1.08,2.29,2.27c0.02,1.22-1.15,2.36-2.35,2.31c-1.2-0.05-2.26-1.15-2.23-2.32
				C318.49,73.7,319.58,72.63,320.76,72.63z"/>
			<path fill="#7586AC" d="M335.86,72.78c1.36,0.01,2.29,0.92,2.25,2.19c-0.04,1.2-1.14,2.27-2.32,2.24
				c-1.2-0.03-2.27-1.12-2.25-2.31C333.56,73.6,334.47,72.77,335.86,72.78z"/>
			<path fill="#7586AC" d="M187.41,74.81c0.04,1.25-1.01,2.35-2.22,2.4c-1.16,0.05-2.35-1.02-2.32-2.2
				c0.01-0.32,0.25-0.75,0.52-0.92c0.58-0.37,1.22-0.65,1.87-0.89c1.06-0.39,1.61-0.1,1.98,0.97
				C187.32,74.4,187.36,74.64,187.41,74.81z"/>
			<path fill="#7586AC" d="M188.89,80.8c-1.13,0-2.13-1.01-2.12-2.14c0.01-1.12,1.05-2.12,2.16-2.09c1.09,0.03,2.05,1,2.06,2.08
				C191.02,79.79,190.02,80.8,188.89,80.8z"/>
			<path fill="#7586AC" d="M198.54,78.74c-0.03,1.13-1.07,2.11-2.18,2.07c-1.12-0.04-2.1-1.1-2.04-2.21
				c0.06-1.09,1.05-2.03,2.13-2.02C197.57,76.59,198.57,77.62,198.54,78.74z"/>
			<path fill="#7586AC" d="M206.07,78.7c-0.01,1.12-1.03,2.13-2.15,2.1c-1.12-0.02-2.12-1.06-2.08-2.17
				c0.04-1.09,1.01-2.04,2.1-2.05C205.07,76.57,206.08,77.58,206.07,78.7z"/>
			<path fill="#7586AC" d="M211.53,80.8c-1.12,0.02-2.14-0.98-2.14-2.11c0-1.13,1.01-2.13,2.13-2.12c1.09,0.01,2.06,0.97,2.09,2.06
				C213.65,79.75,212.65,80.79,211.53,80.8z"/>
			<path fill="#7586AC" d="M219.05,80.8c-1.12,0.01-2.14-1-2.13-2.12c0.01-1.12,1.03-2.13,2.15-2.1c1.09,0.02,2.05,0.98,2.08,2.07
				C221.17,79.77,220.17,80.79,219.05,80.8z"/>
			<path fill="#7586AC" d="M228.68,78.7c-0.01,1.12-1.03,2.13-2.15,2.1c-1.12-0.02-2.12-1.06-2.08-2.17
				c0.04-1.09,1.01-2.04,2.1-2.05C227.68,76.57,228.69,77.58,228.68,78.7z"/>
			<path fill="#7586AC" d="M234.07,80.8c-1.12-0.02-2.12-1.05-2.08-2.17c0.03-1.12,1.09-2.11,2.19-2.06
				c1.09,0.05,2.03,1.03,2.03,2.12C236.21,79.82,235.2,80.82,234.07,80.8z"/>
			<path fill="#7586AC" d="M241.59,76.58c1.12-0.03,2.15,0.97,2.16,2.09c0.01,1.12-0.99,2.14-2.12,2.13c-1.08,0-2.06-0.95-2.11-2.04
				C239.48,77.65,240.47,76.61,241.59,76.58z"/>
			<path fill="#7586AC" d="M249.13,76.58c1.12-0.03,2.15,0.97,2.16,2.09c0.01,1.12-0.99,2.14-2.12,2.13c-1.08,0-2.06-0.95-2.11-2.04
				C247.01,77.65,248,76.61,249.13,76.58z"/>
			<path fill="#7586AC" d="M256.72,80.8c-1.12,0.01-2.13-1.01-2.12-2.13c0.01-1.08,0.97-2.06,2.05-2.1
				c1.11-0.04,2.15,0.96,2.17,2.08C258.84,79.78,257.84,80.8,256.72,80.8z"/>
			<path fill="#7586AC" d="M281.43,78.64c0.03,1.12-0.97,2.15-2.09,2.16c-1.12,0.01-2.14-0.99-2.13-2.12c0-1.08,0.95-2.06,2.04-2.11
				C280.35,76.53,281.4,77.52,281.43,78.64z"/>
			<path fill="#7586AC" d="M304.03,78.74c-0.03,1.13-1.07,2.11-2.18,2.07c-1.12-0.04-2.1-1.1-2.04-2.21
				c0.06-1.09,1.05-2.03,2.13-2.02C303.06,76.59,304.06,77.62,304.03,78.74z"/>
			<path fill="#7586AC" d="M264.21,80.8c-1.12-0.02-2.12-1.06-2.08-2.17c0.04-1.12,1.09-2.11,2.2-2.05
				c1.09,0.05,2.03,1.04,2.03,2.12C266.35,79.82,265.33,80.83,264.21,80.8z"/>
			<path fill="#7586AC" d="M286.85,80.8c-1.13,0-2.13-1.01-2.12-2.13c0.01-1.13,1.04-2.12,2.16-2.09c1.09,0.03,2.05,1,2.07,2.08
				C288.98,79.78,287.98,80.8,286.85,80.8z"/>
			<path fill="#7586AC" d="M271.79,76.58c1.12,0.01,2.13,1.03,2.1,2.15c-0.02,1.12-1.06,2.12-2.17,2.08
				c-1.09-0.04-2.04-1.01-2.05-2.1C269.65,77.58,270.66,76.57,271.79,76.58z"/>
			<path fill="#7586AC" d="M319.1,78.68c0.01,1.13-1,2.13-2.13,2.12c-1.12-0.01-2.12-1.04-2.1-2.15c0.02-1.09,0.99-2.05,2.08-2.07
				C318.07,76.55,319.1,77.56,319.1,78.68z"/>
			<path fill="#7586AC" d="M296.5,78.7c-0.01,1.12-1.03,2.13-2.15,2.1c-1.12-0.02-2.12-1.06-2.08-2.17c0.04-1.09,1.01-2.04,2.1-2.05
				C295.49,76.57,296.5,77.57,296.5,78.7z"/>
			<path fill="#7586AC" d="M326.64,78.74c-0.03,1.12-1.08,2.11-2.19,2.06c-1.12-0.05-2.1-1.11-2.03-2.22
				c0.06-1.09,1.06-2.03,2.14-2.01C325.67,76.59,326.67,77.63,326.64,78.74z"/>
			<path fill="#7586AC" d="M311.57,78.78c-0.05,1.12-1.12,2.09-2.22,2.03c-1.13-0.07-2.08-1.15-2-2.25c0.08-1.09,1.1-2.01,2.17-1.98
				C310.64,76.62,311.62,77.67,311.57,78.78z"/>
			<path fill="#7586AC" d="M334.17,78.71c-0.01,1.12-1.04,2.12-2.15,2.1c-1.12-0.03-2.11-1.07-2.07-2.18
				c0.04-1.09,1.02-2.04,2.1-2.05C333.17,76.57,334.18,77.58,334.17,78.71z"/>
			<path fill="#7586AC" d="M341.71,78.7c-0.01,1.12-1.03,2.13-2.15,2.1c-1.12-0.02-2.12-1.06-2.08-2.17
				c0.04-1.09,1.01-2.04,2.1-2.05C340.7,76.57,341.71,77.57,341.71,78.7z"/>
			<path fill="#7586AC" d="M181.61,80.8c-1.04,0-1.84-0.52-2.15-1.24c-0.01-0.03-0.03-0.06-0.04-0.1c-0.23-0.64,0.64-2.41,1.34-2.75
				c0.73-0.35,1.87,0.06,2.35,0.85c0.59,0.98,0.4,2.21-0.49,2.79C182.25,80.59,181.81,80.71,181.61,80.8z"/>
			<path fill="#7586AC" d="M185.17,84.37c-1.02,0.03-1.96-0.89-1.95-1.91c0-0.98,0.88-1.88,1.86-1.9c1.02-0.03,1.96,0.89,1.95,1.91
				C187.03,83.45,186.15,84.34,185.17,84.37z"/>
			<path fill="#7586AC" d="M194.57,82.41c0.03,1.02-0.89,1.96-1.91,1.96c-0.98,0-1.88-0.88-1.9-1.86c-0.03-1.02,0.89-1.96,1.91-1.96
				C193.65,80.55,194.54,81.43,194.57,82.41z"/>
			<path fill="#7586AC" d="M202.1,82.47c0,1.02-0.95,1.94-1.97,1.9c-0.98-0.03-1.85-0.93-1.85-1.91c0-1.02,0.95-1.94,1.97-1.9
				C201.24,80.58,202.11,81.48,202.1,82.47z"/>
			<path fill="#7586AC" d="M209.64,82.41c0.03,1.02-0.89,1.96-1.91,1.95c-0.98,0-1.88-0.88-1.9-1.86c-0.03-1.02,0.89-1.96,1.91-1.95
				C208.72,80.55,209.61,81.43,209.64,82.41z"/>
			<path fill="#7586AC" d="M217.17,82.41c0.03,1.02-0.89,1.96-1.91,1.96c-0.98,0-1.88-0.88-1.9-1.86c-0.03-1.02,0.89-1.96,1.91-1.96
				C216.25,80.55,217.15,81.43,217.17,82.41z"/>
			<path fill="#7586AC" d="M222.8,84.37c-0.98,0-1.88-0.87-1.91-1.85c-0.03-1.02,0.88-1.96,1.9-1.96c1.02,0,1.94,0.93,1.91,1.96
				C224.68,83.49,223.79,84.36,222.8,84.37z"/>
			<path fill="#7586AC" d="M232.24,82.47c0,1.02-0.95,1.94-1.97,1.9c-0.98-0.03-1.85-0.93-1.85-1.91c0-1.02,0.95-1.94,1.97-1.9
				C231.38,80.58,232.25,81.48,232.24,82.47z"/>
			<path fill="#7586AC" d="M239.78,82.49c-0.02,1.02-0.97,1.93-1.99,1.88c-0.98-0.05-1.84-0.96-1.83-1.94
				c0.02-1.03,0.97-1.93,1.99-1.88C238.94,80.6,239.79,81.51,239.78,82.49z"/>
			<path fill="#7586AC" d="M245.37,80.55c1.02-0.02,1.95,0.9,1.94,1.93c-0.01,0.98-0.89,1.87-1.88,1.89
				c-1.02,0.02-1.95-0.9-1.94-1.93C243.51,81.46,244.39,80.57,245.37,80.55z"/>
			<path fill="#7586AC" d="M254.85,82.51c-0.03,1.03-1,1.92-2.01,1.86c-0.98-0.06-1.83-0.98-1.81-1.96
				c0.03-1.03,0.99-1.92,2.01-1.86C254.03,80.61,254.88,81.53,254.85,82.51z"/>
			<path fill="#7586AC" d="M262.38,82.44c0.01,1.02-0.92,1.95-1.94,1.92c-0.98-0.02-1.86-0.91-1.87-1.89
				c-0.01-1.02,0.92-1.95,1.94-1.92C261.5,80.57,262.37,81.46,262.38,82.44z"/>
			<path fill="#7586AC" d="M267.98,80.55c1.02-0.02,1.95,0.9,1.94,1.93c-0.01,0.98-0.89,1.87-1.87,1.89
				c-1.02,0.02-1.95-0.9-1.94-1.93C266.11,81.46,266.99,80.57,267.98,80.55z"/>
			<path fill="#7586AC" d="M277.45,82.49c-0.02,1.03-0.98,1.92-2,1.87c-0.98-0.05-1.84-0.97-1.82-1.94c0.02-1.03,0.98-1.92,2-1.87
				C276.62,80.6,277.47,81.52,277.45,82.49z"/>
			<path fill="#7586AC" d="M284.99,82.49c-0.02,1.03-0.98,1.92-2,1.87c-0.98-0.05-1.84-0.97-1.82-1.94c0.02-1.03,0.98-1.92,2-1.87
				C284.15,80.6,285.01,81.52,284.99,82.49z"/>
			<path fill="#7586AC" d="M292.52,82.49c-0.02,1.03-0.98,1.92-2,1.87c-0.98-0.05-1.84-0.97-1.82-1.94c0.02-1.03,0.98-1.92,2-1.87
				C291.69,80.6,292.54,81.52,292.52,82.49z"/>
			<path fill="#7586AC" d="M300.06,82.44c0.01,1.02-0.92,1.95-1.94,1.93c-0.98-0.02-1.86-0.91-1.87-1.89
				c-0.01-1.02,0.92-1.95,1.94-1.93C299.17,80.57,300.05,81.46,300.06,82.44z"/>
			<path fill="#7586AC" d="M307.59,82.51c-0.03,1.03-0.99,1.92-2.01,1.86c-0.98-0.06-1.83-0.98-1.81-1.96
				c0.03-1.03,0.99-1.92,2.01-1.86C306.77,80.61,307.62,81.53,307.59,82.51z"/>
			<path fill="#7586AC" d="M313.25,80.55c1.02,0.01,1.93,0.97,1.88,1.98c-0.04,0.98-0.95,1.85-1.93,1.83
				c-1.03-0.01-1.93-0.97-1.88-1.98C311.36,81.4,312.27,80.54,313.25,80.55z"/>
			<path fill="#7586AC" d="M320.79,80.55c1.02,0.02,1.93,0.97,1.88,1.99c-0.05,0.98-0.96,1.84-1.94,1.83
				c-1.03-0.02-1.93-0.97-1.88-1.99C318.9,81.39,319.81,80.53,320.79,80.55z"/>
			<path fill="#7586AC" d="M330.2,82.5c-0.02,1.03-0.99,1.92-2,1.87c-0.98-0.05-1.84-0.97-1.81-1.95c0.02-1.03,0.99-1.92,2-1.87
				C329.37,80.61,330.22,81.52,330.2,82.5z"/>
			<path fill="#7586AC" d="M335.8,80.55c1.02-0.02,1.95,0.9,1.94,1.93c-0.01,0.98-0.89,1.87-1.88,1.89
				c-1.02,0.02-1.95-0.9-1.94-1.93C333.93,81.46,334.81,80.57,335.8,80.55z"/>
			<path fill="#7586AC" d="M344.5,80.98c0,0.96,0,1.94,0,2.84c-0.95,0.71-1.71,0.69-2.43,0.01c-0.72-0.68-0.82-1.67-0.25-2.46
				C342.43,80.54,343.27,80.37,344.5,80.98z"/>
			<path fill="#7586AC" d="M243.34,86.25c-0.01,0.95-0.82,1.72-1.77,1.68c-0.91-0.04-1.64-0.81-1.63-1.72
				c0.01-0.95,0.82-1.72,1.77-1.68C242.62,84.57,243.35,85.33,243.34,86.25z"/>
			<path fill="#7586AC" d="M211.5,84.53c0.95,0,1.73,0.8,1.69,1.76c-0.03,0.91-0.79,1.64-1.7,1.64c-0.95,0-1.73-0.8-1.69-1.76
				C209.83,85.26,210.59,84.53,211.5,84.53z"/>
			<path fill="#7586AC" d="M219.04,87.92c-0.95,0-1.73-0.79-1.71-1.74c0.03-0.91,0.78-1.65,1.69-1.65c0.95,0,1.73,0.79,1.71,1.74
				C220.71,87.19,219.95,87.92,219.04,87.92z"/>
			<path fill="#7586AC" d="M226.57,84.53c0.95,0,1.73,0.8,1.69,1.76c-0.03,0.91-0.79,1.64-1.7,1.64c-0.95,0-1.73-0.8-1.69-1.76
				C224.9,85.26,225.66,84.53,226.57,84.53z"/>
			<path fill="#7586AC" d="M234.15,84.53c0.95,0.02,1.71,0.84,1.65,1.79c-0.05,0.91-0.83,1.63-1.74,1.6
				c-0.95-0.02-1.71-0.84-1.65-1.79C232.46,85.22,233.23,84.5,234.15,84.53z"/>
			<path fill="#7586AC" d="M281.01,86.18c0.03,0.91-0.69,1.69-1.6,1.74c-0.95,0.06-1.77-0.7-1.8-1.65
				c-0.03-0.95,0.75-1.75,1.71-1.74C280.23,84.53,280.99,85.27,281.01,86.18z"/>
			<path fill="#7586AC" d="M249.22,84.53c0.95,0.03,1.71,0.85,1.65,1.8c-0.06,0.91-0.83,1.62-1.75,1.6
				c-0.95-0.03-1.71-0.85-1.65-1.8C247.53,85.21,248.31,84.5,249.22,84.53z"/>
			<path fill="#7586AC" d="M258.41,86.23c0,0.95-0.8,1.73-1.75,1.7c-0.91-0.03-1.64-0.79-1.64-1.7c0-0.95,0.8-1.73,1.75-1.7
				C257.68,84.56,258.41,85.32,258.41,86.23z"/>
			<path fill="#7586AC" d="M264.21,84.53c0.95-0.02,1.74,0.76,1.73,1.72c-0.01,0.91-0.75,1.66-1.66,1.68
				c-0.95,0.02-1.74-0.76-1.73-1.72C262.55,85.29,263.29,84.55,264.21,84.53z"/>
			<path fill="#7586AC" d="M271.81,87.92c-0.95,0.02-1.74-0.77-1.73-1.72c0.01-0.91,0.76-1.66,1.67-1.67
				c0.95-0.02,1.74,0.77,1.73,1.72C273.46,87.17,272.72,87.91,271.81,87.92z"/>
			<path fill="#7586AC" d="M181.34,87.92c-0.95-0.01-1.72-0.82-1.68-1.77c0.04-0.91,0.8-1.64,1.72-1.63
				c0.95,0.01,1.72,0.82,1.68,1.77C183.02,87.21,182.25,87.93,181.34,87.92z"/>
			<path fill="#7586AC" d="M188.87,87.92c-0.95-0.01-1.72-0.82-1.68-1.77c0.04-0.91,0.8-1.64,1.72-1.63
				c0.95,0.01,1.72,0.82,1.68,1.77C190.55,87.21,189.79,87.93,188.87,87.92z"/>
			<path fill="#7586AC" d="M285.15,86.14c0.05-0.95,0.89-1.69,1.83-1.61c0.91,0.08,1.61,0.87,1.56,1.78
				c-0.05,0.95-0.89,1.69-1.83,1.61C285.8,87.84,285.1,87.05,285.15,86.14z"/>
			<path fill="#7586AC" d="M294.43,87.92c-0.95,0.03-1.75-0.75-1.75-1.7c0-0.91,0.74-1.67,1.65-1.69c0.95-0.03,1.75,0.75,1.75,1.7
				C296.08,87.14,295.35,87.9,294.43,87.92z"/>
			<path fill="#7586AC" d="M301.93,87.92c-0.95,0.01-1.73-0.79-1.71-1.74c0.02-0.91,0.77-1.65,1.69-1.66
				c0.95-0.01,1.73,0.79,1.71,1.74C303.59,87.18,302.84,87.92,301.93,87.92z"/>
			<path fill="#7586AC" d="M309.4,84.53c0.95-0.03,1.75,0.75,1.75,1.7c0,0.91-0.73,1.67-1.65,1.7c-0.95,0.03-1.75-0.75-1.75-1.7
				C307.76,85.31,308.49,84.56,309.4,84.53z"/>
			<path fill="#7586AC" d="M318.69,86.22c0,0.91-0.73,1.67-1.64,1.7c-0.95,0.03-1.75-0.74-1.75-1.69c0-0.95,0.79-1.73,1.75-1.7
				C317.95,84.56,318.69,85.31,318.69,86.22z"/>
			<path fill="#7586AC" d="M326.22,86.22c0,0.91-0.73,1.67-1.64,1.7c-0.95,0.03-1.75-0.74-1.75-1.69c0-0.95,0.79-1.73,1.75-1.7
				C325.49,84.56,326.22,85.31,326.22,86.22z"/>
			<path fill="#7586AC" d="M333.76,86.26c-0.02,0.95-0.84,1.71-1.79,1.66c-0.91-0.05-1.63-0.82-1.61-1.73
				c0.02-0.95,0.84-1.71,1.79-1.66C333.06,84.58,333.78,85.35,333.76,86.26z"/>
			<path fill="#7586AC" d="M339.62,84.53c0.95,0.01,1.72,0.82,1.67,1.77c-0.04,0.91-0.81,1.64-1.72,1.62
				c-0.96-0.01-1.72-0.82-1.67-1.77C337.94,85.24,338.71,84.51,339.62,84.53z"/>
			<path fill="#7586AC" d="M198.12,86.25c-0.01,0.95-0.82,1.72-1.77,1.67c-0.91-0.04-1.64-0.81-1.62-1.72
				c0.01-0.96,0.82-1.72,1.77-1.67C197.42,84.57,198.14,85.34,198.12,86.25z"/>
			<path fill="#7586AC" d="M205.66,86.26c-0.02,0.95-0.84,1.71-1.79,1.66c-0.91-0.05-1.63-0.82-1.61-1.73
				c0.02-0.95,0.84-1.71,1.79-1.66C204.96,84.58,205.68,85.35,205.66,86.26z"/>
			<path fill="#7586AC" d="M261.94,90.01c-0.01,0.74-0.77,1.48-1.5,1.45c-0.74-0.02-1.47-0.81-1.43-1.53
				c0.04-0.7,0.75-1.39,1.45-1.4C261.19,88.52,261.95,89.27,261.94,90.01z"/>
			<path fill="#7586AC" d="M192.64,88.53c0.73-0.01,1.49,0.73,1.48,1.47c0,0.74-0.76,1.48-1.5,1.46c-0.7-0.02-1.4-0.72-1.43-1.42
				C191.17,89.31,191.9,88.54,192.64,88.53z"/>
			<path fill="#7586AC" d="M185.11,91.46c-0.74-0.01-1.48-0.77-1.45-1.5c0.02-0.74,0.81-1.47,1.53-1.43c0.7,0.04,1.39,0.75,1.4,1.45
				C186.6,90.71,185.84,91.47,185.11,91.46z"/>
			<path fill="#7586AC" d="M200.22,91.46c-0.73,0.02-1.49-0.72-1.49-1.46c0-0.74,0.75-1.48,1.48-1.47c0.7,0.01,1.41,0.71,1.44,1.41
				C201.69,90.66,200.96,91.44,200.22,91.46z"/>
			<path fill="#7586AC" d="M207.76,91.46c-0.73,0.02-1.49-0.72-1.49-1.46c0-0.74,0.75-1.48,1.48-1.47c0.7,0.01,1.41,0.71,1.44,1.41
				C209.23,90.66,208.5,91.44,207.76,91.46z"/>
			<path fill="#7586AC" d="M215.24,88.53c0.73-0.01,1.49,0.73,1.48,1.47c0,0.74-0.76,1.48-1.5,1.46c-0.7-0.02-1.4-0.72-1.43-1.42
				C213.77,89.31,214.51,88.54,215.24,88.53z"/>
			<path fill="#7586AC" d="M224.26,90.01c-0.01,0.74-0.77,1.48-1.5,1.45c-0.74-0.02-1.47-0.81-1.43-1.53
				c0.04-0.7,0.75-1.39,1.45-1.4C223.52,88.52,224.27,89.27,224.26,90.01z"/>
			<path fill="#7586AC" d="M230.33,91.46c-0.74,0-1.48-0.76-1.46-1.49c0.02-0.74,0.79-1.47,1.52-1.44c0.7,0.03,1.4,0.74,1.41,1.44
				C231.82,90.7,231.07,91.46,230.33,91.46z"/>
			<path fill="#7586AC" d="M237.85,88.53c0.73-0.01,1.49,0.73,1.48,1.47c0,0.74-0.76,1.48-1.5,1.46c-0.7-0.02-1.4-0.72-1.43-1.42
				C236.38,89.31,237.11,88.54,237.85,88.53z"/>
			<path fill="#7586AC" d="M245.45,88.53c0.74,0.03,1.47,0.81,1.42,1.53c-0.04,0.74-0.84,1.45-1.56,1.4
				c-0.7-0.06-1.38-0.79-1.37-1.48C243.95,89.24,244.72,88.5,245.45,88.53z"/>
			<path fill="#7586AC" d="M254.4,90.01c-0.01,0.74-0.77,1.48-1.5,1.45c-0.74-0.03-1.47-0.81-1.42-1.53c0.04-0.7,0.76-1.39,1.45-1.4
				C253.66,88.52,254.41,89.28,254.4,90.01z"/>
			<path fill="#7586AC" d="M268.02,88.53c0.74,0,1.48,0.76,1.46,1.49c-0.02,0.74-0.8,1.47-1.52,1.43c-0.7-0.04-1.39-0.75-1.41-1.44
				C266.53,89.28,267.28,88.53,268.02,88.53z"/>
			<path fill="#7586AC" d="M275.51,91.46c-0.74-0.02-1.47-0.81-1.43-1.53c0.04-0.74,0.84-1.46,1.55-1.4
				c0.7,0.06,1.38,0.78,1.37,1.47C277,90.74,276.24,91.48,275.51,91.46z"/>
			<path fill="#7586AC" d="M283.13,88.53c0.74,0.03,1.46,0.82,1.41,1.54c-0.05,0.74-0.85,1.45-1.56,1.39
				c-0.7-0.06-1.38-0.8-1.36-1.48C281.63,89.23,282.4,88.5,283.13,88.53z"/>
			<path fill="#7586AC" d="M290.61,91.46c-0.74-0.01-1.48-0.77-1.45-1.5c0.02-0.74,0.81-1.47,1.53-1.43c0.7,0.04,1.39,0.75,1.4,1.45
				C292.09,90.71,291.34,91.47,290.61,91.46z"/>
			<path fill="#7586AC" d="M299.62,90.01c-0.01,0.74-0.77,1.48-1.5,1.45c-0.74-0.02-1.47-0.81-1.43-1.53
				c0.04-0.7,0.75-1.39,1.45-1.4C298.87,88.52,299.62,89.27,299.62,90.01z"/>
			<path fill="#7586AC" d="M305.7,91.46c-0.73,0.01-1.48-0.75-1.47-1.48c0.01-0.74,0.77-1.48,1.5-1.45c0.7,0.03,1.4,0.73,1.42,1.43
				C307.17,90.69,306.44,91.45,305.7,91.46z"/>
			<path fill="#7586AC" d="M314.69,89.97c0.01,0.73-0.73,1.49-1.47,1.48c-0.74,0-1.48-0.76-1.46-1.49c0.02-0.7,0.72-1.4,1.42-1.43
				C313.9,88.5,314.67,89.23,314.69,89.97z"/>
			<path fill="#7586AC" d="M320.73,91.46c-0.74-0.02-1.47-0.79-1.44-1.52c0.03-0.74,0.83-1.46,1.54-1.41
				c0.7,0.05,1.39,0.77,1.39,1.46C322.22,90.73,321.46,91.47,320.73,91.46z"/>
			<path fill="#7586AC" d="M328.28,91.46c-0.74-0.01-1.48-0.77-1.45-1.5c0.03-0.74,0.81-1.47,1.53-1.42c0.7,0.04,1.39,0.76,1.4,1.45
				C329.76,90.72,329.01,91.47,328.28,91.46z"/>
			<path fill="#7586AC" d="M335.86,88.53c0.74,0.02,1.47,0.81,1.43,1.53c-0.04,0.74-0.84,1.46-1.55,1.4
				c-0.7-0.06-1.38-0.78-1.37-1.47C334.37,89.24,335.13,88.51,335.86,88.53z"/>
			<path fill="#7586AC" d="M177.32,88.53c0.92,0.03,1.44,0.41,1.67,1.16c0.15,0.5-0.1,1.12-0.57,1.45c-0.58,0.41-1.15,0.42-1.75-0.1
				C176.68,90.19,176.74,89.32,177.32,88.53z"/>
			<path fill="#7586AC" d="M343.31,88.64c0.15,0.89-0.26,1.68-0.39,2.51c-0.69-0.19-1.05-0.62-1.02-1.2
				C341.93,89.26,342.4,88.81,343.31,88.64z"/>
			<path fill="#7586AC" d="M178.68,81.14c1.23,1,0.99,2.33-0.42,2.94C178.01,83.06,178.64,82.21,178.68,81.14z"/>
			<path fill="#7586AC" d="M202.33,72.62c1.14,0,2.13,0,3.15,0C204.86,73.78,203.35,73.82,202.33,72.62z"/>
			<path fill="#7586AC" d="M213.1,72.7c-1.01,1.06-2.09,1.07-3.13,0.13C210.5,72.51,211.76,72.45,213.1,72.7z"/>
			<path fill="#7586AC" d="M217.45,72.65c1.07,0,2.08,0,3.11,0C219.86,73.8,218.36,73.82,217.45,72.65z"/>
			<path fill="#7586AC" d="M224.88,72.64c1.18,0,2.19,0,3.26,0C227.32,73.77,226.06,73.81,224.88,72.64z"/>
			<path fill="#7586AC" d="M232.55,72.6c1.06-0.05,2.06-0.06,3.17,0.01C234.76,73.82,233.25,73.79,232.55,72.6z"/>
			<path fill="#7586AC" d="M240.06,72.65c1.07,0,2.08,0,3.11,0C242.46,73.8,240.97,73.82,240.06,72.65z"/>
			<path fill="#7586AC" d="M247.55,72.62c1.14,0,2.13,0,3.15,0C250.06,73.79,248.55,73.82,247.55,72.62z"/>
			<path fill="#7586AC" d="M255.13,72.65c1.07,0,2.08,0,3.11,0C257.55,73.79,256.05,73.82,255.13,72.65z"/>
			<path fill="#7586AC" d="M265.86,72.59c-0.89,1.18-2.14,1.21-3.28,0.06C263.73,72.5,264.74,72.58,265.86,72.59z"/>
			<path fill="#7586AC" d="M277.69,72.62c1.14,0,2.13,0,3.15,0C280.2,73.79,278.69,73.82,277.69,72.62z"/>
			<path fill="#7586AC" d="M288.36,72.71c-0.75,1.06-2.01,1.1-3.04,0.09C285.95,72.51,287.33,72.47,288.36,72.71z"/>
			<path fill="#7586AC" d="M296.06,72.61c-1.1,1.19-2.35,1.18-3.3,0C293.87,72.55,294.88,72.55,296.06,72.61z"/>
			<path fill="#7586AC" d="M300.3,72.62c1.14,0,2.13,0,3.15,0C302.8,73.79,301.3,73.82,300.3,72.62z"/>
			<path fill="#7586AC" d="M311.12,72.6c-1.05,1.19-2.31,1.19-3.3,0.02C308.93,72.54,309.94,72.56,311.12,72.6z"/>
			<path fill="#7586AC" d="M318.63,72.65c-1.08,1.15-2.33,1.13-3.23,0C316.48,72.65,317.49,72.65,318.63,72.65z"/>
			<path fill="#7586AC" d="M326.16,72.6c-0.97,1.19-2.22,1.21-3.28,0.05C324.01,72.51,325.03,72.57,326.16,72.6z"/>
			<path fill="#7586AC" d="M333.75,72.64c-1.19,1.17-2.45,1.13-3.26,0C331.56,72.64,332.56,72.64,333.75,72.64z"/>
			<path fill="#7586AC" d="M273.38,72.7c-1.01,1.06-2.09,1.07-3.13,0.13C270.78,72.51,272.04,72.45,273.38,72.7z"/>
			<path fill="#7586AC" d="M198.14,72.56c-1.13,1.24-2.39,1.22-3.29,0.11C195.91,72.46,196.92,72.62,198.14,72.56z"/>
			<path fill="#7586AC" d="M187.5,72.94c0.99-0.59,1.95-0.31,2.97-0.35C189.76,73.67,188.69,73.79,187.5,72.94z"/>
			<path fill="#7586AC" d="M341.39,75.28c0.53,0.56,0.95,1,1.53,1.61C341.76,76.61,341.53,76.36,341.39,75.28z"/>
			<path fill="#7586AC" d="M181.54,92.69c-0.12,0-0.24,0-0.36,0c-0.01-0.03-0.01-0.07-0.02-0.1c0.12-0.03,0.25-0.05,0.37-0.08
				C181.54,92.57,181.54,92.63,181.54,92.69z"/>
			<path fill="#7586AC" d="M189.11,92.67c-0.13,0.01-0.27,0.03-0.4,0.04c-0.01-0.05-0.01-0.09-0.02-0.14
				c0.13-0.02,0.27-0.04,0.4-0.07C189.1,92.57,189.1,92.62,189.11,92.67z"/>
			<path fill="#7586AC" d="M196.24,92.53c0.12,0,0.24,0,0.36,0c0.01,0.03,0.01,0.07,0.02,0.1c-0.12,0.03-0.25,0.05-0.37,0.08
				C196.24,92.65,196.24,92.59,196.24,92.53z"/>
			<path fill="#7586AC" d="M204.14,92.7c-0.12,0-0.24,0-0.36,0c-0.01-0.04-0.01-0.07-0.02-0.11c0.13-0.03,0.25-0.05,0.38-0.08
				C204.15,92.57,204.15,92.63,204.14,92.7z"/>
			<path fill="#7586AC" d="M211.68,92.69c-0.12,0-0.24,0-0.36,0c-0.01-0.03-0.01-0.07-0.02-0.1c0.12-0.03,0.25-0.05,0.37-0.08
				C211.68,92.57,211.68,92.63,211.68,92.69z"/>
			<path fill="#7586AC" d="M218.82,92.55c0.14,0,0.28,0,0.41,0c0,0.04,0,0.07,0,0.11c-0.14,0.01-0.27,0.02-0.41,0.03
				C218.82,92.64,218.82,92.59,218.82,92.55z"/>
			<path fill="#7586AC" d="M226.35,92.55c0.14,0,0.28,0,0.41,0c0,0.04,0,0.07,0,0.11c-0.14,0.01-0.27,0.02-0.41,0.03
				C226.36,92.64,226.35,92.59,226.35,92.55z"/>
			<path fill="#7586AC" d="M234.32,92.67c-0.14,0-0.28,0-0.41,0c0-0.04,0-0.07,0-0.11c0.14-0.01,0.27-0.02,0.41-0.03
				C234.31,92.58,234.32,92.63,234.32,92.67z"/>
			<path fill="#7586AC" d="M241.42,92.56c0.13-0.02,0.26-0.04,0.39-0.06c0.01,0.05,0.02,0.09,0.02,0.14
				c-0.13,0.02-0.26,0.05-0.39,0.07C241.44,92.66,241.43,92.61,241.42,92.56z"/>
			<path fill="#7586AC" d="M249.39,92.67c-0.13,0.02-0.26,0.04-0.39,0.06c-0.01-0.05-0.02-0.09-0.02-0.14
				c0.13-0.02,0.26-0.05,0.39-0.07C249.38,92.56,249.38,92.61,249.39,92.67z"/>
			<path fill="#7586AC" d="M256.93,92.67c-0.13,0.02-0.26,0.04-0.39,0.06c-0.01-0.05-0.02-0.09-0.02-0.14
				c0.13-0.02,0.26-0.05,0.39-0.07C256.91,92.56,256.92,92.61,256.93,92.67z"/>
			<path fill="#7586AC" d="M264.42,92.7c-0.12,0-0.24,0-0.36,0c-0.01-0.04-0.01-0.07-0.02-0.11c0.13-0.03,0.25-0.05,0.38-0.08
				C264.43,92.57,264.43,92.63,264.42,92.7z"/>
			<path fill="#7586AC" d="M271.97,92.69c-0.12,0-0.24,0-0.36,0c-0.01-0.03-0.01-0.07-0.02-0.1c0.12-0.03,0.25-0.05,0.37-0.08
				C271.96,92.57,271.96,92.63,271.97,92.69z"/>
			<path fill="#7586AC" d="M279.1,92.55c0.14,0,0.28,0,0.41,0c0,0.04,0,0.07,0,0.11c-0.14,0.01-0.27,0.02-0.41,0.03
				C279.1,92.64,279.1,92.59,279.1,92.55z"/>
			<path fill="#7586AC" d="M286.67,92.53c0.12,0,0.24,0,0.36,0c0.01,0.04,0.01,0.07,0.02,0.11c-0.13,0.03-0.25,0.05-0.38,0.08
				C286.66,92.65,286.66,92.59,286.67,92.53z"/>
			<path fill="#7586AC" d="M294.17,92.55c0.13-0.01,0.27-0.03,0.4-0.04c0.01,0.05,0.01,0.09,0.02,0.14
				c-0.13,0.02-0.27,0.04-0.4,0.07C294.18,92.65,294.17,92.6,294.17,92.55z"/>
			<path fill="#7586AC" d="M301.7,92.55c0.14,0,0.28,0,0.41,0c0,0.04,0,0.07,0,0.11c-0.14,0.01-0.27,0.02-0.41,0.03
				C301.71,92.64,301.71,92.59,301.7,92.55z"/>
			<path fill="#7586AC" d="M309.67,92.67c-0.14,0-0.28,0-0.41,0c0-0.04,0-0.07,0-0.11c0.14-0.01,0.27-0.02,0.41-0.03
				C309.67,92.58,309.67,92.63,309.67,92.67z"/>
			<path fill="#7586AC" d="M316.77,92.56c0.13-0.02,0.26-0.04,0.39-0.06c0.01,0.05,0.02,0.09,0.02,0.14
				c-0.13,0.02-0.26,0.05-0.39,0.07C316.79,92.66,316.78,92.61,316.77,92.56z"/>
			<path fill="#7586AC" d="M324.31,92.55c0.14,0,0.28,0,0.41,0c0,0.04,0,0.07,0,0.11c-0.14,0.01-0.27,0.02-0.41,0.03
				C324.31,92.64,324.31,92.59,324.31,92.55z"/>
			<path fill="#7586AC" d="M331.87,92.53c0.12,0,0.24,0,0.36,0c0.01,0.03,0.01,0.07,0.02,0.1c-0.12,0.03-0.25,0.05-0.37,0.08
				C331.87,92.65,331.87,92.59,331.87,92.53z"/>
			<path fill="#7586AC" d="M339.78,92.69c-0.12,0-0.24,0-0.36,0c-0.01-0.03-0.01-0.07-0.02-0.1c0.12-0.03,0.25-0.05,0.37-0.08
				C339.78,92.57,339.78,92.63,339.78,92.69z"/>
		</g>
	</g>
	<g id="lines">
		
			<path fill="none" stroke="#6981A8" stroke-width="4.5" stroke-linecap="round" stroke-linejoin="round" stroke-miterlimit="10" d="
			M337.3,114.71l6.67-30.31c1.33-6.06-3.28-11.79-9.48-11.79h-2.28h-15.45H306.3h-15.45h-10.46h-15.45h-10.47h-15.45h-10.47h-15.45
			h-10.46h-14.31c-0.38,0-0.77,0.03-1.14,0.07c-4.06,0.48-7.44,3.47-8.34,7.55l-7.59,34.48l-24.68,112.16
			c-1.33,6.05,3.28,11.79,9.48,11.79h146.17c4.56,0,8.5-3.17,9.48-7.62l25.6-116.3"/>
		
			<path fill="none" stroke="#6981A8" stroke-width="4.5" stroke-linecap="round" stroke-linejoin="round" stroke-miterlimit="10" d="
			M302.22,238.66h18.38h12.52h13.81h14.24h8.38c1.13,0,2.21-0.19,3.2-0.54c4.48-1.56,7.36-6.3,6.28-11.25l-24.68-112.16l-7.59-34.48
			c-0.98-4.46-4.93-7.62-9.48-7.62h-2.79"/>
		
			<polyline fill="none" stroke="#6981A8" stroke-width="4.5" stroke-linecap="round" stroke-linejoin="round" stroke-miterlimit="10" points="
			171.26,114.71 337.3,114.71 338.17,114.71 339.05,114.71 341.62,114.71 346.83,114.71 354.35,114.71 		"/>
		
			<line fill="none" stroke="#6981A8" stroke-width="4.5" stroke-linecap="round" stroke-linejoin="round" stroke-miterlimit="10" x1="372.75" y1="238.12" x2="346.83" y2="114.71"/>
		
			<line fill="none" stroke="#6981A8" stroke-width="4.5" stroke-linecap="round" stroke-linejoin="round" stroke-miterlimit="10" x1="361.17" y1="238.66" x2="341.62" y2="114.71"/>
		
			<line fill="none" stroke="#6981A8" stroke-width="4.5" stroke-linecap="round" stroke-linejoin="round" stroke-miterlimit="10" x1="346.93" y1="238.66" x2="339.05" y2="114.71"/>
		
			<line fill="none" stroke="#6981A8" stroke-width="4.5" stroke-linecap="round" stroke-linejoin="round" stroke-miterlimit="10" x1="333.12" y1="238.66" x2="338.17" y2="114.71"/>
		
			<polyline fill="none" stroke="#6981A8" stroke-width="4.5" stroke-linecap="round" stroke-linejoin="round" stroke-miterlimit="10" points="
			320.6,238.66 337.3,114.74 337.3,114.71 		"/>
		
			<path fill="none" stroke="#6981A8" stroke-width="4.5" stroke-linecap="round" stroke-linejoin="round" stroke-miterlimit="10" d="
			M332.22,72.61c-0.42-8.61-3.72-15.32-7.73-15.32c-4.01,0-7.31,6.72-7.73,15.32c-0.03,0.6-0.04,1.21-0.04,1.83
			c0,9.47,3.48,17.15,7.77,17.15c0.66,0,1.32-0.18,1.94-0.53"/>
		
			<path fill="none" stroke="#6981A8" stroke-width="4.5" stroke-linecap="round" stroke-linejoin="round" stroke-miterlimit="10" d="
			M306.3,72.61c-0.42-8.61-3.72-15.32-7.73-15.32c-4.01,0-7.31,6.72-7.73,15.32c-0.03,0.6-0.04,1.21-0.04,1.83
			c0,9.47,3.48,17.15,7.77,17.15c0.67,0,1.32-0.18,1.94-0.53"/>
		
			<path fill="none" stroke="#6981A8" stroke-width="4.5" stroke-linecap="round" stroke-linejoin="round" stroke-miterlimit="10" d="
			M280.39,72.61c-0.42-8.61-3.72-15.32-7.73-15.32s-7.31,6.72-7.73,15.32c-0.03,0.6-0.04,1.21-0.04,1.83
			c0,9.47,3.48,17.15,7.77,17.15c0.66,0,1.32-0.18,1.94-0.53"/>
		
			<path fill="none" stroke="#6981A8" stroke-width="4.5" stroke-linecap="round" stroke-linejoin="round" stroke-miterlimit="10" d="
			M254.47,72.61c-0.42-8.61-3.72-15.32-7.73-15.32s-7.31,6.72-7.73,15.32c-0.03,0.6-0.04,1.21-0.04,1.83
			c0,9.47,3.48,17.15,7.77,17.15c0.66,0,1.32-0.18,1.94-0.53"/>
		
			<path fill="none" stroke="#6981A8" stroke-width="4.5" stroke-linecap="round" stroke-linejoin="round" stroke-miterlimit="10" d="
			M228.55,72.61c-0.42-8.61-3.72-15.32-7.73-15.32c-4.01,0-7.31,6.72-7.73,15.32c-0.03,0.6-0.04,1.21-0.04,1.83
			c0,9.47,3.48,17.15,7.77,17.15c0.67,0,1.32-0.18,1.94-0.53"/>
		
			<path fill="none" stroke="#6981A8" stroke-width="4.5" stroke-linecap="round" stroke-linejoin="round" stroke-miterlimit="10" d="
			M202.64,72.61c-0.42-8.61-3.72-15.32-7.73-15.32s-7.31,6.72-7.73,15.32c0,0.03,0,0.04,0,0.07c-0.03,0.58-0.04,1.17-0.04,1.76
			c0,9.47,3.48,17.15,7.77,17.15c0.66,0,1.32-0.18,1.94-0.53"/>
		
			<polyline fill="none" stroke="#6981A8" stroke-width="4.5" stroke-linecap="round" stroke-linejoin="round" stroke-miterlimit="10" points="
			283.49,131.31 246.7,163.81 209.92,196.32 		"/>
		
			<polyline fill="none" stroke="#6981A8" stroke-width="4.5" stroke-linecap="round" stroke-linejoin="round" stroke-miterlimit="10" points="
			274.8,196.32 246.7,163.81 218.61,131.31 		"/>
	</g>
</g>
<circle fill="none" stroke="#F2C3AD" stroke-width="4" stroke-linecap="round" stroke-linejoin="round" stroke-miterlimit="10" cx="91.67" cy="138.7" r="13.82"/>
<rect x="376.09" y="45.4" fill="none" stroke="#F2C3AD" stroke-width="4" stroke-linecap="round" stroke-linejoin="round" stroke-miterlimit="10" width="24.11" height="24.11"/>
<polygon fill="none" stroke="#F2C3AD" stroke-width="4" stroke-linecap="round" stroke-linejoin="round" stroke-miterlimit="10" points="
	432.86,135.32 418.94,159.43 446.79,159.43 "/>
<g>
	
		<line fill="none" stroke="#F2C3AD" stroke-width="4" stroke-linecap="round" stroke-linejoin="round" stroke-miterlimit="10" x1="451.1" y1="51.36" x2="451.1" y2="75.47"/>
	
		<line fill="none" stroke="#F2C3AD" stroke-width="4" stroke-linecap="round" stroke-linejoin="round" stroke-miterlimit="10" x1="463.15" y1="63.41" x2="439.04" y2="63.41"/>
</g>
</svg>
