<svg version="1.1" id="Capa_1" xmlns="http://www.w3.org/2000/svg" xmlns:xlink="http://www.w3.org/1999/xlink" x="0px" y="0px"
	 width="70px" height="70px" viewBox="0 0 70 70" enable-background="new 0 0 70 70" xml:space="preserve">
<circle id="Elipse_1188_1_" fill="#A786B3" cx="35" cy="35" r="35"/>
<g id="Grupo_4092_1_" transform="translate(-0.25 -5.913)">
	<g id="Grupo_4090_1_" transform="translate(1.25 6.913)">
		
			<path id="Rectángulo_1841_1_" fill="none" stroke="#FFFFFF" stroke-width="2" stroke-linecap="round" stroke-linejoin="round" d="
			M17.3,18.35h33.4c1.82,0,3.3,1.48,3.3,3.3v24.7c0,1.82-1.48,3.3-3.3,3.3H17.3c-1.82,0-3.3-1.48-3.3-3.3v-24.7
			C14,19.83,15.48,18.35,17.3,18.35z"/>
		
			<line id="Línea_347_1_" fill="none" stroke="#FFFFFF" stroke-width="2" stroke-linecap="round" stroke-linejoin="round" x1="14" y1="27.04" x2="54" y2="27.04"/>
		
			<circle id="Elipse_670_1_" fill="none" stroke="#FFFFFF" stroke-width="2" stroke-linecap="round" stroke-linejoin="round" cx="20.09" cy="22.7" r="0.87"/>
		
			<circle id="Elipse_671_1_" fill="none" stroke="#FFFFFF" stroke-width="2" stroke-linecap="round" stroke-linejoin="round" cx="25.3" cy="22.7" r="0.87"/>
		
			<circle id="Elipse_672_1_" fill="none" stroke="#FFFFFF" stroke-width="2" stroke-linecap="round" stroke-linejoin="round" cx="30.52" cy="22.7" r="0.87"/>
	</g>
	<g id="Grupo_4091_1_" transform="translate(7.772 26.478)">
		<path id="Trazado_8334_1_" fill="none" stroke="#FFFFFF" stroke-width="2" stroke-linecap="round" stroke-linejoin="round" d="
			M12.7,18.78c0-2.39,1.94-4.34,4.33-4.34c0,0,0.01,0,0.01,0h20.87c2.4,0,4.35,1.95,4.35,4.35c0,2.4-1.95,4.35-4.35,4.35H17.04
			C14.64,23.13,12.7,21.18,12.7,18.78z"/>
		
			<line id="Línea_348_1_" fill="none" stroke="#FFFFFF" stroke-width="2" stroke-linecap="round" stroke-linejoin="round" x1="14.06" y1="21.93" x2="21.5" y2="14.49"/>
		
			<line id="Línea_349_1_" fill="none" stroke="#FFFFFF" stroke-width="2" stroke-linecap="round" stroke-linejoin="round" x1="18.07" y1="23.13" x2="26.72" y2="14.49"/>
		
			<line id="Línea_350_1_" fill="none" stroke="#FFFFFF" stroke-width="2" stroke-linecap="round" stroke-linejoin="round" x1="23.3" y1="23.13" x2="31.94" y2="14.49"/>
	</g>
</g>
</svg>
