<svg version="1.1" id="Capa_1" xmlns="http://www.w3.org/2000/svg" xmlns:xlink="http://www.w3.org/1999/xlink" x="0px" y="0px"
	 width="52px" height="52px" viewBox="0 0 52 52" enable-background="new 0 0 52 52" xml:space="preserve">
<g id="item03" transform="translate(-0.25 -5.41)">
	<g id="Grupo_2830" transform="translate(1.25 6.41)">
		
			<path id="Trazado_5227" fill="none" stroke="#A786B3" stroke-width="2" stroke-linecap="round" stroke-linejoin="round" stroke-miterlimit="10" d="
			M50,45.65c0,2.4-1.95,4.35-4.35,4.35H4.35C1.95,50,0,48.05,0,45.65V15.21c0-2.4,1.95-4.35,4.35-4.35h41.3
			c2.4,0,4.35,1.95,4.35,4.35L50,45.65L50,45.65z"/>
		
			<line id="Línea_278" fill="none" stroke="#A786B3" stroke-width="2" stroke-linecap="round" stroke-linejoin="round" stroke-miterlimit="10" x1="0" y1="21.74" x2="50" y2="21.74"/>
		
			<circle id="Elipse_342" fill="none" stroke="#A786B3" stroke-width="2" stroke-linecap="round" stroke-linejoin="round" stroke-miterlimit="10" cx="7.61" cy="16.31" r="1.08"/>
		
			<circle id="Elipse_343" fill="none" stroke="#A786B3" stroke-width="2" stroke-linecap="round" stroke-linejoin="round" stroke-miterlimit="10" cx="14.13" cy="16.31" r="1.08"/>
		
			<circle id="Elipse_344" fill="none" stroke="#A786B3" stroke-width="2" stroke-linecap="round" stroke-linejoin="round" stroke-miterlimit="10" cx="20.65" cy="16.31" r="1.08"/>
	</g>
	<g id="Grupo_2831" transform="translate(8.861 21.631)">
		
			<line id="Línea_279" fill="none" stroke="#A786B3" stroke-width="2" stroke-linecap="round" stroke-linejoin="round" stroke-miterlimit="10" x1="0" y1="28.25" x2="4.35" y2="28.25"/>
		
			<line id="Línea_280" fill="none" stroke="#A786B3" stroke-width="2" stroke-linecap="round" stroke-linejoin="round" stroke-miterlimit="10" x1="2.33" y1="19.56" x2="6.09" y2="21.74"/>
		
			<line id="Línea_281" fill="none" stroke="#A786B3" stroke-width="2" stroke-linecap="round" stroke-linejoin="round" stroke-miterlimit="10" x1="8.69" y1="13.19" x2="10.86" y2="16.96"/>
		
			<line id="Línea_282" fill="none" stroke="#A786B3" stroke-width="2" stroke-linecap="round" stroke-linejoin="round" stroke-miterlimit="10" x1="17.39" y1="10.86" x2="17.39" y2="15.21"/>
		
			<line id="Línea_283" fill="none" stroke="#A786B3" stroke-width="2" stroke-linecap="round" stroke-linejoin="round" stroke-miterlimit="10" x1="32.45" y1="19.56" x2="28.69" y2="21.73"/>
		
			<line id="Línea_284" fill="none" stroke="#A786B3" stroke-width="2" stroke-linecap="round" stroke-linejoin="round" stroke-miterlimit="10" x1="34.79" y1="28.25" x2="30.44" y2="28.25"/>
		
			<path id="Trazado_5228" fill="none" stroke="#A786B3" stroke-width="2" stroke-linecap="round" stroke-linejoin="round" stroke-miterlimit="10" d="
			M26.08,13.03L14.13,24.99v5.44l5.44-1.1L26.08,13.03z"/>
	</g>
</g>
</svg>
