<svg version="1.1" id="Capa_1" xmlns="http://www.w3.org/2000/svg" xmlns:xlink="http://www.w3.org/1999/xlink" x="0px" y="0px"
	 width="540.77px" height="325.13px" viewBox="0 0 540.77 325.13" enable-background="new 0 0 540.77 325.13" xml:space="preserve">
<path id="XMLID_12182_" fill="#B1D8C6" d="M0.21,303.26c0.8,6.74,6.52,11.83,13.31,11.83h87.85l376.67,0h47.05
	c6.49-0.01,12.04-11.68,13.19-18.07c3.84-21.2,7.81-65.9-25.79-69.78c-6.06-0.64-10.93-5.29-11.85-11.32
	c-7.17-48.87,10.7-91.48-42.8-98.69c-6.67-0.88-11.66-6.55-11.68-13.27c0.02-34.72-6.62-106.22-116.41-103.91
	c-95.42,2.01-119.8,45.27-125.42,72.85c-1.49,7.23-8.55,11.89-15.78,10.4c-1.11-0.23-2.19-0.6-3.21-1.1
	C151.68,65.55,101.76,55.86,84.1,97.79c-13.52,32.11,4.86,67.47,20.2,91.89c6.37,10.14-2.79,22.86-14.45,20.13
	c-23.51-5.51-42.03-5.92-46.69,17.41c-6.37,31.84,31.47,52.62,14.06,51.7c-1.28-0.08-2.55-0.33-3.76-0.76
	C23.19,267.66-2.6,279.62,0.21,303.26z"/>
<g id="XMLID_12162_">
	<path id="XMLID_16057_" fill="#F4F3F6" d="M420.58,322.88h-300.4c-5.23,0-9.48-4.24-9.48-9.48V120.09c0-5.23,4.24-9.48,9.48-9.48
		h300.4c5.23,0,9.48,4.24,9.48,9.48V313.4C430.06,318.64,425.82,322.88,420.58,322.88z"/>
	<path id="XMLID_16056_" fill="#B095BB" d="M430.06,145.2H110.71v-30.76c0-2.11,1.71-3.83,3.83-3.83h311.7
		c2.11,0,3.83,1.71,3.83,3.83V145.2z"/>
	<path id="XMLID_12776_" fill="#F3C4AE" d="M416.79,243.75H123.98c-1.05,0-1.9-0.85-1.9-1.9v-80.55c0-1.05,0.85-1.9,1.9-1.9h292.82
		c1.05,0,1.9,0.85,1.9,1.9v80.55C418.69,242.9,417.84,243.75,416.79,243.75z"/>
	<g id="XMLID_12169_">
		<path id="XMLID_12769_" fill="#DACDDE" d="M210.83,307.24h-87.47c-0.44,0-0.8-0.36-0.8-0.8v-48.62c0-0.44,0.36-0.8,0.8-0.8h87.47
			c0.44,0,0.8,0.36,0.8,0.8v48.62C211.63,306.88,211.27,307.24,210.83,307.24z"/>
		<path id="XMLID_12739_" fill="#DACDDE" d="M417.41,307.24h-87.47c-0.44,0-0.8-0.36-0.8-0.8v-48.62c0-0.44,0.36-0.8,0.8-0.8h87.47
			c0.44,0,0.8,0.36,0.8,0.8v48.62C418.22,306.88,417.86,307.24,417.41,307.24z"/>
		<path id="XMLID_12170_" fill="#DACDDE" d="M314.12,307.24h-87.47c-0.44,0-0.8-0.36-0.8-0.8v-48.62c0-0.44,0.36-0.8,0.8-0.8h87.47
			c0.44,0,0.8,0.36,0.8,0.8v48.62C314.92,306.88,314.57,307.24,314.12,307.24z"/>
	</g>
	
		<path id="XMLID_12168_" fill="none" stroke="#A585B1" stroke-width="4.5" stroke-linecap="round" stroke-linejoin="round" stroke-miterlimit="10" d="
		M420.58,322.88h-300.4c-5.23,0-9.48-4.24-9.48-9.48V120.09c0-5.23,4.24-9.48,9.48-9.48h300.4c5.23,0,9.48,4.24,9.48,9.48V313.4
		C430.06,318.64,425.82,322.88,420.58,322.88z"/>
	
		<line id="XMLID_12167_" fill="none" stroke="#A281AD" stroke-width="4.5" stroke-linecap="round" stroke-linejoin="round" stroke-miterlimit="10" x1="430.06" y1="145.67" x2="110.71" y2="145.67"/>
	<g id="XMLID_12163_">
		<circle id="XMLID_12166_" fill="#DACDDE" cx="134.4" cy="127.67" r="7.58"/>
		<circle id="XMLID_12165_" fill="#DACDDE" cx="158.57" cy="128.14" r="7.58"/>
		<circle id="XMLID_12164_" fill="#DACDDE" cx="182.73" cy="128.61" r="7.58"/>
	</g>
</g>
<line id="XMLID_6316_" fill="none" stroke="#F4F1F6" stroke-width="7" stroke-linecap="round" stroke-linejoin="round" stroke-miterlimit="10" stroke-dasharray="0,20" x1="270.39" y1="191.78" x2="270.39" y2="308.29"/>
<g>
	<g>
		<path fill="#F8F6FB" d="M270.39,35.37h-55.82v63.87c0,26.43,14.93,50.59,38.57,62.41l17.25,8.62l17.25-8.62
			c23.64-11.82,38.57-35.98,38.57-62.41V35.37H270.39z"/>
		<g>
			<path fill="#B399BF" d="M230.63,97.9c2.31-0.69,3.81-0.37,4.73,0.87c0.92,1.25,0.99,2.96,0.04,4.2c-1.2,1.57-2.8,1.66-4.67,0.96
				c0.64,1.4,0.79,2.69-0.05,4.03c2.38-0.61,3.85-0.27,4.74,1.01c0.89,1.28,0.87,2.95-0.06,4.2c-0.92,1.24-2.42,1.56-4.48,0.95
				c0.13,0.67,0.35,1.33,0.35,2c0,0.63-0.23,1.26-0.37,1.97c1-0.32,2.07-0.66,3.07-0.09c0.59,0.33,1.2,0.77,1.57,1.32
				c0.87,1.26,0.73,2.88-0.2,4.06c-0.94,1.19-2.44,1.49-4.52,0.81c0.53,1.35,0.76,2.64-0.16,4.1c2.08-0.74,3.8-0.63,4.95,1.22
				c0.78,1.26,0.69,2.82-0.25,3.95c-1.21,1.45-2.77,1.55-4.64,0.81c0.75,1.44,0.76,2.73,0.06,4.05c2.55-0.63,4.02-0.19,4.88,1.39
				c0.78,1.43,0.51,3.23-0.63,4.26c-1.05,0.95-2.87,1.26-3.91,0.47c-1.62-1.25-2.42-2.49-1.52-4.73c-0.08-0.03-0.17-0.11-0.22-0.09
				c-1.64,0.6-1.82,0.57-2.75-0.85c-2.55-3.86-4.8-7.88-6.54-12.18c-0.75-1.87-1.64-3.67-1.54-5.39c-0.49-0.97-0.98-1.61-1.14-2.32
				c-0.7-3.03-1.38-6.08-1.94-9.14c-0.86-4.8-0.86-9.65-0.86-14.51c0.02-19.25,0.01-38.5,0.01-57.76c0-0.6,0-1.2,0-1.76
				c1.09-0.39,4.95-0.48,7.11-0.21c0.11,0.22,0.22,0.46,0.33,0.68c0.63,0.08,1.23,0.15,1.88,0.23c0.05-0.28,0.11-0.58,0.17-0.92
				c2.37,0,4.68,0,7.19,0c-0.17,0.62-0.29,1.09-0.45,1.68c1.84-0.65,3.52-0.58,4.7,1.17c0.85,1.28,0.79,2.91-0.18,4.07
				c-1.21,1.45-2.78,1.53-4.6,0.83c0.66,1.41,0.8,2.7-0.04,4.05c2.37-0.62,3.86-0.27,4.74,1.01c0.89,1.28,0.87,2.96-0.06,4.2
				c-0.92,1.23-2.41,1.55-4.61,0.91c0.65,1.35,0.74,2.64-0.07,4.06c1.2-0.38,2.27-0.72,3.27-0.15c0.59,0.33,1.2,0.77,1.57,1.32
				c0.87,1.26,0.72,2.88-0.21,4.06c-0.94,1.19-2.44,1.48-4.44,0.83c0.14,0.68,0.37,1.34,0.37,1.99c0,0.63-0.22,1.27-0.36,2
				c1.77-0.63,3.45-0.56,4.63,1.19c0.85,1.28,0.79,2.91-0.18,4.07c-1.21,1.45-2.78,1.54-4.64,0.81c0.76,1.43,0.75,2.72,0.06,4.05
				c2.34-0.61,3.78-0.27,4.68,1.02c0.89,1.28,0.87,2.96-0.06,4.2c-0.92,1.24-2.42,1.56-4.61,0.91c0.64,1.35,0.74,2.64-0.08,4.07
				c1.2-0.38,2.27-0.72,3.27-0.16c0.59,0.33,1.2,0.77,1.57,1.32c0.87,1.26,0.73,2.88-0.21,4.06c-0.94,1.19-2.44,1.49-4.53,0.8
				C231.31,95.17,231.54,96.46,230.63,97.9z M226.36,129.97c0,0.92,0,1.83,0,2.61c1.07,0.13,2.11,0.26,3.24,0.4
				c-0.65-1.1-0.44-2.31-0.09-3.36C228.44,129.73,227.4,129.84,226.36,129.97z M229.37,79.03c-0.98,0.11-2.01,0.23-2.96,0.34
				c0,0.9,0,1.81,0,2.59c1.06,0.14,2.09,0.27,2.96,0.38C229.37,81.26,229.37,80.09,229.37,79.03z M229.37,62.09
				c0-1.08,0-2.25,0-3.31c-0.93,0.11-1.99,0.24-2.96,0.36c0,0.92,0,1.82,0,2.59C227.45,61.85,228.44,61.97,229.37,62.09z
				 M226.41,112.31c1.09,0.14,2.12,0.28,3.22,0.42c-0.67-1.14-0.47-2.31-0.08-3.38c-1.08,0.13-2.11,0.26-3.13,0.38
				C226.41,110.56,226.41,111.47,226.41,112.31z M229.37,68.91c-0.97,0.11-2.01,0.23-2.96,0.34c0,0.88,0,1.79,0,2.6
				c1.04,0.13,2.07,0.26,2.96,0.37C229.37,71.16,229.37,69.99,229.37,68.91z M229.62,52.02c-0.7-1.11-0.42-2.31-0.11-3.36
				c-1.1,0.13-2.14,0.25-3.1,0.35c0,0.88,0,1.79,0,2.6C227.44,51.74,228.48,51.87,229.62,52.02z M226.41,102.21
				c0.99,0.12,2.06,0.26,2.96,0.37c0-1.09,0-2.26,0-3.33c-0.92,0.11-1.98,0.25-2.96,0.37C226.41,100.49,226.41,101.36,226.41,102.21
				z M229.37,89.12c-0.93,0.12-1.99,0.25-2.96,0.37c0,0.92,0,1.83,0,2.58c1.08,0.14,2.11,0.27,2.96,0.38
				C229.37,91.35,229.37,90.19,229.37,89.12z M229.37,119.51c-0.98,0.11-2.01,0.23-2.96,0.34c0,0.9,0,1.81,0,2.59
				c1.06,0.14,2.09,0.27,2.96,0.38C229.37,121.73,229.37,120.57,229.37,119.51z M226.41,38.9c0,0.89,0,1.8,0,2.59
				c1.06,0.14,2.09,0.27,3.17,0.41c-0.59-1.11-0.42-2.31-0.09-3.36C228.42,38.66,227.43,38.78,226.41,38.9z M221.57,127.31
				c0.78,0.06,1.54,0.11,2.34,0.17c0-0.84,0-1.65,0-2.49c-0.79,0.08-1.55,0.16-2.34,0.24C221.57,125.93,221.57,126.57,221.57,127.31
				z M221.79,117.05c0.78,0.1,1.44,0.19,2.11,0.27c0-0.87,0-1.67,0-2.49c-0.74,0.11-1.4,0.21-2.11,0.32
				C221.79,115.8,221.79,116.35,221.79,117.05z M221.88,106.98c0.76,0.08,1.42,0.14,2.04,0.2c0-0.88,0-1.65,0-2.46
				c-0.72,0.1-1.38,0.2-2.04,0.29C221.88,105.68,221.88,106.27,221.88,106.98z M223.88,66.73c0-0.88,0-1.68,0-2.49
				c-0.71,0.1-1.34,0.2-1.9,0.28c0,0.72,0,1.35,0,1.98C222.64,66.58,223.23,66.65,223.88,66.73z M223.9,56.6c0-0.85,0-1.66,0-2.47
				c-0.7,0.1-1.33,0.18-1.94,0.27c0,0.69,0,1.33,0,1.98C222.64,56.46,223.27,56.53,223.9,56.6z M223.9,46.48c0-0.85,0-1.66,0-2.47
				c-0.7,0.1-1.33,0.18-1.94,0.27c0,0.69,0,1.33,0,1.98C222.64,46.34,223.27,46.41,223.9,46.48z M221.96,84.73c0,0.72,0,1.35,0,2
				c0.68,0.08,1.31,0.15,1.94,0.22c0-0.85,0-1.66,0-2.46C223.24,84.58,222.65,84.65,221.96,84.73z M223.91,74.37
				c-0.7,0.1-1.33,0.18-1.96,0.27c0,0.69,0,1.32,0,1.98c0.68,0.08,1.31,0.15,1.96,0.22C223.91,76.03,223.91,75.26,223.91,74.37z
				 M221.93,96.86c0.76,0.08,1.39,0.14,1.99,0.2c0-0.85,0-1.63,0-2.46c-0.69,0.1-1.35,0.19-1.99,0.29
				C221.93,95.59,221.93,96.19,221.93,96.86z M218.53,111.72c-0.04-0.56-0.06-0.94-0.09-1.35c-1.27,0.24-1.27,0.24-0.99,1.35
				C217.74,111.72,218.04,111.72,218.53,111.72z M218.42,101.58c0-0.43,0-0.85,0-1.61c-0.45,0.44-0.84,0.64-0.88,0.9
				C217.44,101.38,217.83,101.58,218.42,101.58z M218.17,61.16c0.12-0.07,0.23-0.14,0.35-0.21c-0.03-0.37-0.05-0.74-0.1-1.43
				c-0.45,0.42-0.89,0.67-0.86,0.86C217.59,60.65,217.95,60.89,218.17,61.16z M218.21,51.04c0.11-0.08,0.22-0.16,0.33-0.24
				c-0.04-0.36-0.08-0.73-0.16-1.44c-0.44,0.46-0.86,0.74-0.83,0.91C217.61,50.56,217.97,50.79,218.21,51.04z M218.45,39.26
				c-0.46,0.46-0.7,0.7-0.94,0.94c0.25,0.24,0.49,0.47,0.94,0.9C218.45,40.38,218.45,40,218.45,39.26z M218.46,80.13
				c-0.1-0.06-0.2-0.12-0.29-0.19c-0.22,0.23-0.57,0.42-0.64,0.69c-0.12,0.46,0.3,0.59,0.68,0.64c0.07,0.01,0.15-0.07,0.26-0.12
				C218.46,80.83,218.46,80.48,218.46,80.13z M218.46,90.25c-0.1-0.06-0.2-0.12-0.29-0.19c-0.22,0.23-0.57,0.42-0.64,0.69
				c-0.12,0.46,0.3,0.59,0.68,0.64c0.07,0.01,0.15-0.07,0.26-0.12C218.46,90.95,218.46,90.6,218.46,90.25z M218.45,69.61
				c-0.46,0.47-0.7,0.72-0.94,0.97c0.25,0.23,0.5,0.46,0.94,0.87C218.45,70.73,218.45,70.35,218.45,69.61z"/>
			<path fill="#B399BF" d="M240.85,65.52c-0.01,2.02-1.2,3.17-3.26,3.14c-1.95-0.03-3.08-1.2-3.07-3.19
				c0.01-2.02,1.2-3.17,3.26-3.14C239.73,62.36,240.86,63.53,240.85,65.52z"/>
			<path fill="#B399BF" d="M240.85,105.91c0.02,2.06-1.14,3.23-3.17,3.23c-1.98,0-3.14-1.14-3.16-3.1
				c-0.02-2.06,1.14-3.23,3.17-3.23C239.67,102.81,240.84,103.95,240.85,105.91z"/>
			<path fill="#B399BF" d="M237.76,133.16c2.01,0.02,3.14,1.23,3.1,3.3c-0.04,1.93-1.23,3.05-3.23,3.03
				c-2.01-0.02-3.14-1.23-3.1-3.3C234.56,134.26,235.75,133.14,237.76,133.16z"/>
			<path fill="#B399BF" d="M240.85,126.24c-0.01,2.02-1.2,3.17-3.26,3.14c-1.95-0.03-3.08-1.2-3.07-3.19
				c0.01-2.02,1.2-3.17,3.26-3.14C239.73,123.07,240.86,124.25,240.85,126.24z"/>
			<path fill="#B399BF" d="M240.85,75.56c0.02,2.05-1.14,3.22-3.18,3.22c-1.98-0.01-3.13-1.15-3.15-3.11
				c-0.02-2.05,1.14-3.22,3.18-3.22C239.68,72.45,240.84,73.6,240.85,75.56z"/>
			<path fill="#B399BF" d="M237.73,58.54c-2.05,0.01-3.22-1.15-3.21-3.19c0.01-1.97,1.16-3.13,3.12-3.14
				c2.05-0.01,3.22,1.15,3.21,3.19C240.85,57.37,239.7,58.53,237.73,58.54z"/>
			<path fill="#B399BF" d="M240.85,85.7c0.01,2.05-1.15,3.21-3.21,3.2c-1.97-0.01-3.12-1.16-3.13-3.14
				c-0.01-2.05,1.15-3.21,3.21-3.2C239.7,82.58,240.85,83.73,240.85,85.7z"/>
			<path fill="#B399BF" d="M240.85,116.14c-0.01,2.02-1.21,3.16-3.28,3.12c-1.94-0.03-3.07-1.22-3.05-3.21
				c0.01-2.02,1.21-3.16,3.28-3.12C239.75,112.96,240.87,114.14,240.85,116.14z"/>
			<path fill="#B399BF" d="M237.63,42.09c2.06-0.02,3.23,1.14,3.23,3.18c0,1.98-1.15,3.14-3.11,3.16c-2.06,0.02-3.23-1.14-3.23-3.18
				C234.52,43.27,235.67,42.11,237.63,42.09z"/>
			<path fill="#B399BF" d="M240.85,146.45c0,2.04-1.18,3.19-3.23,3.17c-1.96-0.02-3.1-1.18-3.1-3.16c0-2.04,1.18-3.19,3.23-3.17
				C239.72,143.3,240.85,144.46,240.85,146.45z"/>
			<path fill="#B399BF" d="M237.66,92.69c2.05-0.01,3.21,1.16,3.19,3.21c-0.01,1.97-1.17,3.11-3.14,3.12
				c-2.05,0.01-3.21-1.16-3.19-3.21C234.53,93.84,235.69,92.69,237.66,92.69z"/>
			<path fill="#B399BF" d="M245.81,121.1c0.04,1.53-1.49,3.1-3.04,3.11c-1.54,0.01-3.09-1.54-3.08-3.08
				c0.01-1.49,1.46-2.98,2.97-3.04C244.18,118.02,245.77,119.54,245.81,121.1z"/>
			<path fill="#B399BF" d="M245.81,131.33c-0.05,1.56-1.64,3.07-3.16,3c-1.57-0.07-3.06-1.68-2.96-3.19c0.1-1.52,1.6-2.95,3.08-2.93
				C244.33,128.23,245.85,129.8,245.81,131.33z"/>
			<path fill="#B399BF" d="M242.75,144.45c-1.54,0-3.09-1.55-3.07-3.09c0.02-1.56,1.59-3.08,3.12-3.03c1.51,0.05,2.96,1.51,3,3.02
				C245.84,142.88,244.3,144.44,242.75,144.45z"/>
			<path fill="#B399BF" d="M242.69,47.26c1.53-0.04,3.1,1.49,3.11,3.04c0.02,1.54-1.53,3.09-3.07,3.08
				c-1.49-0.01-2.98-1.46-3.04-2.97C239.62,48.88,241.13,47.3,242.69,47.26z"/>
			<path fill="#B399BF" d="M245.81,40.26c-0.05,1.56-1.64,3.07-3.16,3c-1.57-0.07-3.06-1.68-2.96-3.19c0.1-1.52,1.6-2.95,3.08-2.93
				C244.33,37.16,245.85,38.73,245.81,40.26z"/>
			<path fill="#B399BF" d="M245.81,151.56c-0.04,1.56-1.62,3.07-3.15,3.01c-1.57-0.07-3.06-1.67-2.97-3.18
				c0.09-1.52,1.59-2.95,3.07-2.94C244.32,148.46,245.85,150.03,245.81,151.56z"/>
			<path fill="#B399BF" d="M245.81,90.72c0.05,1.53-1.47,3.1-3.02,3.13c-1.54,0.03-3.09-1.51-3.09-3.06c0-1.49,1.44-2.98,2.95-3.06
				C244.16,87.66,245.75,89.16,245.81,90.72z"/>
			<path fill="#B399BF" d="M242.75,77.61c1.55,0,3.09,1.56,3.06,3.1c-0.03,1.56-1.6,3.08-3.13,3.02c-1.51-0.05-2.96-1.52-2.99-3.02
				C239.66,79.17,241.2,77.61,242.75,77.61z"/>
			<path fill="#B399BF" d="M245.81,100.9c0.01,1.54-1.54,3.09-3.08,3.08c-1.55-0.01-3.08-1.58-3.04-3.11
				c0.04-1.51,1.5-2.97,3.01-3.01C244.23,97.81,245.79,99.34,245.81,100.9z"/>
			<path fill="#B399BF" d="M245.81,70.58c-0.02,1.55-1.58,3.08-3.12,3.04c-1.56-0.04-3.07-1.63-3-3.15
				c0.07-1.51,1.55-2.96,3.04-2.97C244.27,67.48,245.82,69.04,245.81,70.58z"/>
			<path fill="#B399BF" d="M245.81,60.45c-0.01,1.55-1.58,3.08-3.11,3.04c-1.56-0.04-3.07-1.63-3.01-3.15
				c0.07-1.51,1.55-2.96,3.04-2.97C244.27,57.36,245.82,58.91,245.81,60.45z"/>
			<path fill="#B399BF" d="M245.81,110.98c0.04,1.53-1.49,3.1-3.04,3.11c-1.54,0.01-3.09-1.54-3.07-3.08
				c0.02-1.5,1.46-2.97,2.97-3.04C244.19,107.91,245.77,109.42,245.81,110.98z"/>
			<path fill="#B399BF" d="M247.77,93.07c1.42-0.03,2.82,1.35,2.82,2.78c0,1.43-1.39,2.81-2.81,2.79c-1.38-0.02-2.7-1.32-2.76-2.71
				C244.97,94.52,246.33,93.1,247.77,93.07z"/>
			<path fill="#B399BF" d="M247.7,118.87c-1.45-0.08-2.77-1.53-2.67-2.93c0.11-1.46,1.56-2.75,2.96-2.63
				c1.41,0.13,2.66,1.48,2.61,2.85C250.54,117.61,249.1,118.95,247.7,118.87z"/>
			<path fill="#B399BF" d="M250.59,136.28c0.04,1.42-1.33,2.82-2.77,2.83c-1.43,0.01-2.81-1.38-2.8-2.8c0.01-1.38,1.31-2.7,2.7-2.76
				C249.13,133.48,250.55,134.84,250.59,136.28z"/>
			<path fill="#B399BF" d="M250.59,45.21c0.03,1.42-1.34,2.82-2.77,2.83c-1.37,0.01-2.71-1.27-2.79-2.67
				c-0.08-1.4,1.25-2.84,2.7-2.9C249.14,42.41,250.55,43.77,250.59,45.21z"/>
			<path fill="#B399BF" d="M247.77,72.83c1.42-0.03,2.82,1.35,2.82,2.78c0,1.43-1.39,2.81-2.81,2.79c-1.38-0.02-2.7-1.32-2.76-2.71
				C244.97,74.28,246.33,72.86,247.77,72.83z"/>
			<path fill="#B399BF" d="M250.59,146.47c-0.02,1.44-1.42,2.8-2.84,2.76c-1.44-0.04-2.79-1.47-2.73-2.88
				c0.07-1.39,1.4-2.68,2.77-2.69C249.22,143.66,250.61,145.05,250.59,146.47z"/>
			<path fill="#B399BF" d="M250.59,55.41c-0.02,1.44-1.43,2.8-2.85,2.75c-1.44-0.05-2.79-1.48-2.72-2.89
				c0.07-1.39,1.41-2.68,2.78-2.68C249.23,52.59,250.61,53.98,250.59,55.41z"/>
			<path fill="#B399BF" d="M250.59,126.17c0.03,1.42-1.35,2.82-2.78,2.82c-1.37,0-2.71-1.28-2.78-2.68
				c-0.08-1.41,1.27-2.84,2.71-2.89C249.15,123.38,250.56,124.74,250.59,126.17z"/>
			<path fill="#B399BF" d="M250.59,65.44c0.04,1.42-1.33,2.82-2.76,2.84c-1.43,0.01-2.81-1.37-2.8-2.8c0.01-1.38,1.3-2.7,2.69-2.77
				C249.13,62.65,250.55,64,250.59,65.44z"/>
			<path fill="#B399BF" d="M250.59,106.08c-0.08,1.45-1.53,2.77-2.93,2.67c-1.46-0.11-2.75-1.56-2.63-2.96
				c0.13-1.41,1.48-2.66,2.85-2.61C249.33,103.24,250.67,104.68,250.59,106.08z"/>
			<path fill="#B399BF" d="M247.92,82.95c1.45,0.08,2.77,1.53,2.67,2.93c-0.11,1.46-1.56,2.75-2.96,2.63
				c-1.41-0.13-2.66-1.48-2.61-2.85C245.08,84.21,246.51,82.87,247.92,82.95z"/>
			<path fill="#B399BF" d="M247.8,153.78c1.22,0,2.38,0.96,2.69,2.24c0.27,1.1-0.34,2.35-1.36,2.95c-0.98,0.58-1.7-0.09-2.41-0.53
				c-0.76-0.47-1.73-0.85-1.69-2.01C245.08,155.08,246.44,153.79,247.8,153.78z"/>
			<path fill="#B399BF" d="M255.29,50.35c-0.02,1.3-1.12,2.39-2.42,2.39c-1.35,0-2.49-1.19-2.42-2.52c0.06-1.3,1.21-2.36,2.49-2.32
				C254.23,47.94,255.31,49.06,255.29,50.35z"/>
			<path fill="#B399BF" d="M255.29,80.71c-0.03,1.3-1.13,2.39-2.43,2.38c-1.35,0-2.49-1.2-2.42-2.53c0.07-1.3,1.21-2.36,2.49-2.31
				C254.24,78.3,255.31,79.42,255.29,80.71z"/>
			<path fill="#B399BF" d="M255.29,131.29c-0.02,1.3-1.11,2.39-2.41,2.4c-1.34,0.01-2.49-1.18-2.43-2.52
				c0.06-1.3,1.2-2.37,2.48-2.33C254.23,128.89,255.3,130,255.29,131.29z"/>
			<path fill="#B399BF" d="M255.29,40.13c0.04,1.28-1.02,2.42-2.32,2.49c-1.34,0.07-2.53-1.08-2.52-2.43c0-1.3,1.09-2.4,2.39-2.42
				C254.13,37.75,255.25,38.83,255.29,40.13z"/>
			<path fill="#B399BF" d="M255.29,60.43c0,1.29-1.09,2.4-2.38,2.42c-1.34,0.03-2.5-1.15-2.46-2.49c0.04-1.3,1.17-2.38,2.45-2.36
				C254.2,58.04,255.29,59.14,255.29,60.43z"/>
			<path fill="#B399BF" d="M252.93,93.22c-1.28,0.04-2.42-1.02-2.49-2.32c-0.06-1.28,0.98-2.43,2.29-2.52
				c1.33-0.09,2.53,1.03,2.56,2.39C255.31,92.05,254.23,93.17,252.93,93.22z"/>
			<path fill="#B399BF" d="M252.83,68.13c1.29-0.02,2.41,1.05,2.45,2.35c0.04,1.28-1.02,2.43-2.32,2.49
				c-1.33,0.07-2.53-1.08-2.52-2.42C250.45,69.26,251.54,68.15,252.83,68.13z"/>
			<path fill="#B399BF" d="M252.84,123.57c-1.3-0.02-2.39-1.11-2.4-2.41c-0.01-1.34,1.18-2.49,2.52-2.43
				c1.3,0.06,2.37,1.2,2.33,2.48C255.25,122.51,254.14,123.59,252.84,123.57z"/>
			<path fill="#B399BF" d="M255.29,111.09c-0.04,1.3-1.15,2.38-2.45,2.36c-1.35-0.02-2.48-1.21-2.39-2.55
				c0.08-1.31,1.23-2.35,2.51-2.29C254.26,108.67,255.33,109.8,255.29,111.09z"/>
			<path fill="#B399BF" d="M255.29,141.44c-0.03,1.3-1.14,2.38-2.43,2.38c-1.35-0.01-2.48-1.2-2.41-2.54
				c0.07-1.3,1.22-2.36,2.5-2.31C254.25,139.02,255.32,140.15,255.29,141.44z"/>
			<path fill="#B399BF" d="M255.29,100.96c-0.03,1.3-1.14,2.38-2.43,2.38c-1.35-0.01-2.48-1.2-2.41-2.54
				c0.07-1.3,1.21-2.36,2.5-2.31C254.25,98.54,255.32,99.67,255.29,100.96z"/>
			<path fill="#B399BF" d="M255.29,151.55c-0.03,1.3-1.13,2.39-2.43,2.38c-1.35,0-2.49-1.2-2.42-2.53c0.07-1.3,1.21-2.36,2.49-2.31
				C254.24,149.13,255.31,150.26,255.29,151.55z"/>
			<path fill="#B399BF" d="M240.66,35.43c0.08,1.63-0.9,2.71-2.45,2.86c-2.07,0.2-3.28-0.66-3.62-2.74
				C236.62,35.16,238.64,35.37,240.66,35.43z"/>
			<path fill="#B399BF" d="M257.92,63.47c1.18,0,2.02,0.83,2.03,2.01c0,1.18-0.83,2.02-2.01,2.03c-1.18,0-2.02-0.83-2.03-2.01
				C255.9,64.32,256.74,63.48,257.92,63.47z"/>
			<path fill="#B399BF" d="M259.95,75.62c0,1.18-0.85,2.02-2.03,2.01c-1.18,0-2.02-0.85-2.01-2.03c0-1.18,0.85-2.02,2.03-2.01
				C259.12,73.6,259.95,74.44,259.95,75.62z"/>
			<path fill="#B399BF" d="M257.88,114.07c1.18-0.02,2.04,0.8,2.06,1.98c0.02,1.18-0.8,2.04-1.98,2.06
				c-1.18,0.02-2.04-0.8-2.06-1.98C255.88,114.95,256.71,114.09,257.88,114.07z"/>
			<path fill="#B399BF" d="M259.95,136.4c-0.04,1.17-0.91,1.99-2.09,1.95c-1.17-0.04-1.99-0.91-1.95-2.09
				c0.04-1.17,0.91-1.99,2.09-1.95C259.17,134.34,259.98,135.22,259.95,136.4z"/>
			<path fill="#B399BF" d="M259.95,45.21c0.02,1.18-0.8,2.04-1.98,2.06c-1.18,0.02-2.04-0.8-2.06-1.98
				c-0.02-1.18,0.8-2.04,1.98-2.06C259.07,43.21,259.92,44.04,259.95,45.21z"/>
			<path fill="#B399BF" d="M255.91,105.86c0.06-1.17,0.96-1.97,2.14-1.91c1.17,0.06,1.97,0.95,1.91,2.14
				c-0.06,1.17-0.95,1.97-2.14,1.91C256.64,107.93,255.85,107.04,255.91,105.86z"/>
			<path fill="#B399BF" d="M259.95,85.8c-0.04,1.17-0.91,1.99-2.09,1.95c-1.17-0.04-1.99-0.91-1.95-2.09
				c0.04-1.17,0.91-1.99,2.09-1.95C259.17,83.75,259.98,84.62,259.95,85.8z"/>
			<path fill="#B399BF" d="M257.97,148.47c-1.18,0.02-2.04-0.8-2.06-1.98c-0.02-1.18,0.8-2.04,1.98-2.06
				c1.18-0.02,2.04,0.8,2.06,1.98C259.97,147.59,259.15,148.45,257.97,148.47z"/>
			<path fill="#B399BF" d="M259.95,55.42c-0.02,1.18-0.88,2-2.06,1.98c-1.18-0.02-2-0.88-1.98-2.06c0.02-1.18,0.88-2,2.06-1.98
				C259.15,53.38,259.97,54.24,259.95,55.42z"/>
			<path fill="#B399BF" d="M257.88,128.23c-1.18-0.02-2-0.88-1.98-2.06c0.02-1.18,0.88-2,2.06-1.98c1.18,0.02,2,0.88,1.98,2.06
				C259.92,127.43,259.07,128.25,257.88,128.23z"/>
			<path fill="#B399BF" d="M259.95,95.86c0,1.18-0.85,2.02-2.03,2.01c-1.18,0-2.02-0.85-2.01-2.03c0-1.18,0.85-2.02,2.03-2.01
				C259.12,93.84,259.95,94.68,259.95,95.86z"/>
			<path fill="#B399BF" d="M257.91,158.59c-1.18-0.01-2.01-0.86-2-2.04c0.01-1.18,0.86-2.01,2.04-2c1.18,0.01,2.01,0.86,2,2.04
				C259.94,157.77,259.09,158.6,257.91,158.59z"/>
			<path fill="#B399BF" d="M245.25,35.44c1.7,0,3.4,0,5.1,0c-0.12,1.46-1.18,2.47-2.52,2.48C246.49,37.93,245.42,36.94,245.25,35.44
				z"/>
			<path fill="#B399BF" d="M254.78,162.91c-1.42-0.73-2.87-1.19-4.01-2.24c0.7-1.38,1.94-1.81,3.24-1.17
				C255.19,160.09,255.53,161.33,254.78,162.91z"/>
			<path fill="#B399BF" d="M264.66,90.78c0.01,0.88-0.86,1.72-1.73,1.68c-0.83-0.04-1.61-0.84-1.61-1.66
				c-0.01-0.88,0.86-1.72,1.73-1.68C263.88,89.16,264.65,89.96,264.66,90.78z"/>
			<path fill="#B399BF" d="M263.02,119.48c0.88,0.02,1.7,0.91,1.64,1.77c-0.06,0.83-0.88,1.59-1.7,1.57
				c-0.88-0.02-1.7-0.91-1.64-1.77C261.37,120.22,262.2,119.46,263.02,119.48z"/>
			<path fill="#B399BF" d="M263.05,41.87c-0.86,0.04-1.72-0.77-1.74-1.64c-0.02-0.86,0.81-1.71,1.68-1.7c0.81,0,1.61,0.75,1.67,1.57
				C264.72,40.95,263.92,41.83,263.05,41.87z"/>
			<path fill="#B399BF" d="M264.66,141.39c0,0.87-0.84,1.69-1.7,1.68c-0.87-0.02-1.68-0.88-1.64-1.74c0.04-0.82,0.82-1.58,1.63-1.61
				C263.81,139.69,264.66,140.52,264.66,141.39z"/>
			<path fill="#B399BF" d="M264.66,60.4c0.02,0.88-0.84,1.73-1.71,1.7c-0.83-0.02-1.61-0.81-1.63-1.64
				c-0.02-0.88,0.84-1.73,1.71-1.7C263.85,58.79,264.64,59.57,264.66,60.4z"/>
			<path fill="#B399BF" d="M264.66,50.34c-0.01,0.88-0.9,1.71-1.76,1.65c-0.83-0.05-1.59-0.87-1.58-1.69
				c0.01-0.88,0.89-1.71,1.76-1.65C263.91,48.7,264.67,49.51,264.66,50.34z"/>
			<path fill="#B399BF" d="M262.98,72.23c-0.83-0.01-1.63-0.78-1.66-1.61c-0.04-0.87,0.8-1.74,1.68-1.73
				c0.88,0.01,1.71,0.88,1.66,1.75C264.61,71.46,263.8,72.23,262.98,72.23z"/>
			<path fill="#B399BF" d="M262.93,79c0.87-0.04,1.74,0.8,1.73,1.68c-0.01,0.83-0.78,1.63-1.61,1.66c-0.87,0.04-1.74-0.8-1.73-1.68
				C261.32,79.84,262.1,79.04,262.93,79z"/>
			<path fill="#B399BF" d="M262.94,149.84c0.87-0.03,1.73,0.82,1.72,1.69c-0.01,0.83-0.79,1.62-1.62,1.65
				c-0.87,0.03-1.74-0.82-1.72-1.69C261.33,150.66,262.11,149.87,262.94,149.84z"/>
			<path fill="#B399BF" d="M263.02,102.58c-0.86,0.02-1.71-0.8-1.71-1.67c0-0.87,0.84-1.69,1.7-1.68c0.81,0.02,1.6,0.78,1.64,1.6
				C264.7,101.7,263.89,102.56,263.02,102.58z"/>
			<path fill="#B399BF" d="M264.66,131.24c0.02,0.88-0.84,1.73-1.71,1.7c-0.83-0.02-1.61-0.81-1.63-1.64
				c-0.02-0.88,0.84-1.73,1.71-1.7C263.85,129.62,264.64,130.41,264.66,131.24z"/>
			<path fill="#B399BF" d="M262.95,112.7c-0.88-0.02-1.7-0.92-1.63-1.78c0.06-0.83,0.89-1.59,1.71-1.56
				c0.88,0.02,1.7,0.92,1.63,1.78C264.59,111.97,263.77,112.73,262.95,112.7z"/>
			<path fill="#B399BF" d="M264.66,161.67c-0.03,0.88-0.92,1.7-1.78,1.63c-0.83-0.07-1.59-0.89-1.56-1.71
				c0.03-0.88,0.92-1.7,1.78-1.63C263.93,160.02,264.68,160.85,264.66,161.67z"/>
			<path fill="#B399BF" d="M256,35.46c1.33,0,2.55,0,3.79,0c-0.29,1.21-0.77,1.65-1.74,1.7C257.04,37.21,256.46,36.77,256,35.46z"/>
			<path fill="#B399BF" d="M269.09,45.25c0.01,0.54-0.53,1.07-1.07,1.05c-0.54-0.01-1.08-0.57-1.01-1.1
				c0.07-0.57,0.42-0.92,0.99-0.98C268.53,44.16,269.08,44.7,269.09,45.25z"/>
			<path fill="#B399BF" d="M268.08,125.17c0.54,0.02,1.05,0.58,1.01,1.11c-0.04,0.53-0.63,1.06-1.14,0.97
				c-0.55-0.1-0.9-0.45-0.94-1.03C266.98,125.68,267.54,125.15,268.08,125.17z"/>
			<path fill="#B399BF" d="M269.09,95.79c0.03,0.53-0.48,1.11-1.02,1.09c-0.58-0.02-0.94-0.36-1.05-0.91
				c-0.1-0.52,0.4-1.11,0.94-1.17C268.48,94.76,269.05,95.26,269.09,95.79z"/>
			<path fill="#B399BF" d="M268.07,56.42c-0.54,0.02-1.1-0.51-1.06-1.05c0.03-0.58,0.38-0.93,0.94-1.03
				c0.52-0.09,1.1,0.44,1.14,0.97C269.12,55.84,268.61,56.4,268.07,56.42z"/>
			<path fill="#B399BF" d="M268.06,135.29c0.54,0.01,1.06,0.56,1.03,1.09c-0.03,0.54-0.61,1.07-1.13,0.98
				c-0.56-0.09-0.91-0.44-0.95-1.02C266.97,135.81,267.52,135.28,268.06,135.29z"/>
			<path fill="#B399BF" d="M269.09,85.76c-0.02,0.54-0.58,1.05-1.11,1.01c-0.53-0.04-1.06-0.63-0.97-1.14
				c0.1-0.55,0.45-0.9,1.03-0.94C268.58,84.67,269.11,85.23,269.09,85.76z"/>
			<path fill="#B399BF" d="M268.05,104.93c0.54,0,1.06,0.55,1.04,1.08c-0.02,0.54-0.59,1.07-1.12,0.99
				c-0.56-0.08-0.91-0.43-0.96-1.01C266.96,105.47,267.51,104.93,268.05,104.93z"/>
			<path fill="#B399BF" d="M267.99,145.41c0.53-0.03,1.11,0.48,1.09,1.02c-0.02,0.58-0.36,0.94-0.91,1.05
				c-0.52,0.1-1.11-0.4-1.17-0.94C266.95,146.02,267.45,145.44,267.99,145.41z"/>
			<path fill="#B399BF" d="M267.99,76.66c-0.54-0.03-1.04-0.61-0.99-1.13c0.05-0.54,0.65-1.04,1.16-0.94
				c0.56,0.11,0.9,0.47,0.92,1.05C269.1,76.17,268.52,76.69,267.99,76.66z"/>
			<path fill="#B399BF" d="M268.07,117.13c-0.54,0.02-1.1-0.51-1.06-1.05c0.03-0.58,0.38-0.93,0.94-1.03
				c0.52-0.09,1.1,0.44,1.14,0.97C269.12,116.56,268.61,117.12,268.07,117.13z"/>
			<path fill="#B399BF" d="M268.06,157.61c-0.54,0.01-1.07-0.53-1.05-1.07c0.01-0.54,0.57-1.08,1.1-1.01
				c0.57,0.07,0.92,0.42,0.98,0.99C269.14,157.06,268.6,157.6,268.06,157.61z"/>
			<path fill="#B399BF" d="M269.09,65.53c-0.02,0.54-0.58,1.05-1.11,1.01c-0.53-0.04-1.06-0.63-0.97-1.14
				c0.1-0.55,0.45-0.9,1.03-0.94C268.58,64.43,269.11,64.99,269.09,65.53z"/>
			<path fill="#B399BF" d="M268.06,167.73c-0.54,0.01-1.09-0.52-1.05-1.06c0.04-0.58,0.39-0.93,0.95-1.02
				c0.52-0.08,1.1,0.45,1.13,0.98C269.12,167.17,268.6,167.72,268.06,167.73z"/>
			<path fill="#B399BF" d="M268.74,35.56c-0.44,0.77-0.92,0.77-1.52,0.12C267.74,35.18,268.25,35.42,268.74,35.56z"/>
		</g>
		
			<path fill="none" stroke="#A585B1" stroke-width="4.5" stroke-linecap="round" stroke-linejoin="round" stroke-miterlimit="10" d="
			M270.39,35.37h-55.82v63.87c0,26.43,14.93,50.59,38.57,62.41l17.25,8.62l17.25-8.62c23.64-11.82,38.57-35.98,38.57-62.41V35.37
			H270.39z"/>
	</g>
	<g>
		
			<path fill="none" stroke="#A585B1" stroke-width="4.5" stroke-linecap="round" stroke-linejoin="round" stroke-miterlimit="10" d="
			M255.05,86.5V66.83c0-7.45,6.61-13.54,14.69-13.54l0,0c8.08,0,14.69,6.09,14.69,13.54V86.5H255.05z"/>
		<rect x="243.55" y="82.67" fill="#F3C4AE" width="53.66" height="40.89"/>
		<path fill="#F8F6FB" d="M270.39,108.22L270.39,108.22c-2.11,0-3.83-1.72-3.83-3.83v-7.67c0-2.11,1.72-3.83,3.83-3.83l0,0
			c2.11,0,3.83,1.72,3.83,3.83v7.67C274.22,106.5,272.49,108.22,270.39,108.22z"/>
		<rect x="243.55" y="115.89" fill="#A585B1" width="53.66" height="7.67"/>
	</g>
</g>
<line id="XMLID_1_" fill="none" stroke="#F4F1F6" stroke-width="7" stroke-linecap="round" stroke-linejoin="round" stroke-miterlimit="10" stroke-dasharray="0,20" x1="440.94" y1="247.76" x2="440.94" y2="312.88"/>
<g>
	<path fill="#F8F6FB" d="M493.62,235.95H388.27c-2.71,0-4.9-2.19-4.9-4.9v-63.28c0-2.71,2.19-4.9,4.9-4.9h105.35
		c2.71,0,4.9,2.19,4.9,4.9v63.28C498.52,233.75,496.32,235.95,493.62,235.95z"/>
	<path fill="none" stroke="#A585B1" stroke-width="4.5" stroke-linecap="round" stroke-linejoin="round" stroke-miterlimit="10" d="
		M493.62,235.95H388.27c-2.71,0-4.9-2.19-4.9-4.9v-63.28c0-2.71,2.19-4.9,4.9-4.9h105.35c2.71,0,4.9,2.19,4.9,4.9v63.28
		C498.52,233.75,496.32,235.95,493.62,235.95z"/>
	<rect x="383.37" y="174.79" fill="#A585B1" width="115.15" height="16.11"/>
	<rect x="394.12" y="210.24" fill="#A585B1" width="20.55" height="10.47"/>
</g>
<line id="XMLID_2_" fill="none" stroke="#F4F1F6" stroke-width="7" stroke-linecap="round" stroke-linejoin="round" stroke-miterlimit="10" stroke-dasharray="0,20" x1="90.14" y1="245.95" x2="90.14" y2="312.88"/>
<g>
	<g>
		<path fill="#F8F6FB" d="M126.6,224.59H59.52c-4.31,0-7.81-3.49-7.81-7.81V80.41c0-4.31,3.49-7.81,7.81-7.81h67.08
			c4.31,0,7.81,3.49,7.81,7.81v136.37C134.4,221.09,130.91,224.59,126.6,224.59z"/>
		
			<path fill="none" stroke="#A585B1" stroke-width="4.5" stroke-linecap="round" stroke-linejoin="round" stroke-miterlimit="10" d="
			M126.6,224.59H59.52c-4.31,0-7.81-3.49-7.81-7.81V80.41c0-4.31,3.49-7.81,7.81-7.81h67.08c4.31,0,7.81,3.49,7.81,7.81v136.37
			C134.4,221.09,130.91,224.59,126.6,224.59z"/>
		
			<line fill="none" stroke="#A585B1" stroke-width="4.5" stroke-linecap="round" stroke-linejoin="round" stroke-miterlimit="10" x1="51.71" y1="87.51" x2="134.4" y2="87.51"/>
		
			<line fill="none" stroke="#A585B1" stroke-width="4.5" stroke-linecap="round" stroke-linejoin="round" stroke-miterlimit="10" x1="51.71" y1="193.25" x2="134.4" y2="193.25"/>
		
			<line fill="none" stroke="#A585B1" stroke-width="4.5" stroke-linecap="round" stroke-linejoin="round" stroke-miterlimit="10" x1="82.58" y1="79.82" x2="93.15" y2="79.82"/>
		
			<line fill="none" stroke="#A585B1" stroke-width="4.5" stroke-linecap="round" stroke-linejoin="round" stroke-miterlimit="10" x1="102.08" y1="79.82" x2="103.82" y2="79.82"/>
		
			<circle fill="none" stroke="#A585B1" stroke-width="4.5" stroke-linecap="round" stroke-linejoin="round" stroke-miterlimit="10" cx="93.06" cy="209.28" r="7.51"/>
	</g>
	<g>
		<path fill="#F3C4AE" d="M118.96,116.58c0,19.47-2.93,41.17-25.91,51.82c-22.98-10.65-25.91-32.35-25.91-51.82
			c6.99-0.17,22.15-5.6,25.91-9.42C96.81,110.98,111.98,116.42,118.96,116.58z"/>
		
			<polyline fill="none" stroke="#A585B1" stroke-width="4.5" stroke-linecap="round" stroke-linejoin="round" stroke-miterlimit="10" points="
			81.78,136.2 90.54,144.88 104.34,130.68 		"/>
	</g>
</g>
</svg>
